<svg width="172" height="198" viewBox="0 0 172 198" fill="none" xmlns="http://www.w3.org/2000/svg">
<path d="M127.02 96.015C121.537 90.5392 114.553 86.8116 106.951 85.3032C99.3495 83.7949 91.4705 84.5736 84.3112 87.5408C77.1518 90.508 71.033 95.5306 66.7282 101.974C62.4234 108.417 60.126 115.991 60.126 123.739C60.126 131.488 62.4234 139.062 66.7282 145.505C71.033 151.948 77.1518 156.971 84.3112 159.938C91.4705 162.905 99.3495 163.684 106.951 162.176C114.553 160.667 121.537 156.94 127.02 151.464C134.366 144.106 138.491 134.135 138.491 123.739C138.491 113.344 134.366 103.373 127.02 96.015ZM118.166 142.713C114.432 146.449 109.674 148.994 104.493 150.026C99.3118 151.057 93.941 150.53 89.06 148.51C84.1791 146.489 80.0071 143.067 77.0718 138.676C74.1365 134.285 72.5699 129.122 72.5699 123.841C72.5699 118.56 74.1365 113.397 77.0718 109.006C80.0071 104.615 84.1791 101.192 89.06 99.1723C93.941 97.1521 99.3118 96.6245 104.493 97.6563C109.674 98.6881 114.432 101.233 118.166 104.969C123.139 109.971 125.93 116.737 125.93 123.79C125.93 130.843 123.139 137.609 118.166 142.612V142.713Z" fill="#62388E"/>
<path d="M41.5221 126.673C37.0237 126.038 32.5728 125.102 28.1997 123.871C24.6928 122.933 21.2905 121.641 18.0455 120.014C15.9731 119.182 14.2757 117.623 13.2728 115.628V100.685C14.3694 101.274 15.5676 101.842 16.8267 102.41C18.0859 102.979 20.0155 103.791 21.7417 104.441C22.6353 104.745 23.5692 105.009 24.4831 105.294L25.6611 105.679L28.3826 106.41L30.9009 107.019L31.8146 107.243L32.9114 107.446L36.445 108.075L38.1303 108.339C39.3082 108.502 40.5064 108.664 41.7046 108.786L43.248 108.989H44.1618L45.9899 109.131C49.158 109.375 52.3667 109.517 55.6567 109.517H56.1848C57.6519 105.079 59.7958 100.895 62.5411 97.1113C60.2259 97.294 57.9313 97.3753 55.6567 97.3753C46.3466 97.3193 37.0854 96.0219 28.1184 93.5175C24.6115 92.5793 21.2092 91.2868 17.9641 89.6599C15.8852 88.8284 14.1858 87.2598 13.1915 85.254V70.27C15.9012 71.7741 18.7347 73.0443 21.6604 74.0668C24.9834 75.2116 28.3747 76.1475 31.8146 76.8687C35.5927 77.6454 39.409 78.2215 43.248 78.5945C47.3714 79.0044 51.513 79.2077 55.6567 79.2036C59.7261 79.208 63.7931 79.0047 67.8418 78.5945C71.6328 78.2141 75.4018 77.638 79.1334 76.8687C82.5714 76.1395 85.9622 75.2038 89.2876 74.0668C92.2884 73.0355 95.2013 71.7659 97.9995 70.27V78.3914H99.1369C102.833 78.3892 106.517 78.8392 110.104 79.7315V24.7495C110.104 18.0899 104.783 12.3914 94.1411 7.65391C83.4995 2.91641 70.6375 0.540879 55.5551 0.527344C40.5268 0.527344 27.6648 2.90288 16.969 7.65391C6.27327 12.4049 0.945453 18.1035 0.98607 24.7495V115.628C0.98607 122.396 6.26636 128.122 16.8267 132.805C27.3871 137.488 40.2491 139.837 55.4128 139.85H56.6112C55.132 135.937 54.2022 131.837 53.849 127.668C49.7234 127.59 45.6069 127.258 41.5221 126.673ZM28.7277 16.5062C46.4215 11.3088 65.237 11.3088 82.9308 16.5062C91.9681 19.1254 97.0248 21.907 98.1418 24.8307C97.0316 27.7544 91.9341 30.5021 82.8495 33.0739C65.168 38.1636 46.4092 38.1636 28.7277 33.0739C19.8935 30.536 14.7554 27.7747 13.3541 24.7495C14.7554 21.8867 19.8935 19.1863 28.7277 16.5062ZM13.3541 40.038C16.0638 41.5421 18.8968 42.8123 21.8225 43.8348C25.1455 44.9797 28.5369 45.9155 31.9768 46.6367C35.7548 47.4134 39.5716 47.9895 43.4107 48.3625C47.5341 48.7724 51.6751 48.9757 55.8188 48.9716C59.8883 48.9761 63.9552 48.7727 68.0039 48.3625C71.795 47.9821 75.5639 47.4061 79.2955 46.6367C82.7335 45.9075 86.1244 44.9719 89.4497 43.8348C92.4505 42.8036 95.364 41.5339 98.1621 40.038V58.3112C95.3633 59.8001 92.4499 61.063 89.4497 62.0877C86.1302 63.2435 82.7381 64.1795 79.2955 64.8896C75.5643 65.6659 71.7953 66.2487 68.0039 66.6357C63.9552 67.0459 59.8883 67.2493 55.8188 67.2448C51.6751 67.2489 47.5341 67.0456 43.4107 66.6357C39.5713 66.2562 35.7544 65.6733 31.9768 64.8896C28.5321 64.1879 25.1395 63.2518 21.8225 62.0877C18.8975 61.0717 16.0645 59.8083 13.3541 58.3112V40.038Z" fill="#62388E"/>
<path d="M165.809 170.488L139.631 144.317C137.742 148.008 135.358 151.423 132.544 154.469L157.178 179.097C159.108 181.026 159.209 183.564 158.194 184.64C157.178 185.716 154.579 185.553 152.649 183.625L127.873 158.854C124.62 161.51 121.011 163.697 117.15 165.351L144.039 192.254C147.293 195.547 151.715 197.422 156.345 197.472C158.281 197.494 160.203 197.132 161.998 196.407C163.793 195.682 165.427 194.609 166.804 193.249C172.795 187.259 172.328 177.046 165.809 170.488Z" fill="#62388E"/>
</svg>
