<svg width="138" height="199" viewBox="0 0 138 199" fill="none" xmlns="http://www.w3.org/2000/svg">
<path d="M135.509 115.833C134.278 112.748 132.425 109.949 130.066 107.61L103.787 81.3171C100.334 77.8384 95.9249 75.4639 91.1195 74.4951C86.314 73.5263 81.3292 74.0068 76.7975 75.8757C73.7056 77.1522 70.8809 78.998 68.4708 81.3171L66.7647 83.0429L65.0591 81.3171C61.606 77.8384 57.1966 75.4639 52.3912 74.4951C47.5857 73.5263 42.6009 74.0068 38.0692 75.8757C34.9798 77.1568 32.1559 79.0021 29.7425 81.3171L7.82962 103.245C3.59581 107.437 1.01328 113.012 0.55458 118.952C0.0958756 124.891 1.79171 130.797 5.33172 135.588L14.349 126.574C13.7323 125.434 13.3132 124.199 13.11 122.919C12.907 121.655 12.907 120.366 13.11 119.102C13.3407 117.804 13.7582 116.545 14.349 115.366C14.9499 114.166 15.7381 113.069 16.6843 112.118L38.6175 90.0273C39.8009 88.8215 41.2362 87.8924 42.821 87.3066C45.8521 86.1696 49.193 86.1696 52.2241 87.3066C53.7406 87.8879 55.0977 88.8203 56.1841 90.0273L78.4217 112.26C78.7529 112.487 79.0023 112.814 79.1327 113.194C79.2834 113.589 79.3594 114.009 79.3564 114.432C79.3724 114.856 79.2969 115.278 79.1357 115.671C78.9746 116.063 78.7311 116.416 78.4217 116.706C77.7899 117.28 76.96 117.586 76.1068 117.559C75.6756 117.557 75.2484 117.474 74.8474 117.315C74.4755 117.181 74.1509 116.941 73.9133 116.625L53.6049 96.3214L17.5168 132.238C16.0773 133.674 14.9444 135.387 14.1864 137.274C13.4124 139.176 13.0124 141.21 13.0084 143.263C12.9507 147.03 14.2808 150.687 16.7453 153.537C19.1886 156.412 22.6404 158.243 26.3918 158.653C26.8499 161.964 28.3505 165.044 30.6766 167.445C33.0037 169.886 36.1029 171.45 39.45 171.871C39.8807 175.226 41.4124 178.343 43.8047 180.735C46.197 183.127 49.3151 184.658 52.6708 185.088C53.1352 188.822 55.0009 192.24 57.8902 194.651C60.0735 196.58 62.7609 197.847 65.6382 198.303C68.5156 198.76 71.4636 198.388 74.1369 197.23C76.0296 196.426 77.7472 195.26 79.1937 193.799L130.208 143.04C134.873 138.383 137.502 132.068 137.52 125.477C137.482 122.163 136.799 118.887 135.509 115.833ZM124.075 129.843C123.484 131.419 122.556 132.846 121.354 134.025L71.1313 184.337L71.0094 184.459L70.7451 184.682L70.522 184.865C70.177 185.166 69.8027 185.431 69.4049 185.657C69.0212 185.853 68.5973 185.957 68.1664 185.962C68.0523 185.983 67.9349 185.983 67.8208 185.962C66.7005 186.082 65.5705 185.857 64.5817 185.317C63.5928 184.777 62.7924 183.948 62.2885 182.941C61.7847 181.933 61.6013 180.795 61.7625 179.681C61.9237 178.566 62.4217 177.527 63.1904 176.703L63.3124 176.561L83.9054 156.623L79.4168 152.176L59.3117 172.013L58.926 172.439C57.8891 173.476 56.4828 174.058 55.0165 174.058C53.5502 174.058 52.1438 173.476 51.107 172.439C50.0702 171.403 49.4877 169.997 49.4877 168.531C49.4877 167.065 50.0702 165.659 51.107 164.623L72.1061 143.71L67.1306 139.507L47.2486 159.262L45.9892 160.501C44.8876 161.258 43.5479 161.588 42.2206 161.43C40.8932 161.272 39.669 160.636 38.7762 159.642C37.8833 158.647 37.3828 157.361 37.3686 156.025C37.3543 154.689 37.8274 153.393 38.6988 152.379L38.8203 152.278L59.4133 131.67L54.9659 127.751L34.6575 148.38V148.502C33.746 149.395 32.5528 149.945 31.2815 150.058C30.0102 150.172 28.7387 149.842 27.6834 149.124C26.628 148.406 25.8543 147.345 25.4929 146.121C25.1315 144.897 25.2049 143.586 25.7011 142.41V142.228C25.7667 142.101 25.8416 141.979 25.9247 141.862C26.255 141.438 26.6076 141.031 26.9808 140.644L27.2446 140.38L53.6456 113.985L65.3026 125.498C66.7373 126.928 68.4614 128.036 70.3594 128.746C72.3043 129.487 74.3705 129.859 76.4519 129.843C78.4833 129.878 80.5009 129.505 82.3848 128.744C84.2686 127.983 85.9801 126.851 87.4168 125.415C88.8534 123.978 89.9862 122.267 90.7471 120.384C91.5081 118.501 91.8816 116.483 91.8458 114.452C91.8519 112.434 91.487 110.431 90.7694 108.544C90.0224 106.645 88.8481 104.943 87.3374 103.57L75.8425 91.8952L77.5486 90.1897C78.732 88.9839 80.1678 88.0548 81.7526 87.4691C84.7837 86.3321 88.1241 86.3321 91.1552 87.4691C92.7083 88.0361 94.1016 88.9694 95.2169 90.1897L121.618 116.584C122.838 117.699 123.772 119.092 124.339 120.645C124.911 122.164 125.2 123.774 125.192 125.396C125.074 126.931 124.696 128.434 124.075 129.843Z" fill="#62388E"/>
<path d="M79.7416 37.3179L99.461 31.0238L94.607 18.1514L84.8391 22.4963L77.0811 25.887C78.0199 24.3312 78.5117 22.5469 78.5026 20.7299L78.6042 0L64.896 0.690329L65.9724 11.3294L67.0082 21.7045C65.7736 19.7618 63.887 18.3222 61.6871 17.6438L42.0287 11.106L38.4341 24.4455L48.8322 26.6789L58.8035 28.8716C56.6247 29.466 54.7172 30.7925 53.4016 32.6278L41.2166 49.3579L52.711 56.9109L58.0722 47.693L63.3119 38.7595C63.1879 41.0544 63.8623 43.3214 65.2208 45.1754L77.4058 62.007L88.1491 53.3577L81.0005 45.3987L74.0755 37.6022C75.9503 38.0736 77.9234 37.9746 79.7416 37.3179Z" fill="#62388E"/>
</svg>
