<svg width="202" height="194" viewBox="0 0 202 194" fill="none" xmlns="http://www.w3.org/2000/svg">
<path d="M42.5009 153.062L52.6551 149.813L50.1572 143.174L45.1207 145.407L41.1602 147.153C41.6296 146.347 41.8686 145.427 41.8509 144.494V133.814L34.7836 134.159L35.3319 139.641L35.86 144.94C35.2041 143.971 34.2367 143.255 33.1181 142.91L22.9639 139.56L21.0957 146.423L26.4569 147.58L31.5543 148.696C30.432 149.034 29.4628 149.752 28.813 150.727L22.5172 159.336L28.4268 163.234L31.2093 158.483L33.8698 153.915C33.8229 155.088 34.1814 156.243 34.8852 157.183L41.1195 165.853L46.6637 161.407L42.9883 157.346L39.414 153.285C40.4411 153.534 41.5202 153.456 42.5009 153.062Z" fill="#62388E"/>
<path d="M172.313 153.062L182.467 149.813L179.969 143.174L174.933 145.407L170.871 147.153C171.347 146.348 171.592 145.429 171.582 144.494V133.814L164.514 134.159L165.083 139.641L165.611 144.94C164.952 143.974 163.986 143.259 162.87 142.91L152.716 139.56L150.867 146.423L156.229 147.58L161.326 148.696C160.204 149.034 159.234 149.752 158.584 150.727L152.289 159.336L158.199 163.234L160.96 158.483L163.641 153.915C163.594 155.088 163.953 156.243 164.657 157.183L170.892 165.853L176.436 161.407L172.739 157.346L169.185 153.285C170.225 153.542 171.32 153.464 172.313 153.062Z" fill="#62388E"/>
<path d="M106.249 40.9658L116.403 37.7172L113.906 31.078L108.869 33.3114L104.807 35.0575C105.277 34.2508 105.516 33.3308 105.498 32.3977V21.718L98.4307 22.0632L98.9786 27.5654L99.5066 32.8647C98.8583 31.8968 97.8982 31.1803 96.7856 30.8343L86.6314 27.4842L84.7627 34.3468L90.1244 35.5041L95.2218 36.6208C94.0995 36.9581 93.1298 37.6761 92.48 38.6512L86.1847 47.2599L92.1146 51.1582L94.8768 46.4071L97.5368 41.8592C97.4929 43.0264 97.8514 44.1732 98.5522 45.1077L104.787 53.7977L110.331 49.3308L106.655 45.2701L103.081 41.2094C104.136 41.4692 105.246 41.3838 106.249 40.9658Z" fill="#62388E"/>
<path d="M100.664 74.4057C107.94 74.4097 115.054 72.2561 121.105 68.2174C127.156 64.1786 131.873 58.4362 134.66 51.7165C137.446 44.9969 138.176 37.6021 136.757 30.4676C135.339 23.333 131.836 16.7794 126.691 11.6359C121.546 6.49233 114.991 2.98994 107.855 1.57182C100.719 0.153701 93.3218 0.883565 86.6005 3.66909C79.8793 6.45462 74.1357 11.1706 70.096 17.2205C66.0562 23.2704 63.9022 30.3822 63.9063 37.6563C63.917 47.3996 67.793 56.7407 74.6842 63.6302C81.5754 70.5197 90.9186 74.395 100.664 74.4057ZM100.664 13.0687C105.529 13.0647 110.286 14.5033 114.333 17.2026C118.38 19.9019 121.536 23.7405 123.4 28.233C125.265 32.7254 125.755 37.6698 124.808 42.4407C123.862 47.2115 121.521 51.5945 118.082 55.0351C114.643 58.4758 110.261 60.8196 105.49 61.77C100.719 62.7203 95.7726 62.2346 91.2775 60.3742C86.7825 58.5139 82.9406 55.3624 80.2373 51.3186C77.534 47.2747 76.0913 42.5201 76.0913 37.6563C76.0967 31.1404 78.6864 24.8927 83.293 20.2834C87.8996 15.674 94.1468 13.0795 100.664 13.0687Z" fill="#62388E"/>
<path d="M165.103 112.983C157.829 112.979 150.716 115.132 144.665 119.169C138.614 123.207 133.897 128.949 131.11 135.667C128.323 142.385 127.592 149.779 129.009 156.913C130.426 164.047 133.927 170.601 139.07 175.745C144.213 180.89 150.766 184.394 157.901 185.814C165.036 187.234 172.432 186.507 179.153 183.725C185.875 180.943 191.62 176.23 195.662 170.183C199.705 164.135 201.862 157.025 201.862 149.752C201.851 140.007 197.976 130.664 191.085 123.771C184.194 116.878 174.851 112.999 165.103 112.983ZM165.103 174.32C160.238 174.324 155.48 172.884 151.432 170.184C147.385 167.484 144.23 163.644 142.366 159.151C140.502 154.657 140.013 149.712 140.961 144.94C141.91 140.169 144.252 135.786 147.693 132.346C151.134 128.906 155.518 126.564 160.29 125.616C165.063 124.668 170.009 125.156 174.504 127.02C178.999 128.883 182.84 132.038 185.54 136.084C188.241 140.131 189.681 144.888 189.677 149.752C189.666 156.265 187.074 162.507 182.468 167.112C177.862 171.717 171.617 174.309 165.103 174.32Z" fill="#62388E"/>
<path d="M36.9166 112.983C29.6424 112.983 22.5314 115.139 16.4832 119.179C10.435 123.22 5.7213 128.962 2.93761 135.681C0.15393 142.4 -0.574812 149.793 0.844298 156.926C2.26341 164.058 5.76669 170.61 10.9103 175.752C16.0538 180.895 22.6068 184.397 29.7412 185.815C36.8755 187.234 44.2708 186.506 50.9912 183.723C57.7116 180.94 63.4554 176.227 67.4967 170.18C71.538 164.134 73.6949 157.025 73.6949 149.752C73.6895 140.002 69.8131 130.653 62.9169 123.758C56.0208 116.864 46.6692 112.988 36.9166 112.983ZM36.9166 174.32C32.0516 174.32 27.2958 172.877 23.251 170.174C19.2062 167.472 16.0539 163.63 14.193 159.136C12.3322 154.643 11.8462 149.698 12.7968 144.928C13.7474 140.158 16.0919 135.777 19.5334 132.339C22.9749 128.901 27.359 126.561 32.131 125.614C36.903 124.668 41.8484 125.158 46.3419 127.022C50.8355 128.886 54.6753 132.04 57.3752 136.087C60.0752 140.133 61.5138 144.888 61.5098 149.752C61.4991 156.268 58.9042 162.514 54.2938 167.119C49.6833 171.725 43.434 174.314 36.9166 174.32Z" fill="#62388E"/>
<path d="M34.5198 106.749C35.2112 96.9104 38.0297 87.3387 42.7806 78.6946C47.5314 70.0504 54.1016 62.5397 62.0379 56.6808C59.9667 52.5136 58.5945 48.0345 57.9762 43.4225C46.9334 50.6561 37.8133 60.4629 31.3997 71.9996C24.9861 83.5362 21.4713 96.4576 21.1572 109.653C25.4271 107.975 29.9386 106.995 34.5198 106.749Z" fill="#62388E"/>
<path d="M140.307 54.5894C149.084 60.3974 156.399 68.1543 161.684 77.2549C166.968 86.3556 170.077 96.5537 170.769 107.054C175.415 107.67 179.929 109.042 184.132 111.114C184.044 96.9175 180.251 82.9894 173.127 70.7077C166.003 58.4259 155.796 48.216 143.516 41.0876C143.191 45.7332 142.107 50.2942 140.307 54.5894Z" fill="#62388E"/>
<path d="M129.665 174.299C120.697 178.179 111 180.085 101.231 179.889C91.4617 179.692 81.8494 177.398 73.0449 173.162C70.5457 177.007 67.4545 180.434 63.8857 183.314C75.4489 189.582 88.3615 192.95 101.514 193.126C114.666 193.303 127.665 190.284 139.392 184.329C135.629 181.534 132.343 178.146 129.665 174.299Z" fill="#62388E"/>
</svg>
