<svg id="svg" version="1.1" xmlns="http://www.w3.org/2000/svg" xmlns:xlink="http://www.w3.org/1999/xlink" width="400" height="176.7172812725958" viewBox="0, 0, 400,176.7172812725958"><g id="svgg"><path id="path0" d="M301.900 46.223 C 299.762 46.545,298.789 46.803,297.128 47.492 C 292.192 49.537,288.126 53.753,286.625 58.383 C 285.761 61.045,285.408 62.894,285.389 64.849 L 285.373 66.372 288.422 66.420 L 291.471 66.469 291.471 66.054 C 291.471 60.310,296.482 54.230,302.519 52.650 C 310.622 50.529,319.929 57.591,319.929 65.861 L 319.929 66.284 323.012 66.284 C 326.615 66.284,326.298 66.526,326.019 63.986 C 325.408 58.419,323.642 54.537,320.264 51.338 C 317.622 48.837,315.205 47.553,311.091 46.468 C 309.143 45.953,304.511 45.830,301.900 46.223 M281.628 69.278 C 281.159 69.492,280.722 69.878,280.435 70.332 L 279.982 71.049 279.982 92.734 L 279.982 114.419 280.418 115.163 C 281.255 116.591,279.169 116.483,305.780 116.483 C 331.946 116.483,330.048 116.567,330.967 115.361 L 331.418 114.770 331.418 92.839 C 331.418 68.397,331.520 70.347,330.205 69.446 L 329.588 69.023 305.979 68.982 C 283.078 68.942,282.346 68.951,281.628 69.278 M306.869 79.188 C 314.024 80.523,315.608 90.496,309.206 93.893 C 308.261 94.394,308.253 94.018,309.332 99.302 C 310.377 104.414,310.585 105.487,310.622 105.966 C 310.649 106.311,310.541 106.319,305.612 106.319 L 300.574 106.319 300.606 105.877 C 300.623 105.634,300.770 104.719,300.933 103.844 C 301.095 102.970,301.335 101.657,301.466 100.928 C 301.597 100.199,301.794 99.125,301.905 98.542 C 302.173 97.124,302.589 94.487,302.550 94.452 C 302.533 94.437,302.030 94.139,301.433 93.790 C 293.826 89.347,298.210 77.572,306.869 79.188 " stroke="none" fill="#000000" fill-rule="evenodd"></path><path id="path1" d="M0.000 88.378 L 0.000 176.757 200.000 176.757 L 400.000 176.757 400.000 88.378 L 400.000 0.000 200.000 0.000 L 0.000 0.000 0.000 88.378 M308.175 45.876 C 310.935 46.077,314.423 47.076,316.394 48.229 C 320.442 50.598,323.157 53.649,324.800 57.677 C 325.807 60.145,326.701 65.446,326.258 66.328 C 326.087 66.670,320.466 66.804,319.952 66.478 C 319.808 66.387,319.650 65.794,319.564 65.023 C 318.965 59.653,315.257 54.928,310.384 53.325 C 308.295 52.638,307.946 52.585,305.524 52.595 C 298.811 52.623,293.192 57.426,291.992 64.163 C 291.879 64.795,291.733 65.590,291.667 65.930 L 291.547 66.549 288.372 66.549 L 285.197 66.549 285.138 65.400 C 285.067 64.012,285.671 60.306,286.161 59.125 C 286.242 58.931,286.446 58.374,286.614 57.888 C 289.126 50.642,298.188 44.962,306.054 45.706 C 306.443 45.743,307.397 45.819,308.175 45.876 M155.988 68.404 C 159.740 68.668,163.519 69.419,165.382 70.271 C 165.689 70.411,165.992 70.526,166.056 70.526 C 166.551 70.526,169.942 72.470,171.277 73.518 C 175.055 76.486,178.008 81.543,178.871 86.522 C 178.989 87.203,179.163 88.078,179.257 88.467 C 179.350 88.856,179.474 91.222,179.531 93.725 C 179.641 98.545,179.654 98.612,180.312 97.677 C 180.544 97.348,181.215 96.453,181.803 95.689 C 182.391 94.925,183.477 93.504,184.216 92.532 C 187.961 87.609,189.953 84.995,193.785 79.982 C 196.089 76.969,198.629 73.638,199.429 72.580 C 202.421 68.624,201.769 68.894,208.171 68.968 L 212.984 69.023 213.474 69.513 L 213.964 70.004 214.052 87.631 L 214.141 105.259 218.559 105.259 L 222.978 105.259 223.067 87.671 C 223.164 68.231,223.083 69.455,224.304 69.096 C 224.691 68.982,227.054 68.934,230.609 68.968 L 236.295 69.023 236.751 69.452 L 237.207 69.880 237.207 88.955 C 237.207 111.387,237.238 111.938,238.650 114.849 C 239.823 117.266,242.010 118.473,245.603 118.686 C 251.926 119.059,254.686 117.205,255.989 111.710 C 256.114 111.184,256.213 103.957,256.281 90.372 L 256.385 69.829 256.788 69.426 L 257.191 69.023 263.387 69.023 L 269.584 69.023 270.018 69.527 L 270.451 70.031 270.391 91.268 C 270.345 107.333,270.277 112.699,270.113 113.301 C 269.994 113.738,269.813 114.494,269.711 114.980 C 267.351 126.191,257.973 131.785,243.629 130.536 C 233.105 129.620,227.690 125.963,224.653 117.720 L 224.164 116.394 219.114 116.347 L 214.065 116.300 214.014 122.682 L 213.964 129.063 213.468 129.490 L 212.972 129.916 206.960 129.916 C 202.992 129.916,200.828 129.851,200.592 129.725 C 199.803 129.303,199.735 128.715,199.735 122.321 L 199.735 116.306 188.859 116.306 C 178.660 116.306,177.976 116.325,177.874 116.615 C 174.590 125.945,165.743 131.150,153.160 131.155 C 145.793 131.158,136.642 130.183,135.760 129.301 L 135.307 128.847 135.307 99.701 L 135.307 70.554 135.736 70.098 C 136.584 69.195,140.926 68.710,151.392 68.348 C 152.170 68.321,152.965 68.283,153.160 68.264 C 153.354 68.245,154.627 68.308,155.988 68.404 M330.001 69.110 C 330.381 69.304,330.914 69.755,331.187 70.113 L 331.684 70.763 331.684 92.695 L 331.684 114.627 331.212 115.309 C 330.189 116.790,332.659 116.659,305.776 116.659 C 280.005 116.659,281.468 116.712,280.563 115.743 C 279.595 114.707,279.629 115.535,279.629 92.806 C 279.629 68.503,279.501 69.977,281.690 69.009 C 282.678 68.572,329.138 68.670,330.001 69.110 M126.293 69.538 L 126.823 69.962 126.823 99.483 L 126.823 129.004 126.394 129.460 L 125.966 129.916 121.127 129.916 L 116.289 129.916 115.855 129.448 L 115.422 128.981 115.422 99.504 L 115.422 70.027 115.966 69.569 L 116.510 69.112 121.136 69.113 C 125.754 69.114,125.763 69.114,126.293 69.538 M149.801 78.245 C 149.315 78.274,148.420 78.346,147.813 78.403 L 146.708 78.508 146.708 99.686 C 146.708 119.689,146.725 120.871,147.017 120.989 C 147.629 121.238,155.293 121.315,156.733 121.087 C 162.772 120.131,165.781 117.533,167.351 111.920 L 167.830 110.208 167.830 99.691 C 167.830 90.061,167.803 89.077,167.509 88.025 C 165.295 80.114,160.696 77.574,149.801 78.245 M302.559 79.782 C 296.363 82.387,295.972 90.684,301.898 93.842 L 302.913 94.383 302.767 95.048 C 302.521 96.173,301.945 99.310,301.461 102.165 C 301.304 103.089,301.100 104.089,301.008 104.387 C 300.915 104.686,300.840 105.223,300.840 105.580 L 300.840 106.231 305.583 106.231 C 308.191 106.231,310.363 106.193,310.410 106.146 C 310.456 106.100,310.348 105.364,310.169 104.511 C 309.990 103.658,309.719 102.324,309.567 101.547 C 309.247 99.917,309.121 99.289,308.698 97.216 C 308.107 94.322,308.120 94.173,308.993 93.799 C 310.784 93.030,312.436 90.745,312.975 88.293 C 314.210 82.673,307.916 77.531,302.559 79.782 M91.879 83.434 C 92.336 83.534,93.106 83.703,93.593 83.809 C 99.323 85.064,103.612 88.850,106.078 94.830 C 107.760 98.910,108.292 109.276,106.879 110.448 C 106.465 110.792,105.923 110.805,92.287 110.816 L 79.315 110.826 79.438 112.342 C 79.849 117.402,82.566 120.326,87.556 121.077 C 89.011 121.296,96.403 121.077,99.426 120.725 C 106.031 119.956,105.877 119.864,105.877 124.607 C 105.877 129.452,106.570 128.900,98.984 130.095 C 95.980 130.567,88.146 130.766,85.311 130.441 C 76.829 129.469,70.742 124.046,68.952 115.864 C 68.199 112.425,68.195 101.190,68.944 98.100 C 70.241 92.757,72.066 89.725,75.757 86.784 C 77.549 85.356,80.603 84.112,83.783 83.516 C 85.219 83.246,90.766 83.190,91.879 83.434 M196.459 91.766 C 194.615 94.310,193.026 96.478,192.928 96.583 C 192.601 96.932,186.965 104.724,186.881 104.942 C 186.737 105.318,187.506 105.358,193.902 105.308 L 200.177 105.259 200.223 96.200 C 200.260 88.885,200.224 87.141,200.040 87.141 C 199.914 87.141,198.303 89.222,196.459 91.766 M86.031 92.897 C 82.159 93.836,79.540 97.366,79.540 101.649 L 79.540 102.872 88.051 102.872 L 96.562 102.872 96.451 101.237 C 96.042 95.265,91.445 91.586,86.031 92.897 " stroke="none" fill="#fbfbfb" fill-rule="evenodd"></path><path id="path2" d="M202.298 69.438 C 202.006 69.617,200.256 71.740,198.409 74.155 C 192.930 81.322,191.461 83.251,190.135 85.020 C 189.443 85.943,188.832 86.739,188.777 86.787 C 188.722 86.836,188.205 87.512,187.628 88.290 C 187.051 89.068,186.496 89.796,186.396 89.910 C 186.295 90.023,185.832 90.619,185.366 91.235 C 180.949 97.077,179.671 98.673,179.297 98.815 C 179.061 98.905,178.817 99.119,178.753 99.290 C 178.690 99.462,178.591 99.642,178.533 99.691 C 178.475 99.739,178.111 100.191,177.724 100.694 C 177.338 101.197,176.823 101.864,176.580 102.176 C 176.337 102.489,176.108 102.823,176.072 102.919 C 175.957 103.222,175.376 103.731,175.269 103.624 C 175.212 103.567,175.164 103.673,175.162 103.859 C 175.160 104.046,175.011 104.389,174.832 104.622 C 174.652 104.855,174.542 105.184,174.586 105.353 C 174.630 105.522,174.580 105.714,174.474 105.779 C 174.200 105.949,174.205 115.245,174.479 115.245 C 174.590 115.245,174.636 115.401,174.584 115.599 C 174.533 115.794,174.564 115.908,174.652 115.854 C 174.740 115.799,174.812 115.871,174.812 116.014 C 174.812 116.186,174.931 116.242,175.166 116.180 C 175.363 116.129,175.519 116.175,175.519 116.285 C 175.519 116.536,177.675 116.554,177.924 116.304 C 178.041 116.188,181.842 116.142,188.963 116.172 L 199.823 116.217 199.912 122.492 C 200.008 129.336,200.015 129.379,201.039 129.736 C 201.884 130.031,212.161 129.972,212.887 129.669 C 213.791 129.292,213.781 129.358,213.875 122.581 L 213.964 116.217 218.825 116.168 C 224.048 116.114,224.481 116.149,224.481 116.618 C 224.482 119.341,228.566 124.974,232.170 127.224 C 236.986 130.230,248.203 131.454,254.971 129.713 C 256.807 129.241,257.678 128.974,258.330 128.685 C 258.719 128.513,259.236 128.310,259.479 128.234 C 259.722 128.159,260.217 127.910,260.580 127.681 C 260.942 127.452,261.286 127.265,261.343 127.265 C 262.805 127.265,267.166 121.971,268.508 118.567 C 270.310 113.994,270.429 112.188,270.434 89.386 C 270.438 69.078,270.468 69.778,269.563 69.294 C 268.969 68.976,257.806 69.053,257.175 69.380 C 256.441 69.759,256.485 68.512,256.419 90.764 L 256.358 111.091 255.880 112.760 C 254.812 116.488,253.145 117.995,249.315 118.697 C 244.225 119.631,239.917 118.023,238.354 114.606 C 237.258 112.210,237.308 113.245,237.209 90.617 L 237.119 69.965 236.623 69.538 L 236.127 69.112 230.312 69.112 C 224.161 69.112,223.795 69.156,223.440 69.935 C 223.300 70.241,223.243 75.415,223.243 87.859 L 223.243 105.353 218.604 105.306 L 213.964 105.259 213.875 87.612 L 213.787 69.965 213.291 69.538 L 212.795 69.112 207.812 69.112 C 203.285 69.113,202.780 69.143,202.298 69.438 M200.354 96.158 L 200.354 105.259 193.593 105.305 C 185.275 105.362,185.790 106.007,189.823 100.574 C 190.653 99.456,192.756 96.593,194.497 94.211 C 196.237 91.829,198.146 89.222,198.738 88.417 C 200.449 86.092,200.354 85.634,200.354 96.158 " stroke="none" fill="#000000" fill-rule="evenodd"></path><path id="path3" d="M303.491 45.812 C 302.470 45.900,301.396 46.044,301.105 46.133 C 300.750 46.240,301.014 46.252,301.900 46.169 C 303.687 46.002,307.675 46.012,309.409 46.189 C 310.184 46.268,310.770 46.283,310.710 46.223 C 310.622 46.135,305.347 45.552,305.347 45.630 C 305.347 45.642,304.512 45.724,303.491 45.812 M299.293 46.508 C 298.509 46.734,298.567 46.884,299.381 46.737 C 300.191 46.592,300.763 46.315,300.221 46.332 C 300.027 46.337,299.609 46.417,299.293 46.508 M311.091 46.453 C 311.237 46.542,311.675 46.663,312.064 46.720 C 312.498 46.785,312.669 46.766,312.506 46.672 C 312.133 46.457,310.750 46.243,311.091 46.453 M297.746 47.011 C 297.552 47.093,297.163 47.249,296.882 47.358 C 296.601 47.468,296.416 47.602,296.470 47.656 C 296.524 47.710,296.834 47.639,297.158 47.498 C 297.481 47.357,297.945 47.157,298.188 47.053 C 298.431 46.949,298.511 46.864,298.365 46.864 C 298.219 46.863,297.941 46.930,297.746 47.011 M313.836 47.268 C 319.105 49.298,323.187 53.477,324.899 58.595 C 325.126 59.275,325.338 59.704,325.369 59.548 C 325.469 59.040,324.394 56.554,323.236 54.618 C 322.117 52.746,319.927 50.537,317.680 49.011 C 316.468 48.189,313.571 46.834,313.058 46.849 C 312.900 46.854,313.250 47.042,313.836 47.268 M294.527 48.578 C 292.310 49.910,290.723 51.300,289.216 53.228 C 287.868 54.952,286.207 58.217,286.405 58.751 C 286.446 58.860,286.540 58.710,286.616 58.418 C 286.914 57.267,288.407 54.499,289.430 53.204 C 290.798 51.470,295.065 48.078,295.878 48.078 C 295.971 48.078,296.095 47.998,296.156 47.901 C 296.371 47.552,295.924 47.738,294.527 48.578 M303.171 52.470 C 302.947 52.533,304.045 52.585,305.612 52.585 C 307.179 52.585,308.277 52.533,308.053 52.470 C 307.828 52.407,306.730 52.355,305.612 52.355 C 304.494 52.355,303.396 52.407,303.171 52.470 M301.900 52.787 C 296.864 54.418,292.431 59.247,291.923 63.658 L 291.835 64.428 292.073 63.544 C 293.484 58.317,297.251 54.279,301.877 53.033 C 302.278 52.925,302.607 52.800,302.607 52.755 C 302.607 52.655,302.258 52.671,301.900 52.787 M308.650 52.765 C 308.700 52.815,309.131 52.967,309.607 53.102 C 310.083 53.237,310.672 53.406,310.915 53.477 C 311.798 53.734,311.000 53.262,310.055 52.968 C 309.124 52.679,308.469 52.584,308.650 52.765 M311.445 53.648 C 311.445 53.691,311.783 53.896,312.196 54.104 C 315.133 55.578,317.966 58.923,318.918 62.042 C 319.506 63.968,319.590 64.168,319.475 63.367 C 319.150 61.088,317.523 58.206,315.465 56.263 C 314.244 55.111,311.445 53.289,311.445 53.648 M286.095 59.232 C 285.816 60.073,285.438 62.045,285.503 62.326 C 285.545 62.510,285.641 62.262,285.716 61.776 C 285.792 61.290,285.974 60.512,286.122 60.046 C 286.270 59.581,286.343 59.152,286.284 59.093 C 286.225 59.034,286.140 59.097,286.095 59.232 M325.409 59.955 C 325.409 60.007,325.496 60.477,325.602 61.001 C 325.852 62.229,326.264 65.978,326.168 66.151 C 326.128 66.224,324.708 66.284,323.012 66.284 L 319.929 66.284 319.908 65.709 C 319.897 65.393,319.821 64.896,319.740 64.605 C 319.630 64.206,319.605 64.352,319.641 65.193 C 319.672 65.928,319.775 66.367,319.942 66.472 C 320.463 66.802,326.085 66.674,326.258 66.328 C 326.541 65.764,325.905 60.358,325.509 59.962 C 325.454 59.907,325.409 59.904,325.409 59.955 M285.196 63.500 C 285.135 63.913,285.110 64.768,285.141 65.400 L 285.197 66.549 288.277 66.597 C 291.740 66.652,291.628 66.691,291.739 65.386 C 291.797 64.694,291.777 64.550,291.663 64.870 C 291.577 65.113,291.499 65.572,291.489 65.890 L 291.471 66.469 288.422 66.420 L 285.373 66.372 285.410 64.560 C 285.450 62.634,285.377 62.273,285.196 63.500 M148.078 68.530 C 148.297 68.572,148.654 68.572,148.873 68.530 C 149.092 68.487,148.913 68.453,148.475 68.453 C 148.038 68.453,147.859 68.487,148.078 68.530 M281.746 68.994 C 280.839 69.414,279.765 70.544,280.025 70.804 C 280.075 70.854,280.284 70.608,280.491 70.258 C 281.334 68.828,279.405 68.925,306.008 68.977 L 329.588 69.023 330.205 69.446 C 331.520 70.347,331.418 68.397,331.418 92.839 L 331.418 114.770 330.967 115.361 C 330.048 116.567,331.946 116.483,305.780 116.483 C 279.169 116.483,281.255 116.591,280.418 115.163 L 279.982 114.419 279.970 92.693 C 279.963 80.410,279.891 71.121,279.806 71.321 C 279.722 71.516,279.648 81.150,279.641 92.731 C 279.628 115.548,279.594 114.706,280.563 115.743 C 281.468 116.712,280.005 116.659,305.776 116.659 C 332.659 116.659,330.189 116.790,331.212 115.309 L 331.684 114.627 331.684 92.695 L 331.684 70.763 331.187 70.113 C 330.062 68.637,332.325 68.756,305.752 68.773 C 288.175 68.783,282.079 68.839,281.746 68.994 M149.492 78.251 C 149.711 78.293,150.068 78.293,150.287 78.251 C 150.506 78.209,150.327 78.175,149.890 78.175 C 149.452 78.175,149.273 78.209,149.492 78.251 M304.021 79.131 C 296.817 80.313,295.136 90.260,301.534 93.852 C 302.420 94.349,302.610 94.533,302.538 94.824 C 302.343 95.621,302.248 97.129,302.415 96.774 C 302.507 96.580,302.588 96.167,302.595 95.858 C 302.602 95.548,302.684 95.094,302.777 94.848 C 302.936 94.429,302.883 94.367,301.915 93.851 C 297.226 91.352,296.221 85.242,299.895 81.569 C 303.462 78.001,310.145 78.950,312.218 83.318 C 312.393 83.687,312.576 83.948,312.625 83.899 C 312.794 83.730,311.738 82.148,310.891 81.301 C 309.189 79.599,306.447 78.733,304.021 79.131 M312.744 84.490 C 313.273 87.065,313.271 87.019,312.968 88.347 C 312.415 90.770,310.770 93.032,309.006 93.796 C 308.219 94.137,308.010 94.926,308.450 95.890 C 308.559 96.129,308.579 95.929,308.513 95.272 L 308.416 94.300 309.194 93.893 C 312.383 92.227,314.490 86.680,312.835 84.308 C 312.696 84.108,312.675 84.151,312.744 84.490 M168.000 99.691 C 168.000 104.211,168.023 106.061,168.051 103.800 C 168.079 101.540,168.079 97.841,168.051 95.581 C 168.023 93.321,168.000 95.170,168.000 99.691 M308.695 97.128 C 308.762 97.614,308.889 98.290,308.975 98.630 C 309.062 98.970,309.186 99.567,309.251 99.956 C 309.316 100.345,309.404 100.568,309.446 100.452 C 309.527 100.230,308.813 96.484,308.660 96.332 C 308.611 96.284,308.627 96.642,308.695 97.128 M301.985 98.038 C 301.922 98.412,301.758 99.292,301.620 99.993 C 301.348 101.376,301.289 102.514,301.539 101.547 C 301.825 100.437,302.290 97.547,302.197 97.454 C 302.144 97.401,302.048 97.663,301.985 98.038 M309.501 100.963 C 309.501 101.242,309.615 101.849,310.171 104.511 C 310.349 105.364,310.456 106.100,310.410 106.146 C 310.363 106.193,308.191 106.231,305.583 106.231 L 300.840 106.231 300.822 105.479 L 300.803 104.728 300.651 105.347 C 300.379 106.447,300.194 106.407,305.596 106.407 C 310.945 106.407,310.851 106.427,310.579 105.395 C 310.482 105.028,310.230 103.853,310.019 102.784 C 309.650 100.913,309.501 100.388,309.501 100.963 M79.412 101.989 C 79.412 102.426,79.446 102.605,79.488 102.386 C 79.531 102.167,79.531 101.810,79.488 101.591 C 79.446 101.372,79.412 101.551,79.412 101.989 M301.128 102.651 C 300.898 103.854,300.831 104.718,300.987 104.463 C 301.167 104.170,301.447 102.165,301.308 102.165 C 301.260 102.165,301.179 102.384,301.128 102.651 M85.758 110.782 C 89.324 110.809,95.210 110.809,98.838 110.782 C 102.467 110.755,99.549 110.734,92.355 110.733 C 85.161 110.733,82.193 110.755,85.758 110.782 M150.380 131.106 C 150.796 131.144,151.432 131.143,151.794 131.105 C 152.156 131.067,151.816 131.037,151.038 131.037 C 150.261 131.038,149.965 131.069,150.380 131.106 M154.885 131.103 C 155.154 131.144,155.552 131.143,155.769 131.101 C 155.987 131.059,155.767 131.026,155.281 131.027 C 154.795 131.028,154.617 131.063,154.885 131.103 " stroke="none" fill="#efd58f" fill-rule="evenodd"></path><path id="path4" d="M149.801 68.415 C 138.864 68.968,136.303 69.314,135.621 70.331 L 135.219 70.932 135.221 99.673 C 135.224 130.402,135.180 128.913,136.103 129.586 C 137.283 130.447,150.574 131.349,156.253 130.953 C 167.331 130.181,174.021 125.780,177.783 116.792 L 177.986 116.306 188.858 116.306 L 199.730 116.306 199.780 122.404 L 199.830 128.502 199.827 122.360 L 199.823 116.217 188.963 116.172 C 181.842 116.142,178.041 116.188,177.924 116.304 C 177.675 116.554,175.519 116.536,175.519 116.285 C 175.519 116.175,175.363 116.129,175.166 116.180 C 174.931 116.242,174.812 116.186,174.812 116.014 C 174.812 115.871,174.740 115.799,174.652 115.854 C 174.564 115.908,174.533 115.794,174.584 115.599 C 174.636 115.401,174.590 115.245,174.479 115.245 C 174.205 115.245,174.200 105.949,174.474 105.779 C 174.580 105.714,174.630 105.522,174.586 105.353 C 174.542 105.184,174.652 104.855,174.832 104.622 C 175.011 104.389,175.160 104.046,175.162 103.859 C 175.164 103.673,175.212 103.567,175.269 103.624 C 175.376 103.731,175.957 103.222,176.072 102.919 C 176.108 102.823,176.337 102.489,176.580 102.176 C 176.823 101.864,177.338 101.197,177.724 100.694 C 178.111 100.191,178.475 99.739,178.533 99.691 C 178.591 99.642,178.690 99.462,178.753 99.290 C 178.817 99.119,179.061 98.905,179.296 98.816 C 179.530 98.727,180.104 98.151,180.571 97.537 C 181.038 96.923,181.243 96.575,181.027 96.763 C 180.811 96.951,180.471 97.368,180.272 97.691 C 179.676 98.654,179.637 98.457,179.532 93.902 C 179.163 78.014,171.493 69.450,156.783 68.503 C 153.237 68.274,152.721 68.268,149.801 68.415 M205.358 69.067 C 206.749 69.097,208.976 69.097,210.307 69.067 C 211.638 69.037,210.499 69.013,207.777 69.013 C 205.055 69.013,203.966 69.037,205.358 69.067 M227.364 69.067 C 228.999 69.097,231.624 69.097,233.197 69.067 C 234.771 69.038,233.433 69.014,230.225 69.014 C 227.017 69.014,225.730 69.038,227.364 69.067 M260.495 69.067 C 262.075 69.097,264.660 69.097,266.240 69.067 C 267.819 69.038,266.527 69.014,263.367 69.014 C 260.208 69.014,258.915 69.038,260.495 69.067 M116.266 69.387 C 115.391 69.862,115.422 68.759,115.422 99.625 L 115.422 128.925 115.897 129.420 L 116.372 129.916 121.035 129.916 C 123.894 129.916,125.829 129.846,126.037 129.734 C 126.956 129.242,126.911 130.797,126.911 99.506 C 126.911 67.642,126.983 69.796,125.901 69.304 C 125.208 68.988,116.869 69.060,116.266 69.387 M201.896 69.547 C 201.412 69.954,199.471 72.470,199.641 72.470 C 199.684 72.470,200.203 71.835,200.794 71.059 C 201.385 70.282,202.084 69.530,202.348 69.386 C 202.612 69.243,202.735 69.123,202.621 69.119 C 202.507 69.115,202.181 69.308,201.896 69.547 M213.359 69.628 L 213.875 70.145 213.875 87.647 C 213.875 97.273,213.935 105.186,214.008 105.231 C 214.081 105.276,214.101 97.373,214.052 87.669 L 213.964 70.024 213.535 69.568 C 213.300 69.317,213.047 69.112,212.974 69.112 C 212.902 69.112,213.075 69.344,213.359 69.628 M236.644 69.603 C 236.905 69.874,237.152 70.072,237.193 70.045 C 237.295 69.976,236.472 69.112,236.304 69.112 C 236.230 69.112,236.383 69.333,236.644 69.603 M256.738 69.466 C 256.561 69.661,256.469 69.874,256.534 69.938 C 256.598 70.002,256.650 69.964,256.650 69.854 C 256.650 69.744,256.869 69.535,257.137 69.390 C 257.435 69.228,257.514 69.123,257.341 69.119 C 257.186 69.115,256.914 69.271,256.738 69.466 M269.524 69.234 C 269.653 69.285,269.912 69.577,270.098 69.883 C 270.284 70.188,270.436 70.349,270.437 70.240 C 270.438 69.944,269.735 69.110,269.497 69.126 C 269.364 69.135,269.374 69.174,269.524 69.234 M256.382 88.997 C 256.382 99.399,256.403 103.628,256.429 98.396 C 256.456 93.163,256.456 84.652,256.429 79.483 C 256.403 74.313,256.382 78.595,256.382 88.997 M223.024 87.848 C 222.999 97.472,223.038 105.347,223.111 105.347 C 223.184 105.347,223.243 97.472,223.243 87.848 C 223.243 78.224,223.204 70.349,223.157 70.349 C 223.109 70.349,223.049 78.224,223.024 87.848 M198.752 73.487 C 197.798 74.680,197.736 74.768,197.847 74.768 C 197.902 74.768,198.314 74.291,198.763 73.707 C 199.729 72.452,199.721 72.276,198.752 73.487 M196.288 76.712 C 195.552 77.684,194.989 78.480,195.038 78.480 C 195.087 78.480,195.729 77.684,196.465 76.712 C 197.201 75.740,197.764 74.945,197.715 74.945 C 197.666 74.945,197.024 75.740,196.288 76.712 M157.225 78.391 C 163.696 79.461,166.962 83.074,167.843 90.139 C 168.203 93.025,168.198 106.412,167.836 109.242 C 166.922 116.392,163.776 119.885,157.225 121.023 C 155.584 121.308,147.379 121.295,146.912 121.007 C 146.760 120.913,146.708 115.509,146.708 99.684 L 146.708 78.487 147.106 78.397 C 148.533 78.075,155.289 78.071,157.225 78.391 M193.990 79.717 C 193.541 80.300,193.214 80.778,193.263 80.778 C 193.311 80.778,193.718 80.300,194.167 79.717 C 194.616 79.134,194.943 78.657,194.895 78.657 C 194.846 78.657,194.439 79.134,193.990 79.717 M191.930 82.413 C 191.322 83.215,190.954 83.767,191.111 83.641 C 191.424 83.389,193.237 80.954,193.112 80.954 C 193.069 80.954,192.537 81.611,191.930 82.413 M84.313 83.456 C 74.863 85.033,69.634 90.905,68.562 101.145 C 68.235 104.267,68.457 113.507,68.907 115.525 C 71.618 127.676,81.920 132.709,98.738 130.100 C 99.408 129.996,100.513 129.828,101.193 129.727 C 106.040 129.008,105.876 129.189,105.876 124.561 C 105.877 119.935,106.173 120.171,100.951 120.629 C 92.402 121.378,87.247 121.344,85.020 120.525 C 81.694 119.302,79.717 116.378,79.424 112.249 L 79.311 110.650 92.928 110.650 C 108.116 110.650,107.019 110.742,107.448 109.430 C 107.903 108.041,107.638 101.503,106.997 98.277 C 104.900 87.721,95.513 81.588,84.313 83.456 M189.395 85.727 C 188.946 86.310,188.643 86.786,188.721 86.785 C 188.800 86.784,189.040 86.526,189.255 86.211 C 189.469 85.896,189.814 85.420,190.021 85.152 C 190.227 84.885,190.354 84.666,190.303 84.666 C 190.252 84.666,189.843 85.144,189.395 85.727 M187.362 88.378 C 186.770 89.156,186.349 89.791,186.426 89.790 C 186.503 89.789,186.863 89.371,187.226 88.862 C 187.589 88.353,188.053 87.718,188.257 87.450 C 188.461 87.183,188.586 86.964,188.534 86.964 C 188.481 86.964,187.954 87.601,187.362 88.378 M199.663 87.115 C 199.603 87.212,199.710 87.245,199.915 87.191 C 200.270 87.099,200.271 87.145,200.224 96.214 C 200.198 101.227,200.237 105.269,200.311 105.195 C 200.620 104.886,200.375 87.062,200.061 87.001 C 199.900 86.970,199.721 87.021,199.663 87.115 M197.295 90.367 C 194.140 94.647,192.689 96.684,192.799 96.676 C 192.871 96.671,193.282 96.174,193.713 95.572 C 194.143 94.969,195.317 93.343,196.322 91.958 C 197.327 90.572,198.111 89.439,198.064 89.439 C 198.017 89.439,197.671 89.856,197.295 90.367 M185.488 90.897 C 184.735 91.766,184.455 92.145,184.653 92.030 C 184.768 91.963,185.113 91.591,185.420 91.204 C 186.015 90.452,186.064 90.233,185.488 90.897 M183.379 93.632 C 181.938 95.498,181.335 96.332,181.429 96.332 C 181.502 96.332,184.140 92.938,184.425 92.477 C 184.775 91.910,184.329 92.403,183.379 93.632 M90.228 92.891 C 93.782 93.817,95.830 96.434,96.500 100.906 C 96.829 103.097,97.779 102.883,87.968 102.830 L 79.452 102.784 79.496 101.510 C 79.706 95.487,84.724 91.458,90.228 92.891 M191.049 98.939 C 190.541 99.553,190.325 99.867,190.413 99.867 C 190.461 99.867,190.714 99.589,190.973 99.249 C 191.455 98.617,191.513 98.379,191.049 98.939 M189.260 101.326 C 188.740 102.030,187.981 103.061,187.573 103.616 C 187.165 104.171,186.832 104.686,186.832 104.761 C 186.832 104.836,187.475 104.024,188.261 102.957 C 190.307 100.179,190.401 100.044,190.297 100.044 C 190.246 100.044,189.779 100.621,189.260 101.326 M237.326 110.093 C 237.380 110.904,237.490 111.779,237.571 112.037 C 237.738 112.565,237.652 111.469,237.386 109.677 C 237.244 108.725,237.238 108.767,237.326 110.093 M270.188 110.678 C 270.120 111.665,270.029 112.719,269.985 113.020 L 269.907 113.566 270.073 113.063 C 270.256 112.509,270.538 108.882,270.398 108.882 C 270.351 108.882,270.256 109.690,270.188 110.678 M256.052 110.980 C 255.983 111.501,255.964 111.966,256.010 112.012 C 256.128 112.130,256.351 110.545,256.256 110.263 C 256.213 110.135,256.121 110.458,256.052 110.980 M255.590 113.124 C 255.480 113.533,255.425 113.901,255.467 113.944 C 255.509 113.986,255.630 113.682,255.735 113.269 C 255.840 112.855,255.895 112.486,255.858 112.449 C 255.820 112.412,255.700 112.716,255.590 113.124 M237.762 112.947 C 237.762 113.093,237.831 113.372,237.914 113.566 C 238.010 113.789,238.066 113.822,238.066 113.654 C 238.066 113.509,237.998 113.230,237.914 113.036 C 237.819 112.813,237.762 112.780,237.762 112.947 M269.666 114.341 C 269.598 114.767,269.579 115.153,269.625 115.199 C 269.743 115.317,269.958 114.072,269.866 113.797 C 269.824 113.670,269.734 113.915,269.666 114.341 M255.121 114.469 C 255.053 114.653,254.807 115.109,254.574 115.483 C 254.341 115.857,254.179 116.191,254.215 116.227 C 254.250 116.262,254.542 115.851,254.863 115.314 C 255.185 114.777,255.402 114.291,255.346 114.236 C 255.290 114.180,255.189 114.285,255.121 114.469 M269.321 115.843 C 269.255 116.016,269.205 116.291,269.211 116.453 C 269.219 116.648,269.280 116.604,269.393 116.321 C 269.487 116.086,269.536 115.812,269.503 115.711 C 269.469 115.611,269.387 115.670,269.321 115.843 M239.770 116.636 C 240.159 117.053,240.636 117.477,240.831 117.579 C 241.237 117.791,241.154 117.703,239.947 116.649 L 239.063 115.878 239.770 116.636 M213.993 116.247 C 213.928 116.312,213.875 119.090,213.875 122.422 C 213.875 128.981,213.839 129.265,212.949 129.652 C 212.632 129.790,212.508 129.905,212.672 129.909 C 212.837 129.913,213.195 129.724,213.468 129.490 L 213.964 129.063 214.014 122.684 L 214.065 116.306 219.102 116.306 L 224.139 116.306 224.299 116.703 C 224.457 117.097,224.458 117.097,224.470 116.722 C 224.476 116.514,224.355 116.295,224.201 116.236 C 223.819 116.090,214.140 116.100,213.993 116.247 M253.224 117.012 C 252.384 117.648,252.207 117.829,252.673 117.576 C 253.079 117.356,254.132 116.496,253.999 116.494 C 253.951 116.493,253.602 116.726,253.224 117.012 M224.582 117.543 C 224.647 117.786,224.774 118.104,224.864 118.250 C 224.978 118.434,224.992 118.380,224.910 118.073 C 224.845 117.830,224.718 117.512,224.628 117.366 C 224.514 117.182,224.500 117.236,224.582 117.543 M242.775 118.427 C 243.304 118.654,243.745 118.654,243.394 118.427 C 243.248 118.333,242.970 118.260,242.775 118.265 L 242.422 118.275 242.775 118.427 M250.110 118.427 C 249.759 118.654,250.201 118.654,250.729 118.427 L 251.083 118.275 250.729 118.265 C 250.535 118.260,250.256 118.333,250.110 118.427 M268.346 118.948 C 268.243 119.245,268.196 119.487,268.242 119.487 C 268.361 119.487,268.694 118.569,268.607 118.482 C 268.567 118.442,268.449 118.652,268.346 118.948 M244.719 118.811 C 245.629 118.973,247.875 118.973,248.785 118.811 C 249.206 118.736,248.385 118.685,246.752 118.685 C 245.120 118.685,244.298 118.736,244.719 118.811 M267.645 120.463 C 267.433 120.899,267.298 121.255,267.343 121.255 C 267.463 121.255,268.177 119.819,268.097 119.739 C 268.060 119.702,267.857 120.028,267.645 120.463 M225.895 120.630 C 225.895 120.815,226.605 121.962,226.719 121.962 C 226.768 121.962,226.628 121.664,226.409 121.299 C 225.920 120.487,225.895 120.454,225.895 120.630 M266.206 122.759 C 265.299 124.026,264.479 124.882,262.925 126.180 C 262.536 126.505,262.377 126.691,262.572 126.593 C 263.546 126.104,265.937 123.572,266.988 121.918 C 267.592 120.966,267.140 121.453,266.206 122.759 M226.921 122.404 C 227.024 122.598,227.359 123.036,227.666 123.376 L 228.225 123.995 227.647 123.199 C 226.939 122.225,226.674 121.935,226.921 122.404 M228.723 124.602 C 228.723 124.682,229.132 125.095,229.632 125.520 C 230.674 126.406,231.552 127.005,230.756 126.286 C 230.464 126.023,229.887 125.504,229.474 125.132 C 229.061 124.761,228.723 124.522,228.723 124.602 M231.639 127.003 C 231.834 127.161,232.152 127.369,232.346 127.464 L 232.700 127.638 232.346 127.350 C 232.152 127.192,231.834 126.984,231.639 126.888 L 231.286 126.715 231.639 127.003 M233.849 128.237 C 233.849 128.328,234.771 128.734,235.455 128.945 C 235.690 129.017,235.842 129.033,235.793 128.981 C 235.658 128.834,233.849 128.142,233.849 128.237 M258.830 128.468 C 258.425 128.632,258.028 128.833,257.947 128.914 C 257.866 128.996,258.237 128.889,258.772 128.679 C 259.306 128.468,259.777 128.263,259.817 128.222 C 259.968 128.072,259.545 128.177,258.830 128.468 M199.916 128.819 C 199.909 129.162,200.733 129.918,201.097 129.902 C 201.323 129.892,201.286 129.841,200.968 129.724 C 200.723 129.634,200.387 129.342,200.222 129.075 C 200.056 128.808,199.919 128.693,199.916 128.819 M236.500 129.297 C 237.307 129.608,237.625 129.604,236.942 129.291 C 236.650 129.157,236.293 129.051,236.147 129.054 C 236.001 129.057,236.160 129.166,236.500 129.297 M256.675 129.235 C 256.349 129.329,256.115 129.439,256.155 129.479 C 256.244 129.569,257.534 129.225,257.534 129.112 C 257.534 129.008,257.394 129.028,256.675 129.235 M238.003 129.739 C 238.197 129.823,238.515 129.891,238.710 129.891 L 239.063 129.891 238.710 129.739 C 238.515 129.656,238.197 129.587,238.003 129.587 L 237.649 129.587 238.003 129.739 M254.795 129.739 L 254.441 129.891 254.795 129.891 C 254.989 129.891,255.307 129.823,255.502 129.739 L 255.855 129.587 255.502 129.587 C 255.307 129.587,254.989 129.656,254.795 129.739 M239.682 130.076 C 239.925 130.151,240.601 130.260,241.184 130.318 C 241.773 130.376,242.048 130.362,241.803 130.286 C 241.560 130.211,240.884 130.102,240.300 130.045 C 239.712 129.986,239.436 130.000,239.682 130.076 M252.501 130.113 C 251.019 130.329,250.859 130.454,252.232 130.324 C 253.391 130.214,254.631 129.940,253.911 129.953 C 253.716 129.956,253.082 130.028,252.501 130.113 M245.186 130.651 C 246.078 130.743,247.403 130.743,248.368 130.651 C 249.917 130.504,249.819 130.494,246.840 130.494 C 243.956 130.494,243.802 130.509,245.186 130.651 " stroke="none" fill="#000000" fill-rule="evenodd"></path></g></svg>