<svg width="248" height="56" viewBox="0 0 248 56" fill="none" xmlns="http://www.w3.org/2000/svg">
<path d="M52.7331 5.34938C51.3779 4.55096 49.7482 3.97309 47.8793 3.66431C46.0238 3.35553 44.1018 3.35553 42.2063 3.61579C40.3198 3.87164 38.4642 4.38775 36.7282 5.11559C34.9922 5.84785 33.3758 6.79625 31.9763 7.92111C30.5725 9.05037 29.3856 10.3649 28.5221 11.8206C27.6496 13.2851 27.1802 14.7629 27.0872 16.1833C26.9942 17.6125 27.2821 18.9844 27.9109 20.2195C28.5486 21.4679 29.5451 22.5795 30.8515 23.4794C32.1712 24.3837 33.8142 25.0674 35.7406 25.4556C37.6759 25.8438 39.7086 25.8967 41.7281 25.6452C43.7475 25.3938 45.7403 24.8512 47.5959 24.0616C49.4471 23.272 51.1521 22.231 52.5958 21.0047C54.0351 19.7784 55.2086 18.3624 56.0146 16.8096C56.8118 15.2701 57.1661 13.7395 57.1306 12.3014C57.0952 10.8766 56.6745 9.5356 55.9172 8.3534C55.1688 7.17561 54.0926 6.15663 52.7331 5.34938Z" fill="#808080"/>
<path d="M62.3873 9.94582C61.0765 7.95196 59.2209 6.22719 56.9048 4.88178C54.6196 3.55401 51.8783 2.58355 48.7606 2.08067C45.6695 1.58662 42.4809 1.58662 39.3499 2.0145C36.2278 2.44239 33.1543 3.29375 30.2758 4.50241C27.3928 5.71108 24.6958 7.28587 22.3442 9.16063C19.9749 11.0442 17.9466 13.2454 16.4232 15.698C14.8865 18.1815 14.014 20.6959 13.7616 23.1309C13.5048 25.6011 13.8856 27.9832 14.8599 30.1535C15.8519 32.3591 17.455 34.3397 19.6206 35.9586C21.8128 37.604 24.5806 38.87 27.8622 39.611C31.1792 40.3609 34.6866 40.4977 38.1719 40.1007C41.6793 39.6949 45.1469 38.7597 48.3709 37.3657C51.586 35.9762 54.5399 34.1456 57.0288 31.9665C59.4999 29.8006 61.5016 27.3082 62.8479 24.5733C64.172 21.8781 64.7256 19.2181 64.6105 16.7214C64.4953 14.26 63.7203 11.9617 62.3918 9.94141L62.3873 9.94582ZM59.3803 20.6385C58.3086 22.7647 56.7232 24.7012 54.7746 26.3863C52.8172 28.0802 50.4966 29.5006 47.9812 30.5858C45.4569 31.6709 42.7378 32.412 39.992 32.734C37.2552 33.056 34.4918 32.9678 31.8745 32.4164C29.2749 31.865 27.0739 30.899 25.3113 29.6418C23.5709 28.3934 22.2689 26.8627 21.4452 25.1468C20.6348 23.4573 20.2893 21.5869 20.4576 19.646C20.6215 17.7271 21.2813 15.7333 22.477 13.7615C23.6639 11.8029 25.2626 10.0473 27.1492 8.54306C29.0225 7.03885 31.1792 5.77725 33.4953 4.8112C35.8026 3.84074 38.2693 3.157 40.7759 2.81293C43.2913 2.46886 45.8466 2.46886 48.3266 2.87469C50.8199 3.28051 53.0076 4.05247 54.8189 5.11998C56.6568 6.19631 58.1182 7.56819 59.1456 9.14739C60.1819 10.7487 60.7709 12.5616 60.8373 14.4937C60.9082 16.4567 60.4476 18.5388 59.3848 20.6429L59.3803 20.6385Z" fill="#808080"/>
<path d="M72.3916 21.3354C72.1436 17.78 70.9611 14.4672 68.9993 11.5779C67.0773 8.7459 64.4024 6.31092 61.0987 4.4097C57.857 2.55259 53.9997 1.20718 49.6287 0.514627C45.3153 -0.169107 40.8778 -0.151462 36.529 0.448459C32.2023 1.04838 27.9331 2.23058 23.9253 3.90683C19.9086 5.58749 16.1266 7.77544 12.8096 10.3869C9.4527 13.0247 6.54755 16.117 4.31998 19.5754C2.06584 23.1043 0.706267 26.6994 0.214695 30.1975C-0.290162 33.7706 0.0995522 37.251 1.33955 40.4447C2.61055 43.7134 4.76727 46.6821 7.76098 49.1347C10.8123 51.6403 14.7227 53.5988 19.4126 54.7899C24.1733 55.9941 29.2484 56.2808 34.3236 55.7427C39.4341 55.2089 44.496 53.8459 49.2036 51.7902C53.8978 49.739 58.1936 47.0218 61.7984 43.7751C65.359 40.5682 68.211 36.8672 70.0887 32.831C71.931 28.8653 72.644 24.9747 72.3871 21.3354H72.3916ZM66.413 28.6403C64.801 32.0061 62.3786 35.0895 59.3716 37.7627C56.3336 40.4579 52.7198 42.7209 48.7784 44.4324C44.8281 46.1483 40.5811 47.2952 36.2898 47.7628C32.0207 48.2348 27.7427 48.0319 23.7127 47.0659C19.7358 46.1175 16.3967 44.5206 13.7706 42.4606C11.1887 40.4403 9.2977 37.9788 8.15955 35.2571C7.04355 32.5884 6.64498 29.6637 7.01255 26.6509C7.3757 23.691 8.48284 20.6385 10.3738 17.6388C12.2427 14.6789 14.705 12.0366 17.5658 9.77812C20.4001 7.53282 23.6374 5.65366 27.0917 4.20679C30.5327 2.76433 34.2128 1.74535 37.9373 1.22924C41.6794 0.717541 45.4968 0.708719 49.1991 1.29982C52.9457 1.89533 56.245 3.05547 59.004 4.65232C61.8073 6.27122 64.0658 8.34889 65.6778 10.7618C67.3164 13.2144 68.2863 16.0067 68.459 19.0107C68.6361 22.0633 67.9984 25.332 66.413 28.6448V28.6403Z" fill="#808080"/>
<path d="M103.71 10.431C101.695 10.2413 97.1826 10.1443 94.3528 10.1443C87.6346 10.1443 84.136 12.6763 84.136 19.0328V45.0279C84.136 45.5573 84.5656 45.9852 85.097 45.9852H87.546C88.073 45.9852 88.507 45.5529 88.507 45.0279V29.4035H103.236C103.763 29.4035 104.197 28.9712 104.197 28.4463V26.6289C104.197 26.104 103.763 25.6717 103.236 25.6717H88.507V19.0284C88.507 15.3936 89.3219 14.0614 94.4059 14.0614H103.666C104.003 14.0614 104.193 13.8232 104.193 13.488V11.0971C104.193 10.8104 103.998 10.4795 103.715 10.4266L103.71 10.431Z" fill="#808080"/>
<path d="M114.551 10.4796H111.912C111.385 10.4796 111.048 10.9074 111.048 11.3838V45.028C111.048 45.5573 111.434 45.9852 111.912 45.9852H114.551C115.078 45.9852 115.415 45.5088 115.415 45.028V11.3883C115.415 10.8589 115.034 10.484 114.551 10.484V10.4796Z" fill="#808080"/>
<path d="M158.673 10.4795H156.127C155.6 10.4795 155.215 10.9074 155.215 11.3882V33.2765C155.215 39.7301 153.921 42.6415 148.496 42.6415C147.682 42.6415 145.135 42.4959 144.081 42.2092V11.3397C144.081 10.8148 143.745 10.4751 143.218 10.4751H140.622C140.095 10.4751 139.715 10.903 139.715 11.3838V42.2092C138.656 42.4959 136.114 42.6415 135.299 42.6415C129.879 42.6415 128.581 39.7257 128.581 33.2765V11.3882C128.581 10.9074 128.147 10.4795 127.669 10.4795H125.127C124.6 10.4795 124.215 10.9074 124.215 11.3882V33.2765C124.215 41.5916 127.093 46.3248 134.387 46.3248C136.885 46.3248 139.139 46.0866 141.871 45.1294C144.604 46.0866 146.907 46.3248 149.404 46.3248C156.698 46.3248 159.577 41.5916 159.577 33.2765V11.3882C159.577 10.9074 159.143 10.4795 158.669 10.4795H158.673Z" fill="#808080"/>
<path d="M180.165 10.1443H177.38C170.471 10.1443 167.065 12.7248 167.065 20.0386V45.0324C167.065 45.5132 167.451 45.9896 167.929 45.9896H170.568C171.1 45.9896 171.432 45.5088 171.432 45.0324V30.8857H186.117V45.0324C186.117 45.5617 186.498 45.9896 186.981 45.9896H189.616C190.098 45.9896 190.484 45.5088 190.484 45.0324V20.0386C190.484 12.7248 187.029 10.1443 180.17 10.1443H180.165ZM186.117 27.0612H171.432V20.0386C171.432 15.0716 173.013 13.9688 177.38 13.9688H180.165C184.532 13.9688 186.117 15.0672 186.117 20.0386V27.0612Z" fill="#808080"/>
<path d="M213.455 30.4049C217.826 29.258 220.988 26.104 220.988 20.7532V20.4179C220.988 12.6763 215.133 10.1443 207.556 10.1443C204.77 10.1443 201.174 10.2899 199.111 10.5281C198.247 10.6251 197.959 10.9074 197.959 11.5779V45.0324C197.959 45.5573 198.345 45.9852 198.827 45.9852H201.418C201.949 45.9852 202.282 45.5088 202.282 45.0324V30.9827C204.824 31.0754 205.975 31.1283 207.56 31.1283H208.805L217.396 45.3676C217.777 45.9896 218.065 45.9896 218.641 45.9896H221.714C222.099 45.9896 222.339 45.7029 222.339 45.3676C222.339 45.222 222.285 45.0809 222.192 44.9397L213.459 30.4093L213.455 30.4049ZM207.556 27.392C206.453 27.392 204.39 27.3435 202.277 27.2994V14.2026C203.429 14.057 206.068 14.057 207.556 14.057C213.552 14.057 216.67 15.6362 216.67 20.4135V20.7488C216.67 25.9099 213.455 27.392 207.556 27.392Z" fill="#808080"/>
<path d="M238.211 14.0614H247.471C247.803 14.0614 247.998 13.8232 247.998 13.4924V11.1015C247.998 10.8148 247.803 10.4795 247.519 10.431C245.504 10.2413 240.996 10.1443 238.166 10.1443C231.448 10.1443 227.945 12.6763 227.945 19.0328V37.4319C227.945 43.7884 231.448 46.3204 238.166 46.3204C240.996 46.3204 245.699 46.2719 247.519 46.0822C247.807 46.0337 247.998 45.7029 247.998 45.4117V42.9723C247.998 42.6371 247.803 42.3989 247.471 42.3989H238.211C233.122 42.3989 232.307 41.0579 232.307 37.4275V29.3991H247.037C247.564 29.3991 247.993 28.9712 247.993 28.4419V26.6289C247.993 26.104 247.564 25.6761 247.037 25.6761H232.307V19.0328C232.307 15.4024 233.127 14.0614 238.211 14.0614Z" fill="#808080"/>
</svg>
