<?xml version="1.0" encoding="UTF-8"?>
<svg id="Capa_2" data-name="Capa 2" xmlns="http://www.w3.org/2000/svg" viewBox="0 0 440.32 165.91">
  <defs>
    <style>
      .cls-1 {
        fill: #fff;
      }

      .cls-2 {
        fill: none;
      }
    </style>
  </defs>
  <g id="MOOC">
    <g>
      <g>
        <path class="cls-1" d="m233,75.6c0-20.95-16.98-37.93-37.93-37.93s-37.93,16.98-37.93,37.93,16.98,37.93,37.93,37.93,37.93-16.98,37.93-37.93Zm-60.69,0c0-12.57,10.19-22.76,22.76-22.76s22.76,10.19,22.76,22.76-10.19,22.76-22.76,22.76-22.76-10.19-22.76-22.76Z"/>
        <path class="cls-1" d="m202.58,75.6c0-4.15-3.36-7.51-7.51-7.51s-7.51,3.36-7.51,7.51,3.36,7.51,7.51,7.51,7.51-3.36,7.51-7.51Z"/>
        <path class="cls-1" d="m275.82,37.66c-20.95,0-37.93,16.98-37.93,37.93s16.98,37.93,37.93,37.93,37.93-16.98,37.93-37.93-16.98-37.93-37.93-37.93Zm0,60.69c-12.57,0-22.76-10.19-22.76-22.76s10.19-22.76,22.76-22.76,22.76,10.19,22.76,22.76-10.19,22.76-22.76,22.76Z"/>
        <path class="cls-1" d="m275.82,68.09c-4.15,0-7.51,3.36-7.51,7.51s3.36,7.51,7.51,7.51,7.51-3.36,7.51-7.51-3.36-7.51-7.51-7.51Z"/>
        <path class="cls-1" d="m395.25,60.83c0-12.68-10.28-23.16-22.96-23.16h-15.4c-21.12,0-38.24,16.92-38.24,38.04s17.12,38.24,38.24,38.24h15.4c12.68,0,22.96-10.28,22.96-22.96,0-5.77-2.13-11.04-5.65-15.07,3.52-4.03,5.65-9.31,5.65-15.09Zm-38.36,22.63h15.4c4.18,0,7.56,3.36,7.56,7.53s-3.2,7.54-7.21,7.73h-15.75c-12.68,0-22.96-10.11-22.96-22.79s10.28-22.81,22.96-22.81h15.4c4.18,0,7.56,3.54,7.56,7.71s-3.38,7.55-7.56,7.55h-15.4c-4.18,0-7.56,3.37-7.56,7.55s3.38,7.53,7.56,7.53Z"/>
        <path class="cls-1" d="m83.35,108.09c4.06,3.64,9.43,5.85,15.31,5.85s11.24-2.21,15.31-5.85c4.06,3.64,9.43,5.85,15.31,5.85,12.68,0,22.96-10.28,22.96-22.96v-30.5c.01-21.12-17.11-38.24-38.23-38.24-5.46,0-10.64,1.15-15.34,3.21-4.7-2.06-9.88-3.21-15.34-3.21-21.12,0-38.24,17.12-38.24,38.24v30.5c.01,12.68,10.29,22.96,22.97,22.96,5.88,0,11.24-2.21,15.31-5.85Zm-22.87-17.11l-.09-30.28c0-12.68,10.28-22.96,22.96-22.96,5.88,0,11.24,2.21,15.31,5.85,4.06-3.64,9.43-5.85,15.31-5.85,12.68,0,22.96,10.28,22.96,22.96l-.09,30.28c0,4.18-3.38,7.56-7.56,7.56s-7.56-3.38-7.56-7.56l-.19-30.27c0-4.18-3.38-7.56-7.56-7.56s-7.56,3.38-7.56,7.56l-.19,30.27c0,4.18-3.38,7.56-7.56,7.56s-7.56-3.38-7.56-7.56l-.19-30.27c0-4.18-3.38-7.56-7.56-7.56s-7.56,3.38-7.56,7.56l-.19,30.27c0,4.18-3.38,7.56-7.56,7.56s-7.56-3.38-7.56-7.56Z"/>
        <path class="cls-1" d="m65.47,138.16c0,.59-.12,1.12-.37,1.57-.25.46-.59.81-1.04,1.07-.45.26-.98.39-1.58.39s-1.13-.13-1.58-.39-.8-.62-1.05-1.07c-.25-.46-.38-.98-.38-1.57v-9.24h-2.65v9.47c0,1.05.24,1.97.71,2.76s1.13,1.41,1.98,1.86,1.84.66,2.97.66,2.12-.22,2.97-.66,1.51-1.06,1.98-1.86c.47-.79.71-1.72.71-2.76v-9.47h-2.65v9.24Z"/>
        <path class="cls-1" d="m78.25,132.91c-.54-.33-1.16-.49-1.87-.49-.86,0-1.57.24-2.13.73-.46.4-.82.95-1.09,1.65l-.03-2.24h-2.46v10.92h2.6v-6.36c0-.51.09-.94.27-1.29s.43-.63.75-.82c.32-.19.69-.28,1.1-.28.61,0,1.08.2,1.43.6.35.4.52.95.52,1.66v6.49h2.6v-6.94c0-.87-.15-1.6-.44-2.22s-.71-1.08-1.24-1.41Z"/>
        <path class="cls-1" d="m83.71,128.18c-.4,0-.75.14-1.04.42-.29.28-.43.62-.43,1.03s.14.74.43,1.02c.29.28.63.42,1.04.42s.76-.14,1.04-.42c.29-.28.43-.62.43-1.02s-.14-.75-.43-1.03c-.29-.28-.63-.42-1.04-.42Z"/>
        <rect class="cls-1" x="82.41" y="132.56" width="2.6" height="10.92"/>
        <path class="cls-1" d="m92.63,138.36c-.21.7-.39,1.41-.55,2.12-.06.27-.12.56-.18.84-.06-.28-.13-.57-.19-.84-.16-.71-.35-1.42-.57-2.12l-1.82-5.8h-2.77l3.84,10.92h2.93l3.85-10.92h-2.74l-1.81,5.8Z"/>
        <path class="cls-1" d="m106.23,133.76c-.44-.45-.95-.79-1.53-1.01-.58-.22-1.2-.33-1.86-.33-1,0-1.86.24-2.6.71s-1.31,1.14-1.72,1.99c-.41.85-.61,1.83-.61,2.95s.2,2.14.61,2.98.99,1.49,1.75,1.95,1.66.69,2.71.69c.79,0,1.49-.12,2.11-.37.61-.24,1.12-.59,1.53-1.04s.7-.96.86-1.56l-2.37-.49c-.11.29-.26.54-.45.74-.2.2-.44.35-.71.45s-.58.15-.92.15c-.51,0-.95-.11-1.34-.34-.38-.23-.68-.57-.9-1.02-.19-.41-.28-.91-.3-1.48h7.15v-.8c0-.95-.12-1.77-.38-2.47-.25-.69-.6-1.27-1.04-1.72Zm-4.66,1.13c.36-.25.78-.37,1.29-.37s.93.12,1.27.37c.34.24.6.59.77,1.03.12.31.18.67.22,1.05h-4.6c.03-.38.1-.75.25-1.07.19-.42.46-.76.81-1.01Z"/>
        <path class="cls-1" d="m114.8,132.41c-.59,0-1.11.17-1.56.52-.46.34-.78.84-.97,1.49h-.11v-1.87h-2.51v10.92h2.6v-6.32c0-.46.1-.87.29-1.22.19-.35.46-.62.81-.82s.74-.29,1.18-.29c.21,0,.43.01.66.04s.4.06.51.1v-2.47c-.12-.03-.27-.05-.43-.06-.16-.02-.32-.02-.46-.02Z"/>
        <path class="cls-1" d="m122.92,137.2l-1.82-.39c-.51-.11-.87-.27-1.08-.46-.21-.2-.32-.45-.32-.75,0-.35.16-.64.49-.85s.73-.33,1.22-.33c.53,0,.95.12,1.26.38.31.25.51.56.63.93l2.31-.45c-.13-.58-.38-1.08-.74-1.51-.36-.43-.83-.76-1.41-1-.58-.24-1.27-.36-2.08-.36-.85,0-1.59.14-2.23.41-.64.27-1.14.66-1.5,1.16-.36.5-.54,1.09-.54,1.78,0,.81.24,1.47.73,1.98s1.23.88,2.22,1.09l1.78.4c.46.1.81.25,1.03.44s.33.44.33.74c0,.35-.16.64-.49.87-.33.23-.77.35-1.34.35s-1.04-.13-1.39-.39c-.35-.26-.6-.65-.73-1.18l-2.42.46c.12.67.38,1.24.78,1.71.4.47.91.83,1.54,1.07s1.35.37,2.16.37c.89,0,1.68-.15,2.36-.44.68-.3,1.22-.71,1.61-1.24s.58-1.15.58-1.85c0-.77-.24-1.4-.73-1.89-.49-.49-1.22-.84-2.21-1.06Z"/>
        <path class="cls-1" d="m129.13,128.18c-.4,0-.75.14-1.04.42-.29.28-.43.62-.43,1.03s.14.74.43,1.02c.29.28.63.42,1.04.42s.76-.14,1.04-.42c.29-.28.43-.62.43-1.02s-.14-.75-.43-1.03c-.29-.28-.63-.42-1.04-.42Z"/>
        <rect class="cls-1" x="127.83" y="132.56" width="2.6" height="10.92"/>
        <path class="cls-1" d="m139.74,134.38h-.09c-.12-.27-.3-.56-.54-.87s-.55-.56-.94-.78c-.39-.21-.89-.32-1.49-.32-.78,0-1.49.21-2.13.63s-1.16,1.05-1.54,1.88c-.38.83-.57,1.87-.57,3.1s.19,2.22.56,3.06.88,1.47,1.52,1.91c.64.44,1.37.66,2.17.66.59,0,1.08-.1,1.47-.31.39-.21.7-.46.94-.76.24-.3.42-.58.55-.86h.14v1.74h2.55v-14.55h-2.6v5.46Zm-.22,5.43c-.18.51-.45.91-.8,1.2-.35.29-.78.43-1.28.43s-.94-.15-1.29-.44c-.35-.29-.61-.7-.79-1.22-.18-.52-.27-1.11-.27-1.76s.09-1.24.26-1.75c.18-.51.44-.91.79-1.2s.78-.43,1.29-.43.93.14,1.28.42c.35.28.62.67.8,1.18.18.5.27,1.1.27,1.79s-.09,1.28-.27,1.79Z"/>
        <path class="cls-1" d="m151.94,133.24c-.42-.29-.88-.5-1.39-.63-.51-.13-1.03-.2-1.55-.2-.73,0-1.4.11-2,.33-.6.22-1.12.55-1.54.98-.42.43-.73.97-.92,1.61l2.39.46c.08-.23.21-.45.39-.65s.41-.36.69-.48.61-.18.98-.18.69.06.95.19.45.3.58.53c.13.23.2.52.2.85v.05c0,.24-.09.42-.26.54-.18.12-.45.2-.82.26s-.86.12-1.46.18c-.51.06-1,.15-1.47.28s-.89.31-1.26.56-.67.57-.88.97c-.22.4-.32.91-.32,1.52,0,.72.15,1.33.46,1.81.3.49.71.85,1.24,1.1.52.25,1.11.37,1.77.37.53,0,.99-.08,1.38-.23s.73-.36,1.01-.62c.27-.26.49-.55.65-.88h.09v1.51h2.48v-7.32c0-.7-.12-1.28-.38-1.76-.25-.48-.58-.86-1-1.15Zm-1.2,6.32c0,.39-.1.75-.29,1.08-.2.33-.47.59-.81.79-.35.2-.75.29-1.22.29-.32,0-.61-.05-.86-.16-.25-.1-.45-.26-.59-.46-.14-.2-.21-.45-.21-.75,0-.32.08-.58.23-.78.16-.2.37-.36.64-.48s.58-.2.94-.25c.15-.02.34-.05.55-.08.21-.03.43-.07.64-.11s.41-.09.59-.15c.18-.06.31-.12.39-.18v1.24Z"/>
        <path class="cls-1" d="m162.63,134.38h-.09c-.12-.27-.3-.56-.54-.87s-.55-.56-.94-.78c-.39-.21-.89-.32-1.49-.32-.78,0-1.49.21-2.13.63s-1.16,1.05-1.54,1.88c-.38.83-.57,1.87-.57,3.1s.19,2.22.56,3.06.88,1.47,1.52,1.91c.64.44,1.37.66,2.17.66.59,0,1.08-.1,1.47-.31.39-.21.7-.46.94-.76.24-.3.42-.58.55-.86h.14v1.74h2.55v-14.55h-2.6v5.46Zm-.22,5.43c-.18.51-.45.91-.8,1.2-.35.29-.78.43-1.28.43s-.94-.15-1.29-.44c-.35-.29-.61-.7-.79-1.22-.18-.52-.27-1.11-.27-1.76s.09-1.24.26-1.75c.18-.51.44-.91.79-1.2s.78-.43,1.29-.43.93.14,1.28.42c.35.28.62.67.8,1.18.18.5.27,1.1.27,1.79s-.09,1.28-.27,1.79Z"/>
        <path class="cls-1" d="m185.01,129.55c-.73-.42-1.62-.63-2.67-.63h-5.29v14.55h2.65v-4.83h2.58c1.06,0,1.96-.21,2.7-.62.74-.42,1.29-.99,1.68-1.72s.58-1.57.58-2.51-.19-1.77-.57-2.5c-.38-.73-.93-1.31-1.66-1.73Zm-.78,5.57c-.19.39-.47.69-.86.91s-.88.33-1.48.33h-2.19v-5.12h2.18c.61,0,1.1.11,1.49.32s.67.51.86.89.28.83.28,1.33-.09.95-.28,1.33Z"/>
        <path class="cls-1" d="m196.39,133.12c-.75-.47-1.64-.7-2.66-.7s-1.92.23-2.67.7c-.75.47-1.33,1.13-1.74,1.98s-.61,1.84-.61,2.96.2,2.1.61,2.95.99,1.5,1.74,1.97c.75.47,1.64.7,2.67.7s1.91-.23,2.66-.7c.75-.47,1.33-1.13,1.73-1.97s.61-1.83.61-2.95-.2-2.11-.61-2.96-.99-1.51-1.73-1.98Zm-.55,6.69c-.18.52-.44.93-.79,1.24s-.79.46-1.32.46-.97-.15-1.32-.46-.61-.72-.79-1.24c-.18-.52-.26-1.11-.26-1.76s.09-1.25.26-1.76c.18-.52.44-.93.79-1.23s.79-.45,1.32-.45.96.15,1.32.45.62.71.79,1.24c.18.52.26,1.11.26,1.76s-.09,1.24-.26,1.76Z"/>
        <rect class="cls-1" x="200.76" y="128.92" width="2.6" height="14.55"/>
        <rect class="cls-1" x="205.81" y="132.56" width="2.6" height="10.92"/>
        <path class="cls-1" d="m207.11,128.18c-.4,0-.75.14-1.04.42-.29.28-.43.62-.43,1.03s.14.74.43,1.02c.29.28.63.42,1.04.42s.76-.14,1.04-.42c.29-.28.43-.62.43-1.02s-.14-.75-.43-1.03c-.29-.28-.63-.42-1.04-.42Z"/>
        <path class="cls-1" d="m215.3,141.38c-.19.03-.34.04-.44.04-.35,0-.61-.09-.76-.26-.16-.18-.23-.45-.23-.82v-5.67h1.98v-2.11h-1.98v-2.6h-2.6v2.6h-1.45v2.11h1.45v5.91c0,.98.27,1.74.81,2.26s1.32.79,2.34.79c.27,0,.54-.02.83-.05s.58-.1.87-.19l-.39-2.08c-.11.03-.25.05-.44.08Z"/>
        <polygon class="cls-1" points="222.86 131.17 224.75 128.15 222.29 128.15 221 131.17 222.86 131.17"/>
        <path class="cls-1" d="m225.39,133.76c-.44-.45-.95-.79-1.53-1.01-.58-.22-1.2-.33-1.86-.33-1,0-1.86.24-2.6.71s-1.31,1.14-1.72,1.99c-.41.85-.61,1.83-.61,2.95s.2,2.14.61,2.98.99,1.49,1.75,1.95,1.66.69,2.71.69c.79,0,1.49-.12,2.11-.37.61-.24,1.12-.59,1.53-1.04s.7-.96.86-1.56l-2.37-.49c-.11.29-.26.54-.45.74-.2.2-.44.35-.71.45s-.58.15-.92.15c-.51,0-.95-.11-1.34-.34-.38-.23-.68-.57-.9-1.02-.19-.41-.28-.91-.3-1.48h7.15v-.8c0-.95-.12-1.77-.38-2.47-.25-.69-.6-1.27-1.04-1.72Zm-4.66,1.13c.36-.25.78-.37,1.29-.37s.93.12,1.27.37c.34.24.6.59.77,1.03.12.31.18.67.22,1.05h-4.6c.03-.38.1-.75.25-1.07.19-.42.46-.76.81-1.01Z"/>
        <path class="cls-1" d="m235.25,140.38c-.12.24-.27.44-.45.61-.18.17-.39.29-.63.39-.23.09-.49.14-.77.14-.53,0-.97-.15-1.33-.45-.35-.3-.62-.71-.8-1.23-.18-.52-.27-1.11-.27-1.78s.09-1.26.27-1.78c.18-.52.45-.92.8-1.22.35-.3.79-.44,1.33-.44.28,0,.53.04.76.13s.43.21.61.37c.18.16.33.36.45.58s.22.48.28.77l2.42-.51c-.1-.55-.29-1.04-.55-1.47s-.59-.81-.98-1.11-.85-.54-1.35-.7-1.06-.24-1.66-.24c-1.02,0-1.91.23-2.66.7-.75.47-1.33,1.13-1.74,1.98s-.61,1.84-.61,2.96.2,2.1.61,2.95.99,1.5,1.74,1.97c.75.47,1.64.7,2.66.7.6,0,1.16-.08,1.67-.24.51-.16.97-.4,1.36-.72s.72-.7.99-1.14c.26-.44.44-.94.54-1.5l-2.41-.5c-.06.29-.15.56-.27.8Z"/>
        <path class="cls-1" d="m247.5,132.91c-.54-.33-1.16-.49-1.87-.49-.86,0-1.57.24-2.13.73-.46.4-.82.95-1.09,1.65l-.03-2.24h-2.46v10.92h2.6v-6.36c0-.51.09-.94.27-1.29s.43-.63.75-.82c.32-.19.69-.28,1.1-.28.61,0,1.08.2,1.43.6.35.4.52.95.52,1.66v6.49h2.6v-6.94c0-.87-.15-1.6-.44-2.22s-.71-1.08-1.24-1.41Z"/>
        <path class="cls-1" d="m252.95,128.18c-.4,0-.75.14-1.04.42-.29.28-.43.62-.43,1.03s.14.74.43,1.02c.29.28.63.42,1.04.42s.76-.14,1.04-.42c.29-.28.43-.62.43-1.02s-.14-.75-.43-1.03c-.29-.28-.63-.42-1.04-.42Z"/>
        <rect class="cls-1" x="251.65" y="132.56" width="2.6" height="10.92"/>
        <path class="cls-1" d="m263.15,140.38c-.12.24-.27.44-.45.61-.18.17-.39.29-.63.39-.23.09-.49.14-.77.14-.53,0-.97-.15-1.33-.45-.35-.3-.62-.71-.8-1.23-.18-.52-.27-1.11-.27-1.78s.09-1.26.27-1.78c.18-.52.45-.92.8-1.22.35-.3.79-.44,1.33-.44.28,0,.53.04.76.13s.43.21.61.37c.18.16.33.36.45.58s.22.48.28.77l2.42-.51c-.1-.55-.29-1.04-.55-1.47s-.59-.81-.98-1.11-.85-.54-1.35-.7-1.06-.24-1.66-.24c-1.02,0-1.91.23-2.66.7-.75.47-1.33,1.13-1.74,1.98s-.61,1.84-.61,2.96.2,2.1.61,2.95.99,1.5,1.74,1.97c.75.47,1.64.7,2.66.7.6,0,1.16-.08,1.67-.24.51-.16.97-.4,1.36-.72s.72-.7.99-1.14c.26-.44.44-.94.54-1.5l-2.41-.5c-.06.29-.15.56-.27.8Z"/>
        <path class="cls-1" d="m275.15,133.24c-.42-.29-.88-.5-1.39-.63-.51-.13-1.03-.2-1.55-.2-.73,0-1.4.11-2,.33-.6.22-1.12.55-1.54.98-.42.43-.73.97-.92,1.61l2.39.46c.08-.23.21-.45.39-.65s.41-.36.69-.48.61-.18.98-.18.69.06.95.19.45.3.58.53c.13.23.2.52.2.85v.05c0,.24-.09.42-.26.54-.18.12-.45.2-.82.26s-.86.12-1.46.18c-.51.06-1,.15-1.47.28s-.89.31-1.26.56-.67.57-.88.97c-.22.4-.32.91-.32,1.52,0,.72.15,1.33.46,1.81.3.49.71.85,1.24,1.1.52.25,1.11.37,1.77.37.53,0,.99-.08,1.38-.23s.73-.36,1.01-.62c.27-.26.49-.55.65-.88h.09v1.51h2.48v-7.32c0-.7-.12-1.28-.38-1.76-.25-.48-.58-.86-1-1.15Zm-1.2,6.32c0,.39-.1.75-.29,1.08-.2.33-.47.59-.81.79-.35.2-.75.29-1.22.29-.32,0-.61-.05-.86-.16-.25-.1-.45-.26-.59-.46-.14-.2-.21-.45-.21-.75,0-.32.08-.58.23-.78.16-.2.37-.36.64-.48s.58-.2.94-.25c.15-.02.34-.05.55-.08.21-.03.43-.07.64-.11s.41-.09.59-.15c.18-.06.31-.12.39-.18v1.24Z"/>
        <path class="cls-1" d="m295.12,134.38h-.09c-.12-.27-.3-.56-.54-.87s-.55-.56-.94-.78c-.39-.21-.89-.32-1.49-.32-.78,0-1.49.21-2.13.63s-1.16,1.05-1.54,1.88c-.38.83-.57,1.87-.57,3.1s.19,2.22.56,3.06.88,1.47,1.52,1.91c.64.44,1.37.66,2.17.66.59,0,1.08-.1,1.47-.31.39-.21.7-.46.94-.76.24-.3.42-.58.55-.86h.14v1.74h2.55v-14.55h-2.6v5.46Zm-.22,5.43c-.18.51-.45.91-.8,1.2-.35.29-.78.43-1.28.43s-.94-.15-1.29-.44c-.35-.29-.61-.7-.79-1.22-.18-.52-.27-1.11-.27-1.76s.09-1.24.26-1.75c.18-.51.44-.91.79-1.2s.78-.43,1.29-.43.93.14,1.28.42c.35.28.62.67.8,1.18.18.5.27,1.1.27,1.79s-.09,1.28-.27,1.79Z"/>
        <path class="cls-1" d="m308.05,133.76c-.44-.45-.95-.79-1.53-1.01-.58-.22-1.2-.33-1.86-.33-1,0-1.86.24-2.6.71s-1.31,1.14-1.72,1.99c-.41.85-.61,1.83-.61,2.95s.2,2.14.61,2.98.99,1.49,1.75,1.95,1.66.69,2.71.69c.79,0,1.49-.12,2.11-.37.61-.24,1.12-.59,1.53-1.04s.7-.96.86-1.56l-2.37-.49c-.11.29-.26.54-.45.74-.2.2-.44.35-.71.45s-.58.15-.92.15c-.51,0-.95-.11-1.34-.34-.38-.23-.68-.57-.9-1.02-.19-.41-.28-.91-.3-1.48h7.15v-.8c0-.95-.12-1.77-.38-2.47-.25-.69-.6-1.27-1.04-1.72Zm-4.66,1.13c.36-.25.78-.37,1.29-.37s.93.12,1.27.37c.34.24.6.59.77,1.03.12.31.18.67.22,1.05h-4.6c.03-.38.1-.75.25-1.07.19-.42.46-.76.81-1.01Z"/>
        <path class="cls-1" d="m329.35,136.02c-.09.29-.2.68-.32,1.15-.12.48-.24.98-.36,1.52-.12.54-.24,1.06-.34,1.57,0,.01,0,.02,0,.03,0-.02,0-.04-.01-.05-.11-.51-.22-1.04-.34-1.58-.12-.54-.24-1.04-.36-1.51s-.22-.84-.32-1.14l-2.43-7.1h-4.04v14.55h2.63v-7.1c0-.33,0-.72-.01-1.19,0-.47-.02-.97-.03-1.5s-.02-1.07-.04-1.6c0-.21,0-.4-.01-.6.07.26.13.51.2.77.14.56.29,1.1.44,1.62s.28,1,.41,1.43.24.79.33,1.07l2.47,7.1h2.24l2.42-7.1c.09-.29.21-.65.33-1.08.13-.44.27-.92.41-1.44s.29-1.06.43-1.62c.07-.29.14-.57.21-.85,0,.25,0,.49-.01.75-.01.54-.02,1.07-.04,1.6-.01.53-.02,1.02-.03,1.48,0,.46-.01.84-.01,1.16v7.1h2.65v-14.55h-4.04l-2.4,7.1Z"/>
        <path class="cls-1" d="m345.49,133.24c-.42-.29-.88-.5-1.39-.63-.51-.13-1.03-.2-1.55-.2-.73,0-1.4.11-2,.33-.6.22-1.12.55-1.54.98-.42.43-.73.97-.92,1.61l2.39.46c.08-.23.21-.45.39-.65s.41-.36.69-.48.61-.18.98-.18.69.06.95.19.45.3.58.53c.13.23.2.52.2.85v.05c0,.24-.09.42-.26.54-.18.12-.45.2-.82.26s-.86.12-1.46.18c-.51.06-1,.15-1.47.28s-.89.31-1.26.56-.67.57-.88.97c-.22.4-.32.91-.32,1.52,0,.72.15,1.33.46,1.81.3.49.71.85,1.24,1.1.52.25,1.11.37,1.77.37.53,0,.99-.08,1.38-.23s.73-.36,1.01-.62c.27-.26.49-.55.65-.88h.09v1.51h2.48v-7.32c0-.7-.12-1.28-.38-1.76-.25-.48-.58-.86-1-1.15Zm-1.2,6.32c0,.39-.1.75-.29,1.08-.2.33-.47.59-.81.79-.35.2-.75.29-1.22.29-.32,0-.61-.05-.86-.16-.25-.1-.45-.26-.59-.46-.14-.2-.21-.45-.21-.75,0-.32.08-.58.23-.78.16-.2.37-.36.64-.48s.58-.2.94-.25c.15-.02.34-.05.55-.08.21-.03.43-.07.64-.11s.41-.09.59-.15c.18-.06.31-.12.39-.18v1.24Z"/>
        <path class="cls-1" d="m356.18,134.38h-.09c-.12-.27-.3-.56-.54-.87s-.55-.56-.94-.78c-.39-.21-.89-.32-1.49-.32-.78,0-1.49.21-2.13.63s-1.16,1.05-1.54,1.88c-.38.83-.57,1.87-.57,3.1s.19,2.22.56,3.06.88,1.47,1.52,1.91c.64.44,1.37.66,2.17.66.59,0,1.08-.1,1.47-.31.39-.21.7-.46.94-.76.24-.3.42-.58.55-.86h.14v1.74h2.55v-14.55h-2.6v5.46Zm-.22,5.43c-.18.51-.45.91-.8,1.2-.35.29-.78.43-1.28.43s-.94-.15-1.29-.44c-.35-.29-.61-.7-.79-1.22-.18-.52-.27-1.11-.27-1.76s.09-1.24.26-1.75c.18-.51.44-.91.79-1.2s.78-.43,1.29-.43.93.14,1.28.42c.35.28.62.67.8,1.18.18.5.27,1.1.27,1.79s-.09,1.28-.27,1.79Z"/>
        <path class="cls-1" d="m366.4,132.41c-.59,0-1.11.17-1.56.52-.46.34-.78.84-.97,1.49h-.11v-1.87h-2.51v10.92h2.6v-6.32c0-.46.1-.87.29-1.22.19-.35.46-.62.81-.82s.74-.29,1.18-.29c.21,0,.43.01.66.04s.4.06.51.1v-2.47c-.12-.03-.27-.05-.43-.06-.16-.02-.32-.02-.46-.02Z"/>
        <path class="cls-1" d="m370.38,128.18c-.4,0-.75.14-1.04.42-.29.28-.43.62-.43,1.03s.14.74.43,1.02c.29.28.63.42,1.04.42s.76-.14,1.04-.42c.29-.28.43-.62.43-1.02s-.14-.75-.43-1.03c-.29-.28-.63-.42-1.04-.42Z"/>
        <rect class="cls-1" x="369.08" y="132.56" width="2.6" height="10.92"/>
        <path class="cls-1" d="m380.99,134.38h-.09c-.12-.27-.3-.56-.54-.87s-.55-.56-.94-.78c-.39-.21-.89-.32-1.49-.32-.78,0-1.49.21-2.13.63s-1.16,1.05-1.54,1.88c-.38.83-.57,1.87-.57,3.1s.19,2.22.56,3.06.88,1.47,1.52,1.91c.64.44,1.37.66,2.17.66.59,0,1.08-.1,1.47-.31.39-.21.7-.46.94-.76.24-.3.42-.58.55-.86h.14v1.74h2.55v-14.55h-2.6v5.46Zm-.22,5.43c-.18.51-.45.91-.8,1.2-.35.29-.78.43-1.28.43s-.94-.15-1.29-.44c-.35-.29-.61-.7-.79-1.22-.18-.52-.27-1.11-.27-1.76s.09-1.24.26-1.75c.18-.51.44-.91.79-1.2s.78-.43,1.29-.43.93.14,1.28.42c.35.28.62.67.8,1.18.18.5.27,1.1.27,1.79s-.09,1.28-.27,1.79Z"/>
      </g>
      <rect class="cls-2" width="440.32" height="165.91"/>
    </g>
  </g>
</svg>