<svg width="382" height="230" viewBox="0 0 382 230" fill="none" xmlns="http://www.w3.org/2000/svg">
<g clip-path="url(#clip0_413_3387)">
<rect width="382" height="230" fill="#174193"/>
<rect width="382" height="230" fill="#174193"/>
<path fill-rule="evenodd" clip-rule="evenodd" d="M228 224L228 187.901C251.454 186.357 269.999 166.844 269.999 143C269.999 119.156 251.454 99.6427 228 98.0985L228 56.0002L270 56.0002C270 56.0001 270 56 270 56C270 31.1472 290.148 11 315 11C339.853 11 360 31.1472 360 56C360 56 360 56.0001 360 56.0001L402 56.0001L402 224C402 227.314 399.314 230 396 230L234 230C230.686 230 228 227.314 228 224Z" fill="#D9D9D9" fill-opacity="0.15"/>
</g>
<defs>
<clipPath id="clip0_413_3387">
<rect width="382" height="230" fill="white"/>
</clipPath>
</defs>
</svg>
