<svg width="234" height="52" fill="none" xmlns="http://www.w3.org/2000/svg"><g clip-path="url(#clip0)" fill="white"><path d="M0 24C5 13 12 5 24 2l-3 4C13 9 7 16 7 24s4 14 12 17c13 5 32 0 41-12 6-9 5-17-3-24V4c9 4 13 14 9 24-6 14-18 21-33 23-14 2-25-3-33-14V24z"/><path d="M21 6l3-4 6-1 2 1-8 6c-5 5-6 12-2 17 6 6 20 5 28-2 8-5 8-11 2-20l5 1v1c5 12 3 21-7 26-7 3-15 5-22 5-13 0-19-13-12-24l5-6z"/><path d="M31 2l-2-1 5-1h13c2 0 4 2 5 3l-1 1c3 11-4 20-15 19-4-1-9-4-10-7-1-2 3-7 5-10l4-3-4-1zM134 37c8 2 11 0 11-7V14l1-6h3v19c0 14-2 15-15 14h-1c-5-1-12 0-14-2-3-4-2-10-3-16l1-15h3v22c0 7 3 10 11 7V8h3v29zM174 42l-1-14h-12l-2 14h-1l-2-3V17c0-7 4-9 10-9 5 0 11 0 11 8l1 25-4 1zm0-18c-1-5-1-9-3-11s-8-2-9 0c-2 2-2 7-2 10l14 1zM188 29v12l-2 1-1-5V13c-1-4 1-5 5-5h4c4 2 9 3 11 6 3 5 1 10-5 13l8 15c-11 0-8-17-20-13zm1-4l12-4v-7l-12-3v14zM233 39c-12 7-20 2-20-8V19c0-9 2-11 12-11l6 1v2l-5 1c-9 0-9 0-9 10l14 1v2l-13 2c-5 14 7 10 15 12zM97 26l-14 1-1 15h-3V30 20c0-11 8-16 19-10-5 4-19-3-14 12l13 1v3zM107 42c-4-4-5-28 0-35v35z"/></g><defs><clipPath id="clip0"><path fill="white" d="M0 0h233v51H0z"/></clipPath></defs></svg>