<?xml version="1.0" encoding="UTF-8"?>
<svg id="Capa_2" data-name="Capa 2" xmlns="http://www.w3.org/2000/svg" viewBox="0 0 402.13 157.94">
  <defs>
    <style>
      .cls-1, .cls-2 {
        fill: #fff;
      }

      .cls-2 {
        fill-rule: evenodd;
      }

      .cls-3 {
        fill: none;
      }
    </style>
  </defs>
  <g id="Capa_7" data-name="Capa 7">
    <g>
      <g>
        <g>
          <g>
            <polygon class="cls-1" points="164.37 118.11 164.37 106.63 202.33 53.51 209.14 53.51 209.14 74.21 205.12 74.21 182.73 105.8 182.73 102.75 240.27 102.75 240.27 118.11 164.37 118.11"/>
            <polygon class="cls-1" points="201.91 135.53 201.91 117.2 202.33 110.48 202.33 53.51 219.64 53.51 219.64 135.53 201.91 135.53"/>
            <path class="cls-1" d="m265.09,136.57c-6.56,0-12.3-1.24-17.23-3.72-4.94-2.48-8.77-5.98-11.5-10.51-2.74-4.53-4.11-9.84-4.11-15.94v-52.9h18.46v51.3c0,2.86.61,5.41,1.83,7.65s2.9,3.99,5.05,5.26c2.14,1.27,4.65,1.9,7.5,1.9s5.38-.63,7.56-1.9c2.17-1.27,3.87-3.02,5.07-5.26,1.21-2.24,1.81-4.79,1.81-7.65v-51.3h18.46v52.9c0,6.09-1.38,11.4-4.13,15.94-2.75,4.53-6.6,8.04-11.53,10.51-4.93,2.48-10.67,3.72-17.23,3.72Z"/>
          </g>
          <g>
            <path class="cls-2" d="m89.06,54.67c-.52.53-.6,79.83-.08,80.65.28.44.03.52,7.22.52s6.94-.08,7.21-.52c.69-1.09.43-80.06-.27-80.59-.83-.63-13.46-.69-14.09-.07Z"/>
            <path class="cls-2" d="m174.04,79.46c-.22-.22-.39-.84-.39-1.38,0-1.4-1.26-5.3-2.89-8.92-1.33-2.96-6.59-8.78-9.42-10.42-2.68-1.55-5.89-3.08-6.47-3.08-.32,0-.67-.15-.78-.31-.1-.17-.7-.4-1.32-.51-.62-.11-1.99-.36-3.03-.56-5.5-1.05-14.63-1.68-20.25-1.43s-15.05,1.4-15.05,1.4l.38,40.91c0,38.48,0,39.82.69,40.21,1.38.8,29.96,1.78,34.39.63.77-.2,2.02-.52,2.78-.72.76-.19,1.66-.49,1.99-.67.33-.17.82-.31,1.1-.31,1.3,0,7.03-3.6,9.75-6.13,3.75-3.48,7.1-9.98,8.2-15.87.99-5.37,1.26-31.9.33-32.83Zm-15.96,29.39c-1.28,7.82-4.37,11.86-10.74,14.03-3.58,1.22-13.62,1.58-16.09.58l-1.4-.57.1-28.73.1-28.73,3.21-.24c3.89-.29,11.75-.04,12.86.41.44.18,1.62.56,2.61.85,3.13.91,8.44,6.93,8.44,9.56,0,.41.16.91.36,1.12.99,1.02,1.42,26.32.54,31.7Z"/>
            <path class="cls-2" d="m69.55,84.91c-2.95-5.54-8.68-9.42-16.57-11.22-1.96-.45-9.47-.43-11.69.03-7.86,1.62-13.77,5.83-16.96,12.07-.44.86-.93,1.83-1.1,2.16-.17.33-.3.84-.3,1.13s-.14.8-.32,1.13c-1.43,2.73-1.88,23.75-.59,27.97.35,1.14.71,2.43.81,2.86.1.43.32.87.48.97.17.1.31.42.31.7,0,1.92,6.28,8.92,9.29,10.37.79.38,1.44.81,1.45.95,0,.14.29.26.63.26s.77.13.95.29c.18.16,1.03.48,1.89.72.86.23,2.03.59,2.6.8,2.67.95,16.81.71,24.42-.42,5.13-.76,5.33-.82,5.79-1.72.46-.9.62-7.8.22-9.29l-.21-.8-5.24.2c-13.95.52-19.47.56-20.83.16-5.66-1.66-9-5.96-9-11.58v-2.77s18.71-.17,18.71-.17l18.71-.17.11-6.93c.13-8.2-.52-11.98-2.81-16.28-.2-.38-.53-1.01-.74-1.39Zm-10.76,14.9h-23.21l.03-2.6c.1-8.53,8.93-14.23,16.61-10.74,4.05,1.85,6.9,6.6,6.68,11.18l-.1,2.16Z"/>
          </g>
        </g>
        <g>
          <path class="cls-2" d="m317.4,49.14l4.12-.05,4.11-.05.13-.97c.07-.54.23-1.5.35-2.14s.27-1.45.33-1.8c.06-.35.19-.68.28-.74.1-.06.17-.24.17-.41,0-.37,1.37-3.25,1.6-3.34.09-.04.16-.16.16-.27,0-.4,1.87-2.8,3.12-4.01,1.06-1.02,2.49-2.18,2.7-2.18.12,0,.22-.07.22-.15,0-.16.04-.18,2.16-1.26.79-.4,1.53-.73,1.65-.73s.47-.13.78-.28c2.68-1.33,9.48-1.27,12.2.11.19.09.51.17.73.17s.39.09.39.2.15.2.34.2.85.31,1.47.68c.62.38,1.21.68,1.32.68s.18.09.18.2.12.19.28.19.31.07.34.15c.03.08.5.49,1.04.92,1.09.86,2.02,1.81,2.79,2.83.28.37.57.72.63.78,1.42,1.21,3.38,6.45,3.67,9.84l.11,1.36,4.34.05,4.33.05v-.94c0-.52-.08-1.02-.18-1.12-.1-.1-.22-.93-.28-1.84-.17-2.69-.79-5.38-1.87-8.09-.41-1.04-1.94-3.99-2.17-4.19-.06-.05-.41-.54-.77-1.07-.61-.9-3.86-4.28-4.77-4.97-1.55-1.16-2.42-1.75-2.59-1.75-.11,0-.23-.07-.27-.15-.08-.18-3.52-1.87-4.35-2.14-3.47-1.12-4.87-1.39-8.09-1.6-1.34-.09-2.61-.21-2.82-.27-.22-.06-.57-.04-.78.06-.21.09-1.28.18-2.38.19-1.09,0-2.19.09-2.43.19-.25.1-1.02.28-1.71.41-1.67.31-3.86,1.04-5.61,1.86-.78.37-1.51.67-1.61.67s-.18.09-.18.2-.1.2-.22.2c-.93,0-6.77,5.03-7.73,6.67-.18.3-.39.54-.47.54s-.15.13-.15.29-.09.29-.2.29-.19.09-.19.2-.29.66-.64,1.22c-.59.94-.93,1.6-1.33,2.57-.79,1.91-1.15,2.96-1.15,3.33,0,.24-.08.49-.17.55-.1.06-.22.44-.29.84-.06.4-.2,1.26-.31,1.9-.36,2.1-.52,3.88-.43,4.92l.09,1.03Z"/>
          <path class="cls-2" d="m380.87,85.52c0-20.97-.06-28.86-.22-29.53-.31-1.25-1.07-2.26-2.07-2.75l-.83-.4h-32.48c-31.53.02-32.5.03-33.23.39-.74.37-1.38,1.03-1.84,1.92-.19.37-.24,6.82-.24,30.4v29.93s.65.88.65.88c.37.51,1.01,1.06,1.53,1.32l.88.44h32.29c35.96,0,32.99.11,34.35-1.32,1.28-1.36,1.22.31,1.22-31.26Zm-26.34-3.1c-.91,1.73-2.85,3.92-3.47,3.92-.11,0-.19.07-.19.17s-.35.32-.78.52c-1.26.57-1.27.65-.49,4.09.17.75.4,1.85.5,2.43.11.59.28,1.47.38,1.95.1.48.26,1.32.36,1.85.49,2.58,1.03,5.13,1.21,5.7.33,1.04.44,1.02-6.96,1.02h-6.92l.1-1.02c.06-.56.19-1.51.29-2.09.42-2.41.62-3.48.91-4.97.29-1.46.43-2.23.88-4.72.1-.56.25-1.48.34-2.05.08-.56.21-1.12.29-1.24.08-.14-.11-.32-.49-.47-2.08-.83-4.47-3.06-5.42-5.05-.23-.48-.5-1.03-.59-1.21-.09-.19-.17-.55-.17-.82s-.09-.53-.2-.6c-.27-.17-.25-4.09.03-4.95.74-2.31,1.51-3.64,2.96-5.1.73-.74,1.45-1.34,1.59-1.34s.29-.07.32-.15c.07-.16,1.43-.86,2.4-1.24,1.5-.59,5.35-.61,6.7-.03,2.93,1.26,5.32,3.19,6.08,4.89.15.34.34.62.42.62s.15.16.15.35.07.43.16.54c1.17,1.34.94,6.47-.39,9.02Z"/>
        </g>
      </g>
      <rect class="cls-3" width="402.13" height="157.94"/>
    </g>
  </g>
</svg>