<svg width="252" height="56" viewBox="0 0 252 56" fill="none" xmlns="http://www.w3.org/2000/svg">
<path d="M36.6184 10.1833V18.6667L33.3231 15.3946C33.0578 15.1313 32.7765 14.8918 32.5193 14.6444V10.5264C32.5193 6.4643 30.1081 4.03819 26.0251 4.03819H18.8396C14.6922 4.03819 12.281 6.4244 12.281 10.5903V14.5247C11.9756 14.812 11.6701 15.1153 11.3647 15.4345L8.21402 18.5869V10.2631C8.17383 6.79151 9.01777 4.18184 10.6735 2.52188C12.3292 0.861907 14.9735 0 18.51 0H26.3466C33.3633 0 36.6184 3.23215 36.6184 10.1833Z" fill="#9CD7F5"/>
<path d="M40.9763 26.4002L29.6053 15.0311C27.108 12.6121 24.6673 11.3624 22.3317 11.3624C19.996 11.3624 17.6281 12.5638 15.2359 14.9343L15.0904 15.0714L15.0096 15.1359L7.64708 22.546L3.8244 26.384C-1.14589 31.4235 -1.14589 35.9147 3.8244 40.9542L15.0338 52.2426C17.4584 54.7341 19.9475 56 22.3074 56C24.6673 56 27.1565 54.7341 29.6942 52.2265L41.0087 40.938C43.4817 38.4707 44.7344 36.0195 44.7344 33.6328C44.7344 31.2461 43.4332 28.8514 40.9763 26.4002ZM37.8487 38.2853L27.0029 49.0818C26.4153 49.7463 25.6996 50.2858 24.8984 50.6681C24.0972 51.0505 23.227 51.2679 22.3398 51.3073C21.4528 51.2665 20.583 51.0485 19.782 50.6663C18.981 50.284 18.2651 49.7452 17.6766 49.0818L6.9278 38.2853C6.26925 37.7054 5.73343 37.0002 5.35178 36.211C4.97012 35.4217 4.75034 34.5644 4.70531 33.6893C4.74776 32.8113 4.96633 31.9507 5.34808 31.1585C5.72983 30.3663 6.267 29.6585 6.9278 29.0771L17.6766 18.2564C18.2651 17.593 18.981 17.0542 19.782 16.6719C20.583 16.2897 21.4528 16.0717 22.3398 16.0309C23.2302 16.0721 24.1034 16.2902 24.9083 16.6723C25.7132 17.0544 26.4335 17.593 27.0272 18.2564L37.8244 29.0529C38.4763 29.6352 39.0045 30.3419 39.3779 31.1313C39.7513 31.9207 39.9623 32.7768 39.9984 33.6489C39.9754 34.5271 39.7728 35.3912 39.4032 36.1885C39.0335 36.9857 38.5045 37.6992 37.8487 38.2853Z" fill="#9CD7F5"/>
<path d="M27.3829 34.6785L33.3555 31.2452L30.8619 27.2771L27.9574 29.3884L25.6771 31.0445C25.8713 30.4596 25.9055 29.8299 25.7759 29.2232L24.3426 22.3083L19.9281 23.4634L21.0266 26.9489L22.0805 30.3407C21.5406 29.7784 20.8292 29.4229 20.0672 29.3345L13.2067 28.484L13.0243 33.1268L16.5681 33.1726L19.9226 33.232C19.2758 33.5857 18.7666 34.1534 18.4769 34.8436L15.6285 41.2567L19.8849 43.0071L20.994 39.5701L22.1057 36.2268C22.2268 37.0024 22.6045 37.7145 23.1754 38.2432L28.2809 43.042L31.1292 39.4502L28.2555 37.276L25.4641 35.1362C26.1365 35.1898 26.8065 35.03 27.3829 34.6785Z" fill="#EFF7FB"/>
<path d="M60.7375 31.5523C60.6975 29.5077 61.0366 27.4734 61.7375 25.5523C62.3202 23.9601 63.222 22.5036 64.3875 21.2723C65.4559 20.1563 66.7519 19.2832 68.1875 18.7123C69.6082 18.1381 71.1252 17.8395 72.6575 17.8323C76.1575 17.8323 78.8475 18.9323 80.7175 21.1123C82.5875 23.2923 83.5175 26.6323 83.5175 31.1123V31.8823C83.5339 32.1754 83.5339 32.4692 83.5175 32.7623H65.5975C65.623 35.0298 66.4563 37.2139 67.9475 38.9223C69.3209 40.3156 71.4575 41.0123 74.3575 41.0123C75.7467 41.0405 77.134 40.8961 78.4875 40.5823C79.353 40.3827 80.1995 40.1083 81.0175 39.7623L81.6675 43.6623C80.7095 44.1103 79.7028 44.4459 78.6675 44.6623C77.0825 45.0166 75.4615 45.1844 73.8375 45.1623C71.8311 45.2156 69.8336 44.8759 67.9575 44.1623C66.4013 43.5391 65.0064 42.5716 63.8775 41.3323C62.7898 40.0784 61.9849 38.605 61.5175 37.0123C60.9786 35.2432 60.7155 33.4016 60.7375 31.5523ZM78.6575 29.0123C78.7711 27.1534 78.214 25.3154 77.0875 23.8323C76.5507 23.1701 75.8652 22.6439 75.0868 22.2964C74.3084 21.9488 73.459 21.7899 72.6075 21.8323C71.6286 21.8141 70.6592 22.0265 69.7775 22.4523C68.9747 22.827 68.2541 23.3572 67.6575 24.0123C67.0823 24.693 66.6351 25.4722 66.3375 26.3123C66.0005 27.1808 65.7721 28.0877 65.6575 29.0123H78.6575Z" fill="#EFF7FB"/>
<path d="M110.551 43.4874C109.481 43.7574 108.071 44.0374 106.321 44.3374C104.311 44.6572 102.277 44.8077 100.241 44.7874C98.5133 44.8366 96.7931 44.5409 95.181 43.9174C93.8864 43.3876 92.75 42.5335 91.881 41.4374C91.0184 40.3201 90.4047 39.0313 90.081 37.6574C89.6975 36.0765 89.5127 34.454 89.531 32.8274V18.2074H94.181V31.8274C94.181 34.994 94.681 37.264 95.681 38.6374C96.681 40.0107 98.3677 40.7107 100.741 40.7374C101.241 40.7374 101.741 40.7374 102.291 40.6874C102.841 40.6374 103.291 40.6074 103.791 40.5574L105.071 40.4074C105.35 40.3835 105.625 40.3265 105.891 40.2374V18.2374H110.551V43.4874Z" fill="#EFF7FB"/>
<path d="M116.551 19.5229C117.611 19.2529 119.031 18.9629 120.801 18.6629C122.822 18.3439 124.865 18.1933 126.911 18.2129C128.669 18.161 130.42 18.4601 132.061 19.0929C133.334 19.6172 134.45 20.4611 135.301 21.5429C136.163 22.6454 136.768 23.9266 137.071 25.2929C137.416 26.8896 137.584 28.5194 137.571 30.1529V44.7929H132.911V31.1829C132.933 29.8059 132.825 28.4299 132.591 27.0729C132.435 26.0794 132.067 25.1312 131.511 24.2929C131.014 23.5926 130.317 23.0591 129.511 22.7629C128.513 22.426 127.464 22.267 126.411 22.2929C125.911 22.2929 125.411 22.2929 124.861 22.2929C124.311 22.2929 123.811 22.3629 123.331 22.4129C122.851 22.4629 122.411 22.5229 122.031 22.5929L121.201 22.7429V44.7429H116.551V19.5229Z" fill="#EFF7FB"/>
<path d="M152.566 43.0688L146.036 36.4887C142.726 33.1187 142.776 29.8588 146.036 26.5388L152.566 19.9687C155.876 16.5987 159.246 16.6487 162.566 19.9687L169.146 26.5388C172.406 29.8088 172.456 33.1787 169.146 36.4887L162.566 43.0688C159.246 46.3388 155.876 46.3888 152.566 43.0688ZM159.566 23.2287C159.333 22.9183 159.031 22.6663 158.684 22.4927C158.336 22.3191 157.954 22.2287 157.566 22.2287C157.177 22.2287 156.795 22.3191 156.448 22.4927C156.1 22.6663 155.798 22.9183 155.566 23.2287L149.316 29.5388C147.976 30.8788 147.976 32.1588 149.316 33.5388L155.566 39.8487C155.798 40.1592 156.1 40.4112 156.448 40.5848C156.795 40.7584 157.177 40.8487 157.566 40.8487C157.954 40.8487 158.336 40.7584 158.684 40.5848C159.031 40.4112 159.333 40.1592 159.566 39.8487L165.886 33.5388C166.192 33.3035 166.441 33.0007 166.612 32.6539C166.783 32.3071 166.872 31.9255 166.872 31.5388C166.872 31.152 166.783 30.7705 166.612 30.4236C166.441 30.0768 166.192 29.774 165.886 29.5388L159.566 23.2287Z" fill="#EFF7FB"/>
<path d="M210.769 18.6629C208.749 18.3439 206.705 18.1933 204.659 18.2129C202.898 18.161 201.144 18.4601 199.499 19.0929C198.259 19.5978 197.166 20.4058 196.319 21.4429C195.467 20.4069 194.371 19.5993 193.129 19.0929C191.485 18.4601 189.731 18.161 187.969 18.2129C185.924 18.1933 183.88 18.3439 181.859 18.6629C180.089 18.9629 178.679 19.2529 177.609 19.5229V44.7929H182.259V22.7929L183.089 22.6429C183.469 22.5729 183.909 22.5129 184.389 22.4629C184.869 22.4129 185.389 22.3729 185.919 22.3429C186.449 22.3129 186.969 22.3429 187.469 22.3429C188.522 22.317 189.571 22.476 190.569 22.8129C191.381 23.093 192.091 23.6082 192.609 24.2929C193.137 25.1379 193.477 26.0856 193.609 27.0729C193.848 28.4295 193.958 29.8056 193.939 31.1829V44.7929H198.609V31.1829C198.59 29.8056 198.701 28.4295 198.939 27.0729C199.104 26.077 199.483 25.1287 200.049 24.2929C200.55 23.596 201.246 23.0635 202.049 22.7629C203.047 22.426 204.096 22.267 205.149 22.2929C205.649 22.2929 206.149 22.2929 206.699 22.2929C207.249 22.2929 207.749 22.3629 208.229 22.4129C208.709 22.4629 209.149 22.5229 209.529 22.5929L210.359 22.7429V44.7429H215.009V19.5229C213.949 19.2929 212.539 18.9629 210.769 18.6629Z" fill="#EFF7FB"/>
<path d="M225.659 44.515H221.009V23.145C221.009 21.9108 221.499 20.727 222.371 19.8534C223.242 18.9798 224.425 18.4876 225.659 18.485V44.515Z" fill="#EFF7FB"/>
<path d="M241.893 17.8867C243.5 17.8483 245.102 18.0955 246.623 18.6167C247.791 19.0173 248.841 19.7039 249.675 20.6139C250.51 21.5239 251.104 22.6284 251.403 23.8267C251.745 25.1322 251.913 26.4772 251.903 27.8267V44.1167L250.223 44.3967C249.513 44.5067 248.703 44.6167 247.803 44.7167C246.903 44.8167 245.923 44.9067 244.873 44.9967C243.823 45.0867 242.773 45.1167 241.743 45.1167C240.387 45.1259 239.034 44.9748 237.713 44.6667C236.564 44.4055 235.477 43.9232 234.513 43.2467C233.602 42.5828 232.878 41.6939 232.413 40.6667C231.881 39.4511 231.625 38.133 231.663 36.8067C231.628 35.5189 231.927 34.2439 232.533 33.1067C233.105 32.0878 233.923 31.2283 234.913 30.6067C235.989 29.94 237.174 29.4662 238.413 29.2067C239.795 28.902 241.207 28.7511 242.623 28.7567C243.107 28.7558 243.591 28.7792 244.073 28.8267C244.573 28.8767 245.073 28.9467 245.503 29.0267L246.673 29.2567C246.909 29.2942 247.142 29.3442 247.373 29.4067V28.0667C247.373 27.3037 247.292 26.5429 247.133 25.7967C246.977 25.0724 246.667 24.3902 246.223 23.7967C245.763 23.183 245.154 22.6975 244.453 22.3867C243.525 22.0054 242.526 21.8281 241.523 21.8667C240.183 21.8547 238.844 21.9618 237.523 22.1867C236.644 22.3349 235.781 22.5625 234.943 22.8667L234.333 19.0667C235.301 18.697 236.307 18.4354 237.333 18.2867C238.838 18.0196 240.364 17.8858 241.893 17.8867ZM242.293 41.2167C243.393 41.2167 244.373 41.2167 245.223 41.1367C245.936 41.1051 246.645 41.0148 247.343 40.8667V33.0667C246.826 32.8464 246.281 32.7016 245.723 32.6367C244.818 32.515 243.906 32.4582 242.993 32.4667C242.247 32.4699 241.502 32.52 240.763 32.6167C240.018 32.7078 239.292 32.9171 238.613 33.2367C237.979 33.5469 237.422 33.9944 236.983 34.5467C236.526 35.1752 236.297 35.9406 236.333 36.7167C236.262 37.3881 236.375 38.0661 236.658 38.6788C236.941 39.2914 237.385 39.816 237.943 40.1967C239.272 40.9284 240.777 41.2813 242.293 41.2167Z" fill="#EFF7FB"/>
</svg>
