<?xml version="1.0" encoding="UTF-8"?>
<svg id="Capa_2" data-name="Capa 2" xmlns="http://www.w3.org/2000/svg" viewBox="0 0 239.56 212.62">
  <defs>
    <style>
      .cls-1 {
        fill: #fff;
      }

      .cls-2 {
        fill: none;
      }
    </style>
  </defs>
  <g id="isabel">
    <g>
      <g>
        <path class="cls-1" d="m115.75,39.27c.64.17,7.21.32,7.24-.21.05-.89,1.65-14.51,1.52-17.62-.94-.08-8.57-1-8.66.83-.12,2.32-.29,13.71-.1,16.99Z"/>
        <path class="cls-1" d="m166.96,116.23c2.07-1.41,4.73.07,4.73,2.64,0,1.92.6,2.02,2.01.32,2.48-2.99,3-5.51,1.75-8.47-.26-.61-.47-1.21-.47-1.33-.02-1.06-2.14-3.68-3.7-4.57-1.54-.88-3.7-1.05-5.94-.46-2.16.56-5.49,4.14-5.49,5.9,0,.11-.16.56-.35.98-.89,1.98-.67,6.34.42,8.13.47.78,2.48,2.88,2.76,2.88.09,0,.58.21,1.09.46.94.47,2.9.66,3.81.38.82-.26.41-1.27-.75-1.87-1.65-.85-1.58-3.82.12-4.98Z"/>
        <path class="cls-1" d="m197.08,101.28c-.33-.17-.78-.48-.99-.7-.37-.36-.99-.7-3.21-1.75-.46-.22-1.27-.47-1.8-.55-.53-.08-1.11-.28-1.28-.44-.18-.16-.57-.34-.87-.41-.82-.18-1.62-.49-1.94-.75-.15-.12-.77-.33-1.38-.45-.61-.12-1.3-.38-1.55-.57-.24-.19-.7-.35-1.01-.35-.61,0-1.8-.33-2.92-.81-.38-.16-.94-.29-1.24-.29s-.88-.17-1.27-.37c-.41-.21-1.39-.45-2.29-.55-.86-.1-1.95-.35-2.43-.56-.6-.26-1.49-.42-2.93-.52-1.21-.08-2.26-.25-2.53-.41-.35-.2-1.54-.29-4.89-.37-2.44-.06-4.59-.16-4.8-.23-.21-.07-.59,0-.88.16-.58.32-.6.41-.22.9.15.2.27.61.27.92,0,.31.13.97.28,1.47.15.5.28,1.41.28,2.03,0,.62.12,1.33.27,1.59.2.34.27,1.19.27,3.34,0,4.42.49,4.98,2.45,2.92,1.64-1.72,2.03-1.98,3.19-2.18.6-.1,1.84-.33,2.75-.5,2.39-.45,2.94-.39,4.63.49.8.42,1.71.89,2.01,1.05.3.16.68.39.83.52,1.51,1.3,2.01,1.86,2.49,2.78.91,1.78,1.38,2.01,2.7,1.33.75-.39,4.06.2,4.78.85.15.14.65.41,1.11.61.46.2,1.38.9,2.06,1.58,1.47,1.46,1.32,1.45,3.51.33.96-.49,2.04-.95,2.4-1.02.36-.07.85-.28,1.09-.47.24-.19.79-.44,1.22-.56,2.49-.67,2.98-1.4,2.98-4.4,0-2.57-.18-3.16-1.15-3.66Z"/>
        <path class="cls-1" d="m199.43,63.28c-.09.24,1.91,1.72,2.21,2.02.3.3,2.28,1.77,2.43,1.94.65.71-3.23,4.23-3.4,4.31-.54.23-2.15-1.82-2.96-2.71-.76-.84-3.23-2.91-6.01-5.04-1.29-.99-.79-1.15.54-2.82.47-.58,8.19-12.85,8.75-13.5s6.48,4.72,6.7,4.91.49.46.41.58c-.04.05-.28.24-.45.4l-8.22,9.92Z"/>
        <path class="cls-1" d="m183.01,125.93c1.59,0,4.92-4.54,5.18-7.04.22-2.13-.17-3.2-1.95-5.32-1.76-2.1-5.47-3.78-6.94-3.15-.61.26-.81,1.11-.6,2.46.2,1.27.12,1.71-.65,3.94-.71,2.05-2.94,5.16-4.03,5.61-1.39.57-1.06,1.77.93,3.35,1.12.89,2.18.52,1.61-.58-.93-1.79.68-4.45,2.7-4.45s3.4,1.59,3.23,3.81l-.1,1.36h.62Z"/>
        <path class="cls-1" d="m144.03,76.27c.47.04.78-.05,1.01-.28.19-.19.57-.45.85-.59.59-.3.65-.66.15-.92-.54-.29-.69-.24-1.1.33-.21.29-.65.6-.98.7-.84.24-.8.7.07.77Z"/>
        <path class="cls-1" d="m161.52,47.17c6.48,2.36,17.08,10.31,17.81-1.09-.65-2.72,2.41-2.17,3.42-4.55,2.05-4.84-3.01-8.66-11.51-10.91-.5-.13-3.72-.6-3.78-.46-.37.78-4.77,13.36-5.94,17.01Zm11.36-9.67c.58-1.03.84-1.06,1.68-.22,2.7,2.61-3.72,3.79-1.68.22Zm-3.15,6.77c.71-1.79.79-1.86,1.7-1.62,3.52,1.81-3.87,7.9-1.7,1.62Z"/>
        <path class="cls-1" d="m149.39,86.82c.3,0,1.35-.87,1.22-1-.3-.3-1.22-.31-1.34-.01-.19.5-.14,1.02.11,1.01Z"/>
        <path class="cls-1" d="m137.26,40.51c2.43,0,2.88-.08,4.23-.64.31-.13.34-.09.22.3-.07.25-.15.56-.17.7-.06.46.92.99,2.67,1.42.95.24,2.11.55,2.59.7,1.05.33,1.25.21,1.72-1.08.55-1.51.8-1.57,3.18-.79,1.52.5,1.63.65,1.4,1.91-.2,1.08-.05,1.38.77,1.61.36.1,2.36.88,3.92,1.53,1.5.62,2.06-.23,2.46-3.77.11-.97,1.23-15.13.49-15.66-.27-.19-9.66-2.51-10.24-2.54-.69-.04-1.52,1.48-1.61,2.15-.07.55-.28,1.29-.46,1.65-.18.36-.43.85-.55,1.11-.12.25-3.83,6.6-4,6.98-.37.86-.59.47-.61-1.07,0-.56.09-1.2-.67-2.25-.47-.65-2.4-1.96-5.94-3.25-1.94-.71-3.1-1.96-2.34-2.81.65-.72,2.29-.96,2.5.12.15.82-.47,1.42-.34,1.45,2.2.59,6.65,2.05,6.89,2,.9-.21,1.81-3.12,1.15-4.76-1.06-2.63-6.37-3.89-7.98-4.12-1.27-.18-4.84-.15-6.51.43-1.55.54-2.79,1.58-3.37,2.82-1.57,3.32-.47,5.26,4.33,7.6.91.45,2.11,1.2,2.51,1.31,1.69.46,2.86,1.86,2.35,2.81-1.01,1.9-3.12,1.13-3.36-1.23-.15-1.45-.3-1.59-1.64-1.59-.61,0-2.05-.1-3.19-.22-2.67-.28-2.75-.23-2.6,1.58.33,3.89,4.16,5.66,12.2,5.64Zm14.28-4.39c.19-.37.71-1.4,1.15-2.28.87-1.74,1.07-2.4,1.38-1.71.21.46-.11,5.38-.37,5.8-.21.34-1,.23-1.77-.26-.84-.53-.86-.62-.39-1.54Z"/>
        <path class="cls-1" d="m182.82,47.05c-1.27,2.69-3.56,5.31-4.27,7.96.37.28,2.46,1.59,3.48,2.18,1.1.64,4.11,2.82,5.61,3.76.48.3,3.11-2.73,2.9-3.12-.35-.64-3.51-2.28-3.67-2.7-.37-.95.88-3.17,1.2-2.99,1.95,1.07,3.33,2.03,4.1,2.36.26.11,2.28-2.73,1.85-3-1.19-.75-3.86-2.14-4.06-2.68-.15-.38,1.28-2.59,1.57-2.57.87.06,3.11,1.77,4.29,2.63.75.54,3.7-2.98,3.28-3.4-.9-.89-11.05-7.43-12.98-6.17-.42,2.72-1.7,5.5-3.29,7.74Z"/>
        <path class="cls-1" d="m172.96,172.93l-1.79,1.88c-.98,1.04-2.04,2.01-2.35,2.17-.31.16-.92.65-1.35,1.09-.44.44-1.02.92-1.3,1.06-.28.14-1.03.73-1.67,1.3-.64.57-1.49,1.24-1.89,1.5-.4.25-.72.54-.72.65s-.37.35-.82.54c-.58.25-.83.47-.88.78-.05.37-.18.44-.94.48-.48.03-.88.14-.88.23,0,.93,4.82-.64,5.88-1.92.12-.15.45-.33.72-.4.58-.14,1.84-.89,2.68-1.59.67-.55,2.65-1.64,2.99-1.64.13,0,.33-.12.45-.27.12-.15.53-.36.9-.48.37-.12.84-.36,1.05-.54.2-.18.64-.41.98-.52.33-.11.82-.37,1.09-.58.26-.21.58-.38.71-.38s.47-.2.76-.44c.29-.24.79-.57,1.12-.74.33-.17.6-.43.6-.57s.18-.43.4-.64c.22-.21.37-.38.32-.39-.54-.09-3.37-.38-4.55-.47l-1.52-.12Z"/>
        <path class="cls-1" d="m146.29,184.02c-.41.07-.98.3-1.25.52-.71.55-2.65.84-4.94.71-4.82-.26-12.27-.32-13.26-.11-5.94,1.26-8.64,2.88-6.75,4.05,1.13.7,17.06.38,18.37-.36.53-.3,2.85-.51,7.19-.66,2.73-.09,3.13-.15,3.87-.54.46-.24,1.22-.49,1.69-.56,2.03-.3,3.42-1.74,2.67-2.77-.29-.39-5.78-.61-7.6-.3Z"/>
        <path class="cls-1" d="m201.17,160.32c-.31-.37-1.33-.33-1.86.08-.24.19-.69.48-.99.65-1.03.57-2.14,1.49-2.51,2.08l-.36.58.97,1.15c.84.99,1.68,1.67,2.09,1.67s1.35-1.34,1.47-2.06c.07-.44.28-.97.47-1.17.5-.55,1-2.61.72-2.96Z"/>
        <path class="cls-1" d="m207.25,157.33c-.19-.43-.35-.94-.35-1.12s-.21-.74-.46-1.24c-.25-.5-.56-1.2-.67-1.55s-.41-1.02-.65-1.47c-.24-.46-.44-.94-.44-1.08s-.2-.64-.45-1.11c-1.43-2.75-3.48-7.21-4.09-8.88-.61-1.67-.95-2.32-1.71-3.23-.08-.1-.47-.43-.86-.74-.39-.3-1.04-.85-1.46-1.21-.42-.36-1.4-1.18-2.19-1.82-.79-.64-1.63-1.46-1.87-1.83-.24-.37-.61-.82-.82-.99-.21-.18-.39-.44-.39-.58,0-.24-1.55-2.21-2.72-3.45-.68-.72-.94-.68-2.11.26-2.66,2.15-5.38,3.09-7.33,2.53-.34-.1-1.38-.31-2.3-.47-1.93-.33-2.88-.82-3.81-1.95q-2.05-2.5-4.5-1.63c-1.32.46-3.04.47-3.95.02-.38-.19-.95-.39-1.27-.45-3.3-.63-7.36-7.27-6.59-10.8.08-.37.13-.87.1-1.11-.03-.24.08-.82.23-1.29.15-.47.37-1.44.48-2.15l.2-1.29-.65-.6c-.38-.35-.85-.6-1.13-.6-.48,0-4.82-1.4-5.16-1.66-.28-.22-3.56-1.47-4.17-1.6-1.56-.31-2.08-2.5-2.62-11.13-.02-.25.04-1.68.13-3.17.17-2.9-.21-4.88-1.17-6.09-.19-.24-.44-.79-.56-1.24-.12-.44-.34-.99-.48-1.21-.14-.22-.38-.81-.53-1.31-.15-.5-.56-1.45-.91-2.11-.35-.66-.81-1.56-1.02-1.99-.21-.44-.86-1.42-1.44-2.18-.58-.76-1.24-1.65-1.46-1.98-.22-.32-.8-1.04-1.31-1.6s-1.27-1.49-1.7-2.09c-.44-.6-.94-1.22-1.11-1.38-3.6-3.37-4.67-4.24-6.85-5.53-1.58-.94-2.7-.06-5.48,4.29-.32.5-.58,1.01-.58,1.13s-.17.44-.39.71c-.21.27-.5.91-.63,1.42-.13.51-.37,1.12-.53,1.37-.16.24-.37.84-.48,1.33-.11.49-.35,1.26-.53,1.72-.19.46-.4,1.29-.47,1.84-.13,1.04-.82,2.83-1.45,3.74-.19.28-.46.91-.6,1.38-.13.48-.54,1.41-.9,2.07-2.07,3.8-2.27,4.46-1.59,5.07.94.85.84,2.71-.19,3.7-.96.92-2.22.79-4.34-.42-.92-.53-2.13-1.06-2.67-1.17-.55-.12-1.24-.34-1.54-.49-.6-.31-2.74-.65-6.65-1.05-1.42-.15-3.45-.36-4.52-.48-1.07-.11-2.88-.45-4.02-.75-1.15-.3-2.46-.54-2.92-.54s-1.51-.12-2.34-.26c-.83-.15-2.3-.35-3.26-.46-.96-.11-2.58-.39-3.6-.63-1.01-.24-2.43-.54-3.14-.67-1.75-.31-3.26-.74-3.6-1.02-.15-.13-.62-.41-1.04-.62-.42-.21-.94-.62-1.15-.9s-.55-.72-.75-.97c-1.29-1.63-1.49-1.93-1.49-2.19,0-.16-.13-.54-.28-.83-.32-.61-.35-1.55-.1-3.15.1-.62.27-1.79.39-2.6.12-.81.34-1.77.49-2.12s.35-1.23.44-1.94c.09-.71.31-1.68.48-2.16.29-.81.29-1.02,0-3.23-.17-1.3-.39-3.36-.49-4.57-.1-1.22-.27-2.67-.37-3.23-.1-.56-.3-1.76-.44-2.68-.44-2.9-3.5-6.7-6.72-8.37-.27-.14-.93-.66-1.45-1.15-1.07-1-1.4-1.09-1.79-.48-.15.23-.32,1.04-.4,1.79-.07.76-.25,1.7-.39,2.1-.38,1.08-.51,3.53-.25,4.91.4,2.16.4,2.51,0,4.53-.44,2.17-1,3.5-2.13,5.07-.4.55-.88,1.3-1.05,1.65-.18.36-.65,1.08-1.04,1.62-.46.62-.76,1.27-.84,1.79-.07.45-.2.87-.3.93-.1.06-.35.45-.56.86-.49.96-1.93,2.32-3.51,3.32-.69.44-2.32,2.99-2.67,4.17-.49,1.66-.07,2.56,2.31,5,1.27,1.3,2.18,2.68,3.23,4.89.46.97.92,1.76,1.01,1.76.84,0,1.26,2.52.51,3.05-.55.38-4.62-.04-5.47-.56-.1-.06-.7-.19-1.33-.3-.64-.1-1.61-.38-2.17-.61-3.36-1.4-3.48-1.38-5.83.91-.78.76-1.48,1.38-1.56,1.38s-.39.2-.68.45c-.91.76-3.43,1.57-5.46,1.75-1.26.11-1.92.26-2.15.47-.19.17-.7.39-1.13.49-1.68.38-1.78,2.28-.21,3.95,2.71,2.87,5.66,3.92,11.32,4.03,4.23.09,4.84-.02,8.31-1.48.57-.24,1.32-.44,1.66-.44.84,0,1.99-.34,2.56-.74.25-.18.81-.42,1.24-.54.43-.11.82-.28.88-.38.06-.09.58-.26,1.16-.37.96-.19,4.35-1.75,5.02-2.32.3-.25,2.58-1.43,4.26-2.19,3.01-1.38,8.37,1.5,10.01,5.38.29.69.74,1.7,1,2.25.26.55.56,1.34.69,1.75.21.71.28.77,1.29,1.04,1.79.48,2.4,2.08,1.08,2.82-.55.31-4.48.35-5.86.06-2.18-.46-2.46,1.23-.64,3.92.51.75,1.08,1.9,1.29,2.54.45,1.45.9,1.75,1.85,1.26,2.63-1.38,3.43-1.66,6.94-2.45,2.33-.52,3.22.26,2.04,1.78-.52.68-.44.85,1.03,2.26,1.39,1.33,2.86,3.29,2.87,3.83,0,.16.45,1.18,1,2.26.55,1.08,1.05,2.16,1.13,2.4.07.24.35.76.6,1.17.26.41.65,1.03.87,1.39.22.36.66,1.06.98,1.57.88,1.42,2.67,3.78,2.85,3.78.09,0,.38-.17.64-.37.26-.2.57-.37.7-.37s.46-.18.75-.41c.65-.51,1.96-.5,3.17.04.46.2,1.01.37,1.22.37.21,0,.67.17,1.01.38.36.22,1.76.6,3.34.92,3.67.73,3.87.81,4.12,1.84.09.35-.02.59-.45,1.04l-.56.58-1.11-.35c-.61-.19-1.37-.35-1.7-.35-.81,0-2.89-.6-4.55-1.31-2.64-1.13-4.27-.7-5.28,1.4-1.01,2.09-2.06,3.86-2.88,4.87-.48.59-.87,1.16-.87,1.26,0,.24-1.46,2.44-1.86,2.81-.17.15-.91,1.02-1.65,1.94-1.63,2.01-5.86,6.22-6.9,6.87-.41.26-.79.52-.84.58-.05.06-.59.43-1.2.83-.61.4-1.32.86-1.58,1.04-.26.18-1.13.5-1.94.72-2.92.8-3.36,2.71-.7,3.05.49.06,1.85.3,3.02.52,3.09.6,7.4.58,8.85-.02.57-.24,1.52-.45,2.17-.49,2.48-.15,3.38-.39,5.86-1.57.61-.29,1.36-.59,1.66-.66.3-.07.76-.24,1.01-.36,1.89-.96,3.07-1.39,6.54-2.39.92-.26,2.92-1.24,3.43-1.67.15-.13.61-.36,1.01-.51,2.8-1.03,2.97-1.14,5.81-3.63,2.31-2.03,3.59-2.76,5.93-3.39,2.2-.59,3.75-.64,4.03-.12.53,1-.03,1.92-1.38,2.25-2,.48-3.34.93-3.77,1.26l-.45.34,1,.57c.55.32,1.29.67,1.65.79.36.12,1.1.6,1.66,1.07,1.1.93,2.47,1.86,2.74,1.86s2.04,1.25,3,2.1c.99.88,1.94,1.47,3.85,2.41,1.55.76,1.49.73,3.14,1.72.66.4,1.64.82,2.17.93.53.11,1.24.32,1.57.46.33.14,1.03.35,1.56.48.53.13,1.06.35,1.17.49.12.14.56.35.98.45.42.11,1.09.35,1.5.53.92.42,1.63.67,3.5,1.24.81.24,1.69.6,1.96.8.26.19.8.41,1.2.48.39.07.94.29,1.22.48.33.23,1.16.44,2.43.6,1.06.14,2.1.35,2.32.47.22.12,1.14.29,2.05.38.91.09,1.85.3,2.08.45.27.18,1.04.31,2.07.37,1.77.09,3.19.33,4.5.74.46.14,1.58.39,2.49.55.91.16,2.05.4,2.53.54.48.14,1.97.31,3.32.38,1.5.08,2.99.27,3.84.5,2.22.6,12.22.6,13.56,0,.51-.23,1.3-.49,1.75-.59,1.16-.25,3.25-1.34,3.72-1.94l.4-.5-.53-.45c-.29-.25-.83-.65-1.18-.9-.35-.25-1.06-.74-1.57-1.1-.99-.7-1.58-.81-1.93-.39-.12.15-.4.33-.62.39-.22.07-.61.27-.86.44-.25.18-.77.42-1.15.54-.38.12-1.45.77-2.4,1.43-3.89,2.76-4.36,1.82-1.44-2.89.09-.15.3-.57.46-.92.16-.36.4-.85.55-1.11.14-.25.43-.82.62-1.25l.36-.79-.42-.5c-.88-1.04-4.01-2.45-5.83-2.62-.9-.08-1.71-.2-1.81-.27-.1-.06-.51.33-.92.86-.41.54-1.08,1.22-1.5,1.53-.42.3-1.21.9-1.75,1.33-1.61,1.28-2.12.65-1.11-1.34.49-.96.7-3.04.36-3.61-.42-.72-1.16-1.41-1.71-1.6-.33-.11-.81-.37-1.06-.57-.26-.2-.94-.46-1.51-.58-.58-.12-1.42-.4-1.88-.64-.46-.23-1.12-.51-1.48-.61-.31-.09-.58-.18-.84-.27l-2.02,1.81h0s-.03.03-.05.05c-2.18,2.04-2.6,2.4-3.64,3.09-.61.4-1.17.83-1.25.95-.08.12-.51.42-.96.67,0,0-.46.25-.68.25s-.63-.24-.63-.24c-.36-.33-.46-.56-.37-.86.07-.22.29-1.24.49-2.25.2-1.01.45-1.99.54-2.17.68-1.25-.47-3.83-1.71-3.83-.24,0-.53-.1-.65-.22-.12-.12-.64-.43-1.15-.69-.51-.26-1.74-.88-2.73-1.38-.99-.5-1.99-1.06-2.23-1.25-.52-.4-1.78-.45-1.92-.08-.11.29-2.36,1.59-2.75,1.59-.14,0-.58.17-.98.38-1.31.68-4.17.87-4.83.33-.32-.27.34-1.92,1-2.54.28-.26.83-1.1,1.21-1.86.38-.76.77-1.51.86-1.66,1.95-3.32,1.93-3.42-2.07-8.38-1.09-1.35-1.62-2.22-1.62-2.65,0-.07.37-.32.82-.56,1.36-.72,2.47-.13,3.13,1.67.22.6.65,1.17,1.37,1.82.58.52,1.26,1.26,1.51,1.64.42.63,1.52,2.14,2.42,3.32.19.25.55.88.79,1.38,1.29,2.74,3.93,4.27,5.15,2.97.32-.34.87-.78,1.21-.97,1.68-.93,2.29-1.32,3.06-1.98,1.31-1.11,2-.44,1.6,1.55-.11.56-.2,1.26-.2,1.55s-.18.81-.39,1.16c-.96,1.56-.47,2.55,1.37,2.73.73.07,1.7.28,2.16.46.46.18,1.37.38,2.03.45.66.07,1.68.25,2.27.4,1.6.4,2.06.24,3.64-1.28.76-.73,1.5-1.52,1.65-1.77.43-.7,1.68-1.92,2.56-2.51.44-.3.87-.71.96-.92.72-1.69,2.24-2.54,2.77-1.55.54,1.02-.46,8.09-1.32,9.25-1.39,1.88-.96,3.29,1.12,3.73.36.07.9.29,1.22.48,1.8,1.09,2.91.66,5.22-2.05.65-.76,1.33-1.49,1.52-1.62.19-.13.34-.34.34-.45,0-.22.19-.45,1.51-1.79,1.36-1.38,2.56-2.4,2.84-2.4.75,0,.68,2.27-.11,3.6-.18.3-.38,1.05-.45,1.66-.07.61-.28,1.69-.46,2.4-.19.71-.4,1.64-.47,2.06-.07.43-.24.87-.39.99-.4.33-.31.66.24.89.28.12,1.05.71,1.71,1.33.66.61,1.48,1.34,1.83,1.61.35.27.89.73,1.2,1.02,1.73,1.61,2.64,1.83,3.75.91.47-.39,1.03-.82,1.25-.98,1.99-1.37,2.78-1.84,3.03-1.84.3,0,2.45-1.48,2.67-1.83.17-.28,1.31-.24,1.55.05.16.19.12.5-.13,1.25-.19.55-.4,1.33-.48,1.73-.07.41-.38,1.11-.67,1.55-.3.45-.54,1-.54,1.22s-.16.6-.35.85c-.96,1.22-1.2,3.54-.43,4.26.57.54,2.41,1.8,2.62,1.8.08,0,.49.38.92.84,1.02,1.1,1.44.72,2.2-1.95.13-.46.32-1.08.43-1.38s.26-1.42.34-2.49c.08-1.07.23-2.47.34-3.13.22-1.32-.06-3.08-.73-4.58Zm-111.1-47.59c-.52,1.25-1.32,1.86-1.96,1.53-.68-.35-.69-.19.03-1.7,1.16-2.43,5.34-5.84,5.95-4.85.32.51-.15,1.27-1.3,2.11-1.4,1.03-2.38,2.07-2.73,2.91Zm4.39,1.16c-.37.71-.75,1.38-.83,1.49-.09.11-.25.62-.37,1.14-.28,1.28-.54,1.47-1.17.81-.55-.57-.46-1.77.23-3.09.16-.32.51-.98.77-1.48.78-1.51,1.29-2.06,2.65-2.88.72-.43,1.79-1.14,2.4-1.58,1.33-.97,1.83-.98,1.91-.03.07.78-.65,1.46-2.73,2.62-1.51.84-2.02,1.37-2.86,2.99Zm6.29.57c-.26.52-.48,1.06-.48,1.2,0,.14-.11.47-.25.72-1.31,2.39-1.77,3.4-1.77,3.85,0,.7-.39,1.01-1.1.85-.31-.07-.56-.14-.56-.16s-.08-.3-.17-.62c-.14-.5-.07-.78.53-1.94,2.87-5.58,3.56-6.67,4.38-6.99.26-.1.72-.39,1.02-.64.3-.25.64-.46.77-.46s.72-.37,1.32-.82c1.26-.94,1.47-.99,1.75-.46.44.82,0,1.34-2.31,2.79-2.33,1.45-2.64,1.72-3.12,2.66Zm4.3,3.95c-1.21,2.13-1.64,3.17-1.76,4.2-.18,1.64-.9,2.66-1.65,2.37-.3-.12-.36-1.42-.09-1.93.09-.18.3-1.05.46-1.95.16-.89.39-1.75.52-1.9.23-.27.64-1.02,1.7-3.13.6-1.2,2.71-3.38,3.77-3.9.37-.18.84-.42,1.04-.54.43-.24,2.64-1.25,3.04-1.4.5-.17.68-.13,1.02.25.6.66-.94,1.81-3.81,2.86-1.17.42-2.56,1.78-3.21,3.13-.25.51-.71,1.38-1.02,1.94Zm13.12-4.16c-.56.07-1.43.34-1.94.6-1.88.96-3.98,2.31-4.18,2.7-.11.22-.54.79-.94,1.28-.43.51-.8,1.2-.9,1.66-.09.43-.34,1.01-.54,1.29-.2.28-.52,1.19-.71,2.03-.97,4.36-1.27,4.89-2.31,4.13-.33-.24-.33-.3.05-1.8.21-.85.44-1.94.51-2.42.07-.48.24-.97.38-1.09.14-.12.44-.81.65-1.53.41-1.36.54-1.62,1.58-3.16,1.43-2.12,1.64-2.34,3.02-3.07.75-.4,1.5-.85,1.65-.99.77-.69,2.85-1.38,4.06-1.33l1.2.04.06.59c.07.71-.2.89-1.63,1.07Z"/>
        <path class="cls-1" d="m162.65,151.59c.07-.48-.06-.57-.25-.76-.34-.36-1.41-.73-2.14-.73-.24,0-.94-.13-1.56-.29-1.42-.37-1.67-.14-1.86,1.68-.07.67-.38,1.49-.49,1.9-1.09,3.97-.17,4.27,1.78,2.39.24-.23.69-.62,1-.88.32-.25.67-.57.79-.7.5-.56,1.05-1.08,1.55-1.47h0s1.16-.91,1.18-1.13Z"/>
        <path class="cls-1" d="m183.89,166.69c.28.52,2.25-1.25,4.22-2.17,1.9-.88,2-1.44.51-2.61-1.1-.87-1.25-.89-1.95-.3-.29.24-.68.86-.86,1.38-.19.52-2.13,3.3-1.91,3.7Z"/>
        <path class="cls-1" d="m153.36,142.67c-.36.28-.79.59-.97.7-.68.4-.46,1.58.37,2.06,1.43.82,2.18.52,2.51-1,.13-.58.39-1.17.49-1.37,1.59-3.35-1.37-1.19-2.4-.39Z"/>
        <path class="cls-1" d="m141.9,140.42c-.36.37-.78,1.05-.94,1.51-.16.47-.4.98-.53,1.14-.14.16-.36.58-.49.94-.13.36-.34.73-.46.83-1.85,1.57.82,2.29,3.33.9,2.07-1.15,2.36-2.04,1.31-4.04-1-1.92-1.38-2.14-2.21-1.28Z"/>
        <path class="cls-1" d="m174.32,142.35c-.13,0-.28.09-.35.2s-.32.27-.57.37c-.25.09-.53.38-.62.63s-.28.46-.41.46c-.27,0-2.54,2.3-2.54,2.57,0,.1-.41.59-.92,1.09-1.37,1.35-1.26,2.61.22,2.62.24,0,.79.21,1.23.46,1.34.76,2.28.36,2.82-1.21.12-.35.37-.85.55-1.1.18-.25.39-.96.45-1.57.07-.61.28-1.46.47-1.88.57-1.28.4-2.64-.33-2.64Z"/>
        <path class="cls-1" d="m186.69,151.34c.73-1.75-1.06-3.13-1.91-1.46-.2.39-.49.81-.65.94s-.29.39-.29.56-.46.73-1.01,1.22c-1.52,1.35-1.47,2,.19,2.91.66.36,1.31.66,1.43.66.2,0,1.61-1.21,1.61-1.38,0-.57.45-3.01.64-3.46Z"/>
        <path class="cls-1" d="m115.08,152.32c-.41-.11-.95-.37-1.21-.57-1.17-.92-2.14-1.09-3.03-.55-.33.2-.6.44-.6.53,0,.18-1.67,1.2-2.95,1.81-1.25.59-4.18,2.05-5.51,2.74-.65.34-1.69.74-2.31.89-1.58.39-3.59,1.11-4.36,1.56-.36.21-.97.44-1.37.51-.4.07-1.27.38-1.94.68-2.19.99-3.52,1.63-3.52,1.72,0,.25.97,1.57,1.27,1.73.19.1.48.52.65.93.16.41.38.74.47.74s.56.58,1.04,1.29c.93,1.38,2.3,2.77,2.74,2.77.15,0,.93.64,1.74,1.43.81.79,1.94,1.68,2.52,1.98l1.04.55.31-.45c.77-1.14,2.37-2.06,4.19-2.39,1.2-.22,1.18-.22,2.39-1.21.51-.42,1.13-.9,1.38-1.07,2.83-1.88,5.49-4.24,7.02-6.24.55-.72,1.48-1.86,2.07-2.53.58-.67,1.06-1.3,1.06-1.41,0-.11.24-.4.53-.65,1.39-1.2-.73-4.01-3.62-4.78Z"/>
        <path class="cls-1" d="m174.19,155.97c-.53.58-.76,3.04-.98,3.6-.37.91,2.81-2.64,2.59-2.98-.43-.68-1.26-1.01-1.61-.63Z"/>
        <path class="cls-1" d="m49.69,124.23c1.49-1.52,3.04-2.98,3.45-3.24.4-.26,1.43-1.14,2.27-1.96.85-.82,1.76-1.62,2.04-1.77.64-.35,1.13-.78,2.29-1.98.51-.53,1.04-.97,1.17-.97s.47-.2.75-.44c.29-.24.69-.49.89-.56.2-.07.7-.42,1.09-.8l.73-.67-.56-1.03c-1.06-1.94-1.75-5.18-1.35-6.38.3-.9.74-1.08,2.95-1.19l1.94-.1.05-.65c.14-1.69-2.93-5.89-5.04-6.9-1.19-.57-2.43-.58-3.41-.03-.46.25-1.09.59-1.4.74-.8.39-.92.59-1.33,2.15-.2.76-.51,1.76-.68,2.21-.17.46-.36,1.37-.41,2.03-.06.76-.22,1.36-.44,1.64-.25.32-.34.75-.34,1.63,0,1.46-.7,4.6-1.15,5.17-.1.13-.42.23-.72.23s-.94.21-1.43.47c-.49.26-1.22.52-1.61.58-1.7.27-3.49,1.52-4.37,3.04-.6,1.04-.76,5.27-.23,5.97.2.26.27.88.28,2.24,0,1.43.1,2.12.38,2.89l.38,1,.55-.28c.3-.15,1.77-1.52,3.27-3.05Z"/>
        <path class="cls-1" d="m71.22,73.74c1.62-.82,3.04-1.49,3.16-1.49.11,0,.31-.13.44-.28.13-.15.56-.37.96-.5.86-.26,2.31-1.81,2.68-2.86.13-.36.32-.77.43-.9.11-.13.61-1.05,1.11-2.05,1.36-2.7,2.24-3.87,5.29-7.03.95-.98,1.85-2.03,2.01-2.34.37-.7,4.17-4.5,5.03-5.03,1.1-.67,2.64-2.35,2.36-2.57-.38-.3-.96-.38-1.42-.21-.23.09-.64.32-.89.53-.26.2-.7.37-.99.37s-1.38.45-2.44,1c-1.05.55-2.22,1.06-2.59,1.13-.37.07-.86.27-1.09.45-.23.18-.7.42-1.05.53-.35.12-.76.33-.92.47-.16.14-.59.35-.95.46-.37.12-.86.42-1.09.67-.24.25-.49.46-.57.46-.23,0-1.82,1.12-1.82,1.28,0,.08-.23.25-.52.36-.29.12-.96.62-1.51,1.12-.54.5-1.64,1.38-2.44,1.98-.8.59-2.2,1.8-3.1,2.69-.9.89-1.72,1.61-1.82,1.61-.34,0-.92,1.21-1.28,2.68-.2.81-.59,2.31-.86,3.32-.89,3.32-1.01,3.86-1.01,4.71,0,1.85.2,1.82,4.89-.55Z"/>
        <path class="cls-1" d="m83.96,73.13c.78-.74,1.55-1.42,1.73-1.52.62-.36,1.86-1.45,1.86-1.63,0-.1.13-.33.3-.52.3-.33.24-.9-.09-.9-.09,0-.27.12-.39.26-.12.15-.46.32-.75.38-.29.06-.81.3-1.15.53-.34.23-.9.51-1.24.63-.34.12-.76.33-.91.47-.16.14-.61.35-1.01.48-.39.13-.99.42-1.33.64-.52.35-2.49,1.4-4.29,2.27-.27.13-.7.36-.95.5-.25.15-.75.39-1.11.55-.36.16-.77.37-.92.47-.15.1-.57.31-.92.46-.36.15-.79.36-.97.46-.65.36-.98.53-1.8.9-.46.21-1.08.58-1.38.83l-.55.45.38.52c.21.29.72.69,1.13.89.41.2.88.48,1.04.62.16.14,1.19.36,2.28.49,1.09.14,2.22.33,2.49.44.63.24,1.42-.36,1.88-1.41.16-.38.59-1.07.94-1.52.63-.82,1.39-1.86,1.94-2.68.38-.57,1.82-1.75,2.13-1.75.14,0,.89-.6,1.66-1.34Zm1.14-2.46c.61-.15,1.09.09.75.37-.27.23-1.45.27-1.45.05,0-.14.31-.33.69-.42Zm-4.28,2.95c-.44-.44-.35-.77.24-.9.29-.06.72-.29.94-.5.23-.21.68-.45.99-.53,1.83-.44,1.66.05-.65,1.84-.59.45-1.13.49-1.53.09Z"/>
        <path class="cls-1" d="m72.72,124.36c.3.55.54,1.89.74,4.15.06.69.23,1.34.4,1.53.16.18.35.72.43,1.2.35,2.24.42,2.55.64,2.9.13.2.29.83.36,1.38.14,1.09,1.12,4.38,1.41,4.74.16.2.35.68,1.42,3.59.4,1.09,1.47,3.11,1.64,3.09.07,0,.5-.47.96-1.04.46-.56,1.45-1.7,2.21-2.53.76-.83,1.63-2,1.93-2.61.3-.61.8-1.4,1.11-1.77.82-.98,2.13-3.4,2.13-3.95,0-.26-.32-.9-.71-1.43-.64-.87-1.48-2.09-1.97-2.88-.1-.16-.36-.54-.57-.85-.33-.47-1.26-2.07-2.2-3.78-.14-.25-.55-1.13-.92-1.94-.37-.81-.82-1.77-1-2.12-.19-.36-.39-.84-.47-1.07-.07-.23-.47-.93-.9-1.54-.42-.61-.89-1.3-1.04-1.52-.15-.22-.73-.81-1.29-1.32-.55-.5-1.29-1.18-1.63-1.51-.8-.77-1.35-.76-2.52,0-1.01.66-1.06.91-.64,2.81.09.41.17,1.9.17,3.32,0,2.01.07,2.7.3,3.14Z"/>
        <path class="cls-1" d="m105.12,185.17c-.38-.2-1.02-.7-1.43-1.12-.41-.42-.99-.89-1.29-1.05s-1.15-.86-1.87-1.56c-.72-.7-1.42-1.27-1.55-1.27s-1.36-1.11-2.74-2.47c-1.38-1.36-2.68-2.52-2.89-2.59-.52-.15-4.69-4.38-4.97-5.04-.12-.28-.53-.8-.91-1.16-.38-.36-1.02-1.1-1.43-1.66-.41-.56-1.1-1.39-1.54-1.84-.44-.46-.92-1.14-1.08-1.52-.37-.89-.75-1.08-2.16-1.03-.64.02-2,.06-3.01.09-2.28.07-2.62.14-2.77.61-.06.21-.45.59-.86.84-1.23.78-2.33,1.9-2.46,2.51-.07.31-.27.81-.45,1.1-.51.84-.26,1.63.66,2.08.41.2,1.32.95,2.02,1.66.7.71,1.58,1.5,1.95,1.75.37.26,1.17.88,1.79,1.39,1.41,1.17,2.1,1.64,3.27,2.19.51.24,1.04.58,1.18.74.13.16.33.3.44.3s.49.23.85.51c1.2.92,1.8,1.29,2.46,1.51.36.12.8.38.98.58.19.21.57.36.9.37.31,0,.9.16,1.31.34.41.18,1.32.44,2.03.57.71.13,1.5.38,1.75.55.25.18.85.38,1.31.45.47.07,1.17.29,1.57.49.39.2,1.24.44,1.88.53.64.09,1.48.33,1.86.53,1.16.6,4.21,1.51,5.09,1.51,1.05,0,1.11-.4.14-.9Z"/>
        <path class="cls-1" d="m46.32,110.44c1.14,0,2.77-1.61,2.94-2.89.06-.49.22-1.14.36-1.44.13-.3.39-1.38.56-2.4.18-1.01.44-2.03.58-2.25.27-.44.35-1.17.12-1.15-.08,0-.22.04-.32.08-.1.03-.58.12-1.06.18-1.16.16-1.98.84-1.98,1.63,0,.32-.16.84-.35,1.15-.33.54-.4.82-.68,2.98-.07.53-.24,1.06-.38,1.18-.52.43-.34,2.93.21,2.93Z"/>
        <path class="cls-1" d="m150.95,65.73c.08-.14.49-.48.92-.75,1.07-.7,1.15-1.02.4-1.58-.34-.25-.85-.69-1.14-.97-.29-.28-.79-.64-1.11-.81-.32-.16-1.42-1.11-2.44-2.12l-1.86-1.82-1,.02c-.55.01-1.15.06-1.33.11-.45.11-.02,2.27.44,2.27.09,0,.3.27.46.6s.37.64.44.69c.19.13,1.06,1.63,1.39,2.4.28.65.34.77,1.04,2.12.77,1.5,1.33,1.84,1.93,1.18.19-.21.66-.55,1.03-.74.38-.19.75-.46.83-.6Z"/>
        <path class="cls-1" d="m145.29,82.71c0,.13.25.71.55,1.28.3.57.55,1.18.55,1.35,0,.61.22.51,1.37-.62,1.46-1.44,1.51-1.59.93-3.26-.26-.75-.61-1.89-.78-2.52l-.3-1.15h-.69c-.38,0-.74.07-.79.16s-.47.34-.93.55c-1.22.57-1.28,1.29-.28,3.26.2.39.36.82.36.96Z"/>
        <path class="cls-1" d="m65.47,156.85l.48-1.04-.54-.8c-.85-1.26-3-2.33-4.7-2.33-1,0-1.67-.37-2.58-1.44-.69-.81-.97-4.96-.39-5.84.54-.82.62-5.08.1-5.08-.09,0-.17.08-.17.18s-.29.44-.65.77c-.36.32-.65.67-.65.77s-.11.32-.25.48c-.14.16-.36.58-.49.94-.14.36-.39.85-.56,1.11-.17.25-.39.71-.5,1.01s-.49,1-.86,1.54c-.89,1.31-.95,1.66-.5,2.67.21.46.38.9.38.96s.56.95,1.25,1.97,1.41,2.11,1.61,2.43c.2.32.64.95.97,1.41.34.46.78,1.18.99,1.61.21.43.45.78.55.78s.34.33.54.73c.24.47.86,1.09,1.76,1.75.76.56,1.38,1.1,1.38,1.19s.21.22.47.28c.26.06.8.41,1.2.78.71.64.75.65,1.19.36.63-.42.69-2.95.09-3.76-.63-.85-.68-2.21-.12-3.43Z"/>
        <path class="cls-1" d="m195.55,93.4c-.15-.3-.27-.74-.27-.99s-.09-.61-.2-.82-.27-.87-.36-1.48c-.09-.61-.27-1.24-.42-1.41-.14-.17-.4-.68-.58-1.13-.18-.46-.43-.95-.55-1.11-.13-.15-.34-.57-.48-.92-.14-.36-.34-.77-.46-.92-.12-.15-.33-.57-.46-.92-.14-.36-.65-1.13-1.14-1.72-.49-.59-.89-1.15-.89-1.25s-.45-.66-.99-1.25c-.55-.6-1.05-1.25-1.11-1.45-.33-1.03-1.66-.39-2.43,1.16-.15.3-.48.84-.73,1.18-.59.82-.59,1.58,0,1.97.25.16.54.56.65.89.28.85,1.55,1.96,3.15,2.75,2.04,1,2.69,1.73,2.32,2.6-.17.42-1.43.87-2.07.87-.94,0-1.26-.1-1.94-.56-.45-.3-.88-.55-.97-.55-.09,0-.44-.25-.79-.56-.35-.3-.75-.55-.89-.55s-.46-.21-.7-.47-.89-.78-1.44-1.16-1.18-.98-1.4-1.33c-.22-.35-.54-.79-.71-.97-.74-.82-.79-2.15-.09-2.71.19-.15.63-.82.97-1.48.35-.66,1.04-1.62,1.54-2.14.5-.52,1.05-1.18,1.22-1.48.17-.29.5-.76.72-1.03l.41-.5-.33-1.25c-.18-.69-.48-1.54-.66-1.9-.18-.36-.6-1.2-.92-1.87-.52-1.07-.75-1.33-1.81-2.02-.67-.44-1.3-.9-1.4-1.04-.23-.3-.55-.47-4.93-2.65-4.22-2.1-4.84-2.38-5.29-2.38-.19,0-.64-.12-1-.28-.36-.15-.94-.28-1.27-.28s-.77-.11-.97-.25c-.46-.31-1.91-.67-2.71-.67-.34,0-.82-.15-1.07-.32-.56-.4-2.56-.74-5.25-.89-1.22-.07-2.19-.22-2.44-.37-.56-.35-2.7-.34-3,.01-.18.22-.11.33.39.63.34.2.74.48.89.63.51.49,2.58,1.43,3.42,1.54.63.09.96.26,1.37.72l.53.61-.4.98c-.63,1.53-1.07,2.15-1.67,2.36-.31.11-.93.59-1.39,1.07-.46.48-1.3,1.19-1.86,1.57-2.87,1.95-3.92,3.72-2.73,4.6.57.43.96.34,1.92-.42.38-.3.83-.55.99-.55s.59-.21.93-.46c1.88-1.38,4.24.59,4.24,3.54,0,.29.12.7.27.89.15.2.27.54.28.77,0,.23.1.77.22,1.21.29,1.07.11,1.72-.52,1.87-.27.07-.86.49-1.3.94-.71.72-.91.82-1.6.82-.94,0-1.77.56-1.76,1.17.02.71.63,2.79.96,3.26.18.25.32.55.32.66,0,.67.62.82,3.54.82,2.13,0,3.04.07,3.53.28.42.18,1.26.28,2.32.28.91,0,1.89.09,2.17.21.67.27,1.98.5,3.93.68.86.08,1.78.26,2.03.4.25.14.92.32,1.48.4,2.33.34,2.88.46,3.29.68.52.28,2.3.76,2.83.76.21,0,.64.16.96.35.32.2.97.46,1.46.58.49.12,1.19.38,1.56.57.37.19.87.35,1.11.35s.67.17.95.39c.35.26.98.44,1.92.54.78.09,1.74.33,2.18.56.43.22,1.29.44,1.9.5.62.05,2.02.25,2.45.32.43.07.84.14.91.16.31.07.41-1.08.15-1.6Z"/>
        <path class="cls-1" d="m199.21,89.07c.47-.12,1.14-.21,1.49-.21.66,0,1.22-.5,1.22-1.09,0-.37-1.49-3.34-1.68-3.34-.08,0-.55-.81-1.03-1.8-.49-.99-.99-1.92-1.13-2.08-.48-.55-1.11-1.63-1.35-2.33-.28-.8-3.23-3.99-4.11-4.44-.3-.15-1.4-1.14-2.44-2.2-1.86-1.88-2.98-2.57-3.04-1.89-.04.51.06.82.48,1.45.24.36.49.85.57,1.11.14.49.6,1.14,1.41,2.03.27.3.55.73.62.96.07.23.5.78.94,1.22.44.44.81.92.81,1.06s.24.52.54.84c.3.33.59.78.65,1.01.06.23.46.93.89,1.56,1,1.44,1.53,2.32,1.91,3.13.17.35.38.77.47.92.54.9.89,1.83.9,2.4.02,1.2.86,1.95,1.9,1.69Z"/>
        <path class="cls-1" d="m200.34,95.13c.16.45.29,1.24.29,1.76,0,.99.3,1.42,1.56,2.22.3.19.73.53.96.76.23.23.53.42.66.42s.78.54,1.43,1.2c.82.83,1.23,1.13,1.33.97.26-.4.17-2.79-.11-3.2-.15-.21-.43-.99-.63-1.75-.2-.75-.58-1.95-.83-2.66-.26-.71-.47-1.43-.48-1.59-.01-.57-.76-.9-1.76-.77-2.44.31-3.01.93-2.41,2.64Z"/>
        <path class="cls-1" d="m148.55,102.32c.59.23,1.15.48,1.25.56.1.07.61.26,1.13.41.52.15,1.18.4,1.48.55.95.48,2.29.73,2.58.49.33-.27.16-2.64-.23-3.26-.23-.37-.44-1.45-.75-3.83-.05-.41-.21-.87-.35-1.03-.14-.16-.34-.91-.44-1.66-.34-2.54-.42-2.85-.97-3.54l-.55-.69h-2.54c-2.15,0-2.58.05-2.8.31-.45.54-.31,6.39.21,8.55.58,2.42.71,2.64,1.98,3.14Z"/>
        <path class="cls-1" d="m85.86,71.04c.33-.29-.15-.52-.75-.37-.38.09-.69.29-.69.42,0,.22,1.18.18,1.45-.05Z"/>
        <path class="cls-1" d="m152.55,78.87l.62-.99c.7-1.11.68-1.52-.07-2.72-.46-.73-1.28-.96-1.68-.46-.28.34,0,1.72.6,3.03l.53,1.14Z"/>
        <path class="cls-1" d="m127.17,173.73c.78-1.06,2.44-.73,2.44.49,0,.16.13.44.28.61s.34.68.42,1.12c.21,1.23.9,1.23,2.45-.02.64-.52,1.35-.98,1.58-1.04.23-.06.45-.21.5-.35.05-.14.56-.59,1.13-1.01.57-.42,1.12-.95,1.22-1.17.1-.22.34-.69.54-1.05.19-.36.36-.89.36-1.2,0-.3.17-.89.36-1.31.19-.42.37-1.32.41-2l.07-1.25-1.29-.55c-.71-.3-1.71-.75-2.21-.99-.76-.37-2.45-.82-3.05-.82-.08,0-.58.37-1.13.83-.54.46-1.57,1.47-2.28,2.26-.71.79-1.93,2.07-2.72,2.86,0,0-1.27.88-1.43.88s-.69.25-1.16.55c-.48.3-1.1.61-1.37.67-.28.07-.8.27-1.15.46-.36.18-1.23.59-1.94.9-.71.31-1.58.72-1.94.91s-1.39.48-2.31.65c-1.7.31-2.09.42-5.42,1.39-1.63.48-2.23.56-3.99.56-2.68,0-2.85.15-1.74,1.49.94,1.12,2.4,2.24,3.34,2.55.37.12.78.35.91.5.13.15.56.46.95.68,1.23.68,1.69.95,2.17,1.28.26.17.92.4,1.48.52.56.11,1.23.36,1.49.54,1.48,1.05,11.28.93,13.37-.17.44-.23,1.28-.44,2.03-.51.72-.06,1.41-.23,1.59-.39.35-.31,3.02-.76,4.52-.77,1.1,0,2.19-.61,2.61-1.45.14-.27.52-.78.86-1.14.33-.35.75-.94.93-1.29.18-.36.49-.81.69-1.01.61-.61,2.35-3.08,2.35-3.33,0-.44,1.53-1.4,2.03-1.27.6.15.61.17.4.57-.1.19-.73,1.5-1.41,2.92-.68,1.42-1.31,2.71-1.4,2.86-.1.15-.34.65-.55,1.11-.21.46-.51.97-.66,1.14-.6.66-.25,1.16.86,1.23,1.09.07,3.51-.28,3.51-.51,0-.45,1.24-.6,5.71-.68,5.2-.1,6.92-.4,7.53-1.32.15-.23.37-.42.5-.42.27,0,1.82-.99,2.65-1.7.33-.28.71-.52.84-.52s.52-.3.87-.66c.35-.36.88-.79,1.19-.95.61-.32,1.31-.85,2.61-2.01l.86-.76-.45-.3c-.25-.16-1.03-.38-1.75-.48-.71-.1-1.59-.31-1.95-.46-.36-.15-1.28-.35-2.04-.45-.76-.09-1.58-.28-1.82-.41-.24-.13-1.19-.3-2.1-.37-2.92-.23-4.91-.54-5.49-.84-.31-.16-1.28-.36-2.15-.44-.87-.08-1.91-.28-2.32-.43s-.9-.29-1.11-.29c-.2,0-.62-.14-.92-.3-.49-.26-2.77-1.18-2.93-1.18-.03,0-.21.16-.39.36-.34.37-.34.51.03,3,.12.84-.44,2.11-1.32,2.97-.33.32-.66.79-.74,1.05-.2.66-.42.88-1.01,1.01-.29.06-.67.28-.85.48-.18.2-.92.7-1.63,1.1-.72.41-1.68,1.03-2.13,1.38-.46.35-1.1.76-1.42.91-.32.15-.8.48-1.05.74-.25.25-.57.46-.69.46-.21,0-.82.36-2.24,1.33-.43.3-.55.31-.76.1-.14-.14-.62-.39-1.07-.57-1.15-.44-1.25-.76-1.25-4.08,0-2.73-.03-2.99.14-3.22Z"/>
        <path class="cls-1" d="m83,71.69c-.32.08-.76.31-.99.53-.23.21-.65.44-.94.5-.59.13-.68.47-.24.9.4.4.94.36,1.53-.09,2.31-1.79,2.48-2.28.65-1.84Z"/>
        <path class="cls-1" d="m154.32,170.66c.1-.03.21-.05.31-.07-.11.02-.21.04-.31.07Z"/>
        <path class="cls-1" d="m154.21,170.69c-.29.08-.56.2-.76.36-.47.37-.6.61-.6,1.1,0-.69.58-1.21,1.36-1.46Z"/>
        <path class="cls-1" d="m156.29,170.72c.16.06.32.11.47.2-.14-.08-.3-.14-.47-.2Z"/>
        <path class="cls-1" d="m199.57,134.42c1.03.89,1.52,1.47,2.38,2.85.13.2.41.66.64,1.01.22.36.46.98.54,1.38.1.59,1.09,2.49,1.3,2.49.03,0,.18-.45.34-.99.16-.55.4-1.09.54-1.2.14-.12.36-.72.48-1.34.12-.62.34-1.31.49-1.53.14-.22.34-1.04.44-1.83.1-.79.23-1.51.3-1.62.06-.1.21-1.2.32-2.43.18-1.96.2-3.93.13-12.72-.02-2.11-.29-2.85-1.11-3.01-.64-.13-1.34-.85-1.67-1.73-.13-.36-.36-.78-.51-.95-.46-.54-.51-1.72-.09-2.31.32-.45.49-.85.52-1.21,0,0,0-.01,0-.02,0-.08-.02-.14-.03-.22-.04-.26-.14-.5-.34-.67-.26-.23-.47-.53-.47-.68,0-.56-2.35-2.65-2.46-2.2-.07.26.03.54.26.8.31.33.51,1.45.53,2.39,0,.04,0,.08,0,.12,0,.03,0,.06,0,.09,0,.5-.04.91-.17,1.06-.16.2-.22,1.19-.2,3.53.02,2.42-.04,3.33-.21,3.54-.16.19-.28,1.26-.36,3.26-.08,2.06-.21,3.22-.43,3.79-.17.45-.46,1.53-.64,2.4-.18.87-.42,1.82-.53,2.13-.11.3-.29,1.01-.42,1.57-.12.56-.38,1.34-.58,1.73-.49.98-.34,1.36,1.01,2.52Z"/>
        <path class="cls-1" d="m204.61,109.27s0,.01,0,.02c0,0,0-.01,0-.02Z"/>
        <path class="cls-1" d="m204.58,109.05c-.03-.25-.13-.49-.34-.67.2.17.3.41.34.67Z"/>
        <path class="cls-1" d="m202.1,108.81s0,.06,0,.09c0-.03,0-.06,0-.09Z"/>
        <path class="cls-1" d="m201.56,106.3c.28.3.5,1.45.53,2.4-.02-.94-.22-2.06-.53-2.39-.24-.25-.33-.54-.26-.8-.07.26.02.54.26.79Z"/>
        <path class="cls-1" d="m157.18,91.67c-.18.13-.22.26-.11.47-.09-.17-.02-.35.11-.47Z"/>
        <path class="cls-1" d="m195.45,113.27c-.57.32-1.23.71-1.48.88-.24.17-.98.59-1.64.94l-1.2.63-.09,2.13c-.07,1.61-.17,2.21-.39,2.47-.17.19-.36.63-.44.99-.07.36-.29.95-.48,1.33-.44.87-.43.96.07,1.49.84.89,2.26,2.58,2.43,2.87.09.17.32.46.51.66.18.2.39.53.45.74.13.41.23.54,1.25,1.62.35.38.72.83.82,1.01.16.28.22.29.49.06.62-.51.71-.94,1.14-5.3.08-.83.25-1.62.38-1.74.17-.17.23-1.62.23-5.82v-5.59l-.51.02c-.28.01-.97.28-1.54.6Z"/>
        <path class="cls-1" d="m90.2,58.51c-.16.3-.82,1.11-1.48,1.78-.66.68-1.34,1.46-1.52,1.75-.18.29-.71.97-1.18,1.51-.47.54-.85,1.1-.85,1.24s-.17.36-.37.49c-.38.24-.86,1.55-.64,1.77.07.07,1.09.16,2.28.22,1.86.09,2.25.16,2.75.52.62.44.84.41,1.14-.15.12-.22.71-.73,1.34-1.36,2.73-2.72,4.87-1.69,2.25,1.08-.67.71-1.37,1.58-1.55,1.93-.39.75-2.93,3.25-3.99,3.92-.4.25-.84.6-.99.77-.14.17-.56.47-.92.65-.95.49-2.33,2.09-3.39,3.91-.28.48-.65.98-.84,1.11-.19.13-.49.53-.67.88-.18.36-.49.8-.69.99-.71.67,1.12,1.26,4.93,1.57,1.36.11,2.3.29,2.86.55.46.21,1.2.38,1.66.39.46,0,1.37.1,2.03.21,2.11.35,3.34.5,6.46.8,2.03.2,3.52.45,4.48.75.79.25,1.53.46,1.65.46s.54.16.96.35c2.02.94,2.37.83,2.56-.81.09-.84,1.1-3.06,2.18-4.83.2-.32.49-1.02.64-1.55.16-.53.61-1.59,1.01-2.35.91-1.74.94-2.32.12-2.73-.69-.35-1.43-.99-1.43-1.23,0-.09-.15-.39-.34-.66-1.2-1.73-.78-5.2.95-7.82.26-.39.32-.8.29-1.75-.06-1.6.07-1.94.86-2.32.37-.18.64-.02,1.54-.33.48-.17.76-.14,1.46.12,1.17.44,1.25.54.82,1.09-.21.26-.48.91-.6,1.44-.13.53-.33,1.13-.46,1.34-.13.2-.29.56-.36.8-.07.24-.33.73-.57,1.09-.52.77-.57,1.72-.15,2.72l.29.69.54-.52c.36-.35.67-.95.93-1.82.21-.71.49-1.42.62-1.58.13-.15.38-.57.56-.92.18-.36.64-1,1.04-1.43.39-.43.71-.86.71-.96,0-.3,2.22-2.79,2.68-3,.23-.11.46-.34.51-.52.25-.97,3.21-.61,4.4.54.43.42,1.14.93,1.56,1.13.43.21,1.15.7,1.61,1.11l.83.73.66-.45c.37-.25.81-.63.99-.85.23-.28.55-.48,1.1-.43,2.64.25,1.86,3.43,1.23,4.13-.29.32-.29.36-.02.47.17.06.46.46.65.88.19.42.93,1.38,1.65,2.12,1.44,1.5,1.41,1.45,2.7,3.37.5.75,1.16,1.57,1.45,1.82l.53.46,1.5-1.48c1.03-1.02,1.48-1.59,1.45-1.85-.07-.51-3.9-8.21-4.09-8.21-.08,0-.32-.37-.54-.83-.21-.46-.47-.83-.58-.83s-.47-.45-.82-1c-.46-.72-1.2-1.49-1.2-1.51,0-.58-.45-.63-6.08-.59-3.1.02-6.34.06-7.2.1-1.27.05-1.62.13-1.84.41-.26.32-.39.34-1.89.15-1.23-.15-1.95-.14-3.04.04-.79.13-1.97.27-2.63.31-1.68.11-1.69.22-2.18.55-.48.32-1.21.46-3.72.73-.66.07-1.34.25-1.52.41-.84.73-3.35.21-3.49-.73-.1-.69-.96-.75-2.64-.18-.3.1-.97.28-1.47.4-.51.12-1.05.33-1.22.48-.17.15-.96.35-1.79.44-1.81.21-2.4.49-3.72,1.75-.98.94-1.69.96-1.85.76-.43-.52-.32-2.14.17-2.41,1.15-.64,3.73-1.68,4.8-1.94.46-.11,1.87-.72,3.14-1.35l2.31-1.15h1.66c2.2.02,2.67.15,2.67.75,0,.35-.14.51-.55.66-.3.11-.55.28-.55.38,0,.21.77.14,3.78-.33,1.01-.16,2.18-.34,2.58-.4.41-.06.89-.24,1.08-.41.34-.3,2.99-.57,5.44-.56,2.06,0,1.23-1.73-.97-2.03-.56-.08-1.17-.28-1.36-.45-.26-.23-.7-.31-1.8-.31-1.89,0-3.8-.4-4.3-.9-.52-.52-2.19-.47-2.39-.52-.2-.05-.37-.17-.37-.26,0-.66,7.07-.79,8.46-.15,1.32.6,4.08.36,4.08-.35,0-.08.21-.47.47-.85.26-.38.42-.75.35-.81-.29-.29-7.56-.24-8.7.05-.62.16-1.6.29-2.17.29s-1.23.1-1.45.22c-.22.12-1.02.28-1.77.34-1.02.09-1.44.21-1.66.47-.04.05-.25-.15-.37-.24-.35-.26-.41-1.77-.08-2.1.12-.12.76-.27,1.43-.34.67-.07,1.31-.22,1.44-.35.15-.15,1.14-.22,3.18-.23,1.71,0,3.43-.11,4.08-.25.81-.17,2.01-.21,4.33-.13l3.22.11,1.07.61c.91.52,1.05.67.94,1.01-.27.86-.42,1.16-.7,1.39-.16.14-.3.43-.3.66,0,.46-.3,1.23-.76,1.94-.58.88-.61,1.79-.07,2.14.69.45,5.5.04,6.68-.57.37-.19,1.13-.27,2.65-.27,2.11,0,2.57-.12,2.57-.68,0-.13-.23-.36-.52-.5-.28-.15-.86-.6-1.29-1.02-.42-.41-1.04-.88-1.37-1.03-.63-.3-1.23-.69-2.91-1.95-1.55-1.16-2.26-1.63-2.77-1.83-.25-.1-.67-.31-.92-.45-.25-.15-1.28-.68-2.28-1.18-2.26-1.14-2.17-1.22,1.5-1.3l2.81-.06.86.57c.47.31.93.57,1.02.57s.59.42,1.12.93c1.06,1.03,3.01,2.43,4,2.87,1.27.57,2.52,1.53,4.24,3.28l1.74,1.77h7.48c6.14.01,7.56.06,7.94.28.29.17,1.01.27,1.96.27.9,0,1.76.12,2.16.28.36.15,1.16.28,1.76.28s1.33.09,1.62.21c.29.11,1.59.36,2.9.55,1.31.19,2.51.46,2.67.6.42.37,4.07.58,4.5.26.38-.28-1.07-1.47-2.34-1.92-.4-.14-.87-.38-1.04-.53-.16-.15-.69-.34-1.17-.43-.48-.09-1.02-.3-1.2-.46-.18-.16-.49-.3-.68-.3-.53,0-1.94-.46-2.76-.9-.4-.21-.85-.39-1.01-.39s-.59-.16-.96-.36c-.37-.2-1.19-.45-1.82-.55-.63-.1-1.28-.31-1.45-.46-.17-.15-.67-.41-1.12-.56s-.94-.4-1.1-.55c-.16-.14-.69-.35-1.19-.46-.49-.11-1.11-.36-1.36-.56-.25-.2-.55-.36-.65-.36s-.61-.2-1.13-.45c-.52-.25-1.19-.51-1.49-.58-.3-.07-.75-.28-1.01-.45-.25-.18-.74-.38-1.09-.45-.34-.07-1.05-.33-1.57-.57-.52-.24-1.27-.44-1.67-.44-.4,0-1.64-.25-2.77-.54-4.02-1.07-8.34-1.85-8.77-1.58-.28.17-4.93-.27-5.63-.53-1.21-.45-7.64-.41-8.23.05-.34.26-.89.37-2.38.46-2.68.16-4.14.39-4.64.74-.3.21-.84.3-1.84.3-2.95,0-4.79.89-8.25,3.98-.58.51-1.45,1.22-1.94,1.57-.49.35-1.66,1.41-2.58,2.35-.93.95-2.01,1.89-2.4,2.09-.82.42-3.7,3.29-4.12,4.12Z"/>
        <path class="cls-1" d="m122.96,158.48c-.4-.48-1.24-.33-1.56.29-.16.3-.41.55-.56.55s-.27.09-.27.2-.45.67-.99,1.25c-.54.58-1.13,1.33-1.31,1.67-.52,1.02-5.51,5.84-6.96,6.73-1.02.62-2,1.32-3.01,2.14-.51.42-1.15.85-1.43.98-1.53.67,1.1.81,2.98.16.65-.23,1.73-.52,2.4-.66,2.04-.41,4.03-.99,4.76-1.38,1.2-.63,3.12-1.49,3.33-1.49.53,0,4.2-2.35,4.53-2.9.08-.14.4-.53.69-.87.3-.34.54-.72.54-.85,0-.26.25-.56,1.44-1.72.44-.43.73-.83.66-.91-.24-.24-5-2.89-5.25-3.19Z"/>
        <path class="cls-1" d="m70.17,154.03c2.48-.62,6.71-3.68,6.21-4.5-.06-.1-.2-.17-.31-.17-.25,0-.69-.56-.69-.89,0-.14-.26-.81-.56-1.51s-.55-1.51-.55-1.8-.16-.75-.35-.99-.44-.94-.55-1.53c-.11-.6-.32-1.22-.48-1.39-.15-.17-.36-.75-.46-1.29-.1-.54-.32-1.24-.47-1.56-.16-.31-.45-1.4-.66-2.4-.2-1.01-.49-2.12-.63-2.47-.15-.35-.26-.94-.26-1.31s-.12-.84-.26-1.04c-.14-.2-.3-.86-.34-1.47s-.18-1.43-.29-1.84c-.11-.41-.21-1.49-.22-2.4,0-1.08-.1-1.82-.27-2.12-.17-.29-.27-1.01-.27-1.94-.01-1.85-.45-3.99-.86-4.24-.17-.1-.69-.44-1.16-.76l-.86-.58-.82.44c-1.54.83-3.74,2.4-4.91,3.5-.31.29-.87.73-1.25.99-.38.25-1.01.76-1.39,1.13-.38.37-1.01.89-1.41,1.15-.39.26-1.09.77-1.55,1.13-.46.36-1.1.82-1.43,1.03-.33.21-.6.46-.6.56s-.29.3-.65.45c-.78.33-4.08,3.62-4.43,4.43-.14.31-.38.68-.54.81-.36.3-.36,1.17.01,2.13.16.41.42,1.28.59,1.94.17.66.45,1.4.63,1.66.18.25.32.77.32,1.14s.24,1.38.54,2.22c.3.84.59,1.77.65,2.06.21.93,1.39.42,1.78-.77.12-.37.55-1.11.94-1.65.39-.53.87-1.33,1.05-1.76.35-.82,3.14-3.61,4.11-4.11.27-.14.87-.63,1.32-1.09,2.23-2.26,4.25,0,3.65,4.07-.11.76-.21,2.72-.21,4.34,0,2.59-.04,3.04-.37,3.67-.42.81-.54,3.56-.17,3.79.11.07,1.06.18,2.11.24,1.55.1,1.99.19,2.34.5.24.21.75.58,1.13.83.76.49,1.79,1.84,1.79,2.36,0,.64.54,1.15,1.07,1.02Z"/>
      </g>
      <rect class="cls-2" width="239.56" height="212.62"/>
    </g>
  </g>
</svg>