<?xml version="1.0" encoding="UTF-8"?>
<svg id="Capa_2" data-name="Capa 2" xmlns="http://www.w3.org/2000/svg" viewBox="0 0 295.73 165.91">
  <defs>
    <style>
      .cls-1 {
        fill: #fff;
      }

      .cls-2 {
        fill: none;
      }
    </style>
  </defs>
  <g id="linckia">
    <g>
      <g>
        <g>
          <circle class="cls-1" cx="271.43" cy="65.91" r="3.04"/>
          <circle class="cls-1" cx="260.57" cy="66.56" r="4.85"/>
          <circle class="cls-1" cx="246.09" cy="67.21" r="6.66"/>
          <circle class="cls-1" cx="231.33" cy="24.51" r="3.04"/>
          <circle class="cls-1" cx="230.66" cy="35.37" r="4.85"/>
          <circle class="cls-1" cx="229.54" cy="49.82" r="6.66"/>
          <circle class="cls-1" cx="185.36" cy="59.26" r="3.04"/>
          <circle class="cls-1" cx="196.05" cy="61.25" r="4.85"/>
          <circle class="cls-1" cx="210.26" cy="64.12" r="6.66"/>
          <circle class="cls-1" cx="197.01" cy="98.39" r="3.04"/>
          <circle class="cls-1" cx="205.73" cy="91.78" r="4.85"/>
          <circle class="cls-1" cx="216.05" cy="81.55" r="6.66"/>
          <circle class="cls-1" cx="246.07" cy="107.41" r="3.04"/>
          <circle class="cls-1" cx="242.84" cy="96.96" r="4.85"/>
          <circle class="cls-1" cx="236.76" cy="83.76" r="6.66"/>
          <circle class="cls-1" cx="227.98" cy="67.87" r="8.47"/>
        </g>
        <g>
          <path class="cls-1" d="m70.48,93l23.86-51.46h-4.31c-2.25,0-4.29,1.32-5.21,3.37l-12.74,28.22-10.87-27.8c-.93-2.38-3.22-3.94-5.77-3.94l-3.43.15,16.52,39.45-4.03,8.92c-.44.96-1.4,1.58-2.45,1.58H28.44v-43.79c0-3.41-2.76-6.17-6.17-6.17h-1.01v57.16h40.29c3.83,0,7.31-2.22,8.93-5.7Z"/>
          <path class="cls-1" d="m143.63,91.84c0-3.45-2.79-6.24-6.24-6.24h-.94v7.18h7.18v-.94Z"/>
          <rect class="cls-1" x="136.86" y="99.93" width="7.18" height="44.24"/>
          <path class="cls-1" d="m122.14,99.93s-11.05,12.75-18.45,21.17V53.87c5.09-6.6,19.93-8.71,19.93,4.44v28.24c0,3.44,2.79,6.22,6.22,6.22h.96v-34.46c0-19.78-21.12-19.43-27.13-11.1-.23-3.25-2.93-5.82-6.24-5.82h-.91v87.65c-3.94,4.02-9.53,8.69-16.38,8.69-7.64,0-14.63-6.26-14.63-15.19s6.53-15.09,13.07-15.09,10.22,2.49,10.22,2.49l1.75-5.34s-4.15-2.92-12.4-2.92c-11.97,0-20.27,7.62-20.27,21.05s10.17,21.45,22.18,21.45c6.86,0,12.72-3.65,16.48-6.78v6.78h7.18v-14.19l3.76-4.16,14.1,18.35h9.3l-18.37-23.91,18.37-20.33h-8.7Z"/>
          <path class="cls-1" d="m152.4,103.6l2.07,5.87c4.42-5.18,19.67-4.07,19.4,5.38v1.53c-7.95-.23-24.78.94-24.78,15.27,0,15.04,17.86,15.21,25.27,8.7.94,2.24,3.16,3.82,5.75,3.82h.94v-28.14c0-12.63-13.05-20.67-28.65-12.43Zm21.47,20.87c-1.18,17.98-17.6,14.87-17.6,7.18,0-11.16,16.42-9.42,17.6-9.28v2.1Z"/>
        </g>
      </g>
      <rect class="cls-2" width="295.73" height="165.91"/>
    </g>
  </g>
</svg>