<svg width="382" height="230" viewBox="0 0 382 230" fill="none" xmlns="http://www.w3.org/2000/svg">
<g clip-path="url(#clip0_348_3215)">
<rect width="382" height="230" fill="#165348"/>
<rect width="382" height="230" fill="#165348"/>
<g opacity="0.5">
<path d="M491.712 86.9881C497.599 84.0789 497.67 75.692 491.833 72.6831L327.847 -11.8645C325.561 -13.0432 322.848 -13.0475 320.559 -11.876L158.068 71.2557C152.223 74.246 152.267 82.6321 158.143 85.5606L322.132 167.287C324.365 168.4 326.988 168.404 329.224 167.299L491.712 86.9881Z" fill="#4D9C81" fill-opacity="0.4"/>
<path d="M488.771 19.1776C494.657 16.2683 494.728 7.88146 488.892 4.87252L324.906 -79.6751C322.619 -80.8538 319.907 -80.858 317.617 -79.6865L155.126 3.44517C149.281 6.4355 149.325 14.8216 155.201 17.75L319.191 99.4767C321.424 100.589 324.047 100.594 326.283 99.4884L488.771 19.1776Z" fill="#4D9C81" fill-opacity="0.4"/>
<path d="M491.712 157.75C497.599 154.841 497.67 146.454 491.833 143.445L327.847 58.8972C325.561 57.7185 322.848 57.7142 320.559 58.8857L158.068 142.017C152.223 145.008 152.267 153.394 158.143 156.322L322.132 238.049C324.365 239.162 326.988 239.166 329.224 238.061L491.712 157.75Z" fill="#4D9C81" fill-opacity="0.4"/>
<path d="M492.361 225.557C498.247 222.648 498.318 214.261 492.482 211.252L328.496 126.705C326.21 125.526 323.497 125.522 321.207 126.693L158.717 209.825C152.872 212.815 152.916 221.201 158.792 224.13L322.781 305.857C325.014 306.969 327.637 306.974 329.873 305.868L492.361 225.557Z" fill="#4D9C81" fill-opacity="0.4"/>
</g>
</g>
<defs>
<clipPath id="clip0_348_3215">
<rect width="382" height="230" fill="white"/>
</clipPath>
</defs>
</svg>
