<svg width="2819" height="1961" viewBox="0 0 2819 1961" fill="none" xmlns="http://www.w3.org/2000/svg">
<g clip-path="url(#clip0_435_11691)">
<rect width="2819" height="1961" fill="#2C2E33"/>
<path opacity="0.5" fill-rule="evenodd" clip-rule="evenodd" d="M1618 378L1945.39 378C1957.62 563.743 2112.15 710.615 2300.99 710.615C2489.83 710.615 2644.36 563.743 2656.59 378L2990 378V710.609C3186.82 710.613 3346.37 870.168 3346.37 1066.99C3346.37 1263.81 3186.82 1423.36 2990 1423.37V1756L1618 1756C1614.69 1756 1612 1753.31 1612 1750L1612 384C1612 380.686 1614.69 378 1618 378Z" fill="#316997"/>
<rect y="-232" width="1619" height="2427" fill="url(#paint0_linear_435_11691)"/>
<rect opacity="0.75" x="1183" y="-427" width="1723" height="2427" fill="url(#paint1_linear_435_11691)" fill-opacity="0.4"/>
<rect opacity="0.4" x="-361" y="1024" width="1544" height="1218" fill="url(#paint2_linear_435_11691)" fill-opacity="0.4"/>
<g opacity="0.85">
<path fill-rule="evenodd" clip-rule="evenodd" d="M896 472.739L288.047 160L-314.99 467.822L237.301 742.442L-314.99 1024.36L237.305 1298.98L-314.99 1580.9L292.964 1883.2L896 1585.82L343.629 1301.67L896 1029.28L343.633 745.133L896 472.739Z" fill="#559471"/>
</g>
<g opacity="0.9">
<rect width="331.673" height="1306.05" rx="20" transform="matrix(1 0 0 -1 1289 787.387)" fill="url(#paint3_linear_435_11691)"/>
<rect width="332.328" height="1071.39" rx="20" transform="matrix(1 0 0 -1 1715.57 729.434)" fill="url(#paint4_linear_435_11691)"/>
<rect width="332.328" height="1686.44" rx="20" transform="matrix(1 0 0 -1 2147.1 977.441)" fill="url(#paint5_linear_435_11691)"/>
<rect width="332.328" height="967.224" rx="20" transform="matrix(1 0 0 -1 2573.67 560.793)" fill="url(#paint6_linear_435_11691)"/>
</g>
<circle opacity="0.7" cx="1096" cy="729" r="516" fill="url(#paint7_linear_435_11691)" fill-opacity="0.6"/>
<path fill-rule="evenodd" clip-rule="evenodd" d="M1692.59 935.688C1691.86 933.601 1689.58 932.498 1687.49 933.223L1435.96 1020.65C1433.88 1021.38 1432.77 1023.66 1433.5 1025.74L1616.91 1553.39L1086.16 1300.78C1084.16 1299.84 1081.78 1300.68 1080.83 1302.68L966.389 1543.12C965.44 1545.12 966.287 1547.51 968.282 1548.46L1494.47 1798.89L971.143 1980.8C969.056 1981.52 967.952 1983.8 968.678 1985.89L1056.11 2237.42C1056.83 2239.51 1059.11 2240.61 1061.2 2239.88L1588.57 2056.58L1332.2 2586.12C1331.23 2588.11 1332.06 2590.51 1334.05 2591.47L1573.73 2707.5C1575.72 2708.47 1578.11 2707.64 1579.08 2705.65L1834.23 2178.61L2016.24 2702.25C2016.96 2704.33 2019.24 2705.44 2021.33 2704.71L2272.86 2617.28C2274.95 2616.55 2276.05 2614.28 2275.33 2612.19L2091.38 2082.99L2619.24 2334.22C2621.23 2335.17 2623.62 2334.32 2624.57 2332.32L2739.01 2091.88C2739.95 2089.88 2739.11 2087.5 2737.11 2086.55L2215.95 1838.5L2737.7 1657.14C2739.79 1656.42 2740.89 1654.14 2740.16 1652.05L2652.74 1400.52C2652.01 1398.44 2649.73 1397.33 2647.64 1398.06L2124 1580.07L2375.8 1059.96C2376.76 1057.97 2375.93 1055.58 2373.94 1054.61L2134.26 938.577C2132.28 937.614 2129.88 938.445 2128.92 940.434L1875.9 1463.07L1692.59 935.688Z" fill="url(#paint8_linear_435_11691)"/>
</g>
<defs>
<linearGradient id="paint0_linear_435_11691" x1="809.5" y1="-232" x2="809.5" y2="2195" gradientUnits="userSpaceOnUse">
<stop stop-color="#705296"/>
<stop offset="1" stop-color="#D15C7D" stop-opacity="0.65"/>
</linearGradient>
<linearGradient id="paint1_linear_435_11691" x1="2044.5" y1="70" x2="2044.5" y2="2000" gradientUnits="userSpaceOnUse">
<stop stop-color="#9FD18C"/>
<stop offset="1" stop-color="#516B48"/>
</linearGradient>
<linearGradient id="paint2_linear_435_11691" x1="411" y1="1273.42" x2="411" y2="2242" gradientUnits="userSpaceOnUse">
<stop stop-color="#9FD18C"/>
<stop offset="1" stop-color="#516B48"/>
</linearGradient>
<linearGradient id="paint3_linear_435_11691" x1="165.836" y1="1306.05" x2="165.836" y2="0" gradientUnits="userSpaceOnUse">
<stop offset="0.29" stop-color="#C04266" stop-opacity="0.6"/>
<stop offset="1" stop-color="#C04266"/>
</linearGradient>
<linearGradient id="paint4_linear_435_11691" x1="166.164" y1="1071.39" x2="166.164" y2="0" gradientUnits="userSpaceOnUse">
<stop offset="0.29" stop-color="#C04266" stop-opacity="0.6"/>
<stop offset="1" stop-color="#C04266"/>
</linearGradient>
<linearGradient id="paint5_linear_435_11691" x1="166.164" y1="1686.44" x2="166.164" y2="0" gradientUnits="userSpaceOnUse">
<stop offset="0.29" stop-color="#C04266" stop-opacity="0.6"/>
<stop offset="1" stop-color="#C04266"/>
</linearGradient>
<linearGradient id="paint6_linear_435_11691" x1="166.164" y1="967.224" x2="166.164" y2="0" gradientUnits="userSpaceOnUse">
<stop offset="0.29" stop-color="#C04266" stop-opacity="0.6"/>
<stop offset="1" stop-color="#C04266"/>
</linearGradient>
<linearGradient id="paint7_linear_435_11691" x1="1096" y1="213" x2="1096" y2="1245" gradientUnits="userSpaceOnUse">
<stop stop-color="#FFD557"/>
<stop offset="0.935" stop-color="#A08537"/>
<stop offset="1" stop-color="#998034"/>
</linearGradient>
<linearGradient id="paint8_linear_435_11691" x1="1853.19" y1="933" x2="1853.19" y2="2707.9" gradientUnits="userSpaceOnUse">
<stop stop-color="#B477FA" stop-opacity="0.2"/>
<stop offset="0.81" stop-color="#AA71EC" stop-opacity="0.8"/>
</linearGradient>
<clipPath id="clip0_435_11691">
<rect width="2819" height="1961" fill="white"/>
</clipPath>
</defs>
</svg>
