<svg width="2819" height="1961" viewBox="0 0 2819 1961" fill="none" xmlns="http://www.w3.org/2000/svg">
<g clip-path="url(#clip0_429_11588)">
<rect width="2819" height="1961" fill="#2C2E33"/>
<path opacity="0.5" fill-rule="evenodd" clip-rule="evenodd" d="M1618 378L1945.39 378C1957.62 563.743 2112.15 710.615 2300.99 710.615C2489.83 710.615 2644.36 563.743 2656.59 378L2990 378V710.609C3186.82 710.613 3346.37 870.168 3346.37 1066.99C3346.37 1263.81 3186.82 1423.36 2990 1423.37V1756L1618 1756C1614.69 1756 1612 1753.31 1612 1750L1612 384C1612 380.686 1614.69 378 1618 378Z" fill="#316997"/>
<rect y="-232" width="1619" height="2427" fill="url(#paint0_linear_429_11588)"/>
<rect opacity="0.75" x="1183" y="-427" width="1723" height="2427" fill="url(#paint1_linear_429_11588)" fill-opacity="0.4"/>
<rect opacity="0.4" x="-361" y="1024" width="1544" height="1218" fill="url(#paint2_linear_429_11588)" fill-opacity="0.4"/>
<g opacity="0.6">
<path d="M894 471.953L286.047 159.215L-316.99 467.036L290.964 769.335L894 471.953Z" fill="#559471"/>
<path d="M894 1028.49L286.047 715.754L-316.99 1023.58L290.964 1325.87L894 1028.49Z" fill="#559471"/>
<path d="M894 1585.04L286.047 1272.3L-316.99 1580.12L290.964 1882.42L894 1585.04Z" fill="#559471"/>
</g>
<g opacity="0.6">
<rect width="331.673" height="1306.05" rx="20" transform="matrix(1 0 0 -1 1289 787.387)" fill="#C04266"/>
<rect width="332.328" height="1071.39" rx="20" transform="matrix(1 0 0 -1 1715.57 729.434)" fill="#C04266"/>
<rect width="332.328" height="1686.44" rx="20" transform="matrix(1 0 0 -1 2147.1 977.441)" fill="#C04266"/>
<rect width="332.328" height="967.224" rx="20" transform="matrix(1 0 0 -1 2573.67 560.793)" fill="#C04266"/>
</g>
<circle opacity="0.6" cx="950" cy="676" r="516" fill="url(#paint3_linear_429_11588)" fill-opacity="0.35"/>
<circle opacity="0.6" cx="950" cy="676" r="159" fill="url(#paint4_linear_429_11588)" fill-opacity="0.35"/>
<g opacity="0.3">
<rect x="1520.47" y="1140.48" width="1536.81" height="236.433" rx="4" transform="rotate(70.8329 1520.47 1140.48)" fill="#B477FA"/>
<rect x="995.762" y="1456.96" width="1582.94" height="236.433" rx="4" transform="rotate(25.4519 995.762 1456.96)" fill="#B477FA"/>
<rect x="2112.02" y="1247.75" width="1582.94" height="236.433" rx="4" transform="rotate(115.833 2112.02 1247.75)" fill="#B477FA"/>
<rect x="2425.72" y="1764.48" width="1536.81" height="236.433" rx="4" transform="rotate(160.833 2425.72 1764.48)" fill="#B477FA"/>
</g>
</g>
<defs>
<linearGradient id="paint0_linear_429_11588" x1="809.5" y1="-232" x2="809.5" y2="2195" gradientUnits="userSpaceOnUse">
<stop stop-color="#705296"/>
<stop offset="1" stop-color="#D15C7D" stop-opacity="0.65"/>
</linearGradient>
<linearGradient id="paint1_linear_429_11588" x1="2044.5" y1="70" x2="2044.5" y2="2000" gradientUnits="userSpaceOnUse">
<stop stop-color="#9FD18C"/>
<stop offset="1" stop-color="#516B48"/>
</linearGradient>
<linearGradient id="paint2_linear_429_11588" x1="411" y1="1273.42" x2="411" y2="2242" gradientUnits="userSpaceOnUse">
<stop stop-color="#9FD18C"/>
<stop offset="1" stop-color="#516B48"/>
</linearGradient>
<linearGradient id="paint3_linear_429_11588" x1="950" y1="160" x2="950" y2="1192" gradientUnits="userSpaceOnUse">
<stop stop-color="#FFD557"/>
<stop offset="0.935" stop-color="#A08537"/>
<stop offset="1" stop-color="#998034"/>
</linearGradient>
<linearGradient id="paint4_linear_429_11588" x1="950" y1="517" x2="950" y2="835" gradientUnits="userSpaceOnUse">
<stop stop-color="#FFD557"/>
<stop offset="1" stop-color="#998034"/>
</linearGradient>
<clipPath id="clip0_429_11588">
<rect width="2819" height="1961" fill="white"/>
</clipPath>
</defs>
</svg>
