<svg width="4687" height="2207" viewBox="0 0 4687 2207" fill="none" xmlns="http://www.w3.org/2000/svg">
<g clip-path="url(#clip0_436_12290)">
<rect width="4687" height="2207" fill="#2C2E33"/>
<rect x="1651" y="-64" width="3234" height="1078" fill="url(#paint0_linear_436_12290)"/>
<path opacity="0.5" fill-rule="evenodd" clip-rule="evenodd" d="M1467.16 864.14L1214.78 862.786C1206.07 718.782 1086.92 604.312 940.567 603.527C794.216 602.742 673.84 715.927 663.591 859.83L405.193 858.444L406.576 600.669C254.039 599.848 131.047 475.528 131.865 322.99C132.683 170.453 257.002 47.4594 409.538 48.2744L410.921 -209.52L1472.88 -203.824C1476.2 -203.806 1478.87 -201.105 1478.85 -197.792L1473.19 858.172C1473.17 861.486 1470.47 864.157 1467.16 864.14Z" fill="#316997"/>
<rect opacity="0.4" x="-2" y="1014" width="1653" height="1218" fill="url(#paint1_linear_436_12290)" fill-opacity="0.4"/>
<rect opacity="0.5" x="-2" y="-204" width="2483" height="2622" fill="#2E4C65"/>
<g opacity="0.2">
<rect x="669.621" y="1055.38" width="1485.72" height="228.572" rx="4" transform="rotate(70.8329 669.621 1055.38)" fill="#B477FA"/>
<rect x="162.359" y="1361.34" width="1530.31" height="228.572" rx="4" transform="rotate(25.4519 162.359 1361.34)" fill="#B477FA"/>
<rect x="1241.51" y="1159.08" width="1530.31" height="228.572" rx="4" transform="rotate(115.833 1241.51 1159.08)" fill="#B477FA"/>
<rect x="1544.78" y="1658.64" width="1485.72" height="228.572" rx="4" transform="rotate(160.833 1544.78 1658.64)" fill="#B477FA"/>
</g>
<g opacity="0.6">
<rect width="304.392" height="1198.62" rx="20" transform="matrix(1 0 0 -1 1740 689.305)" fill="#B93C60"/>
<rect width="304.993" height="983.263" rx="20" transform="matrix(1 0 0 -1 2131.49 636.117)" fill="#B93C60"/>
<rect width="304.993" height="1547.73" rx="20" transform="matrix(1 0 0 -1 2527.52 863.727)" fill="#B93C60"/>
<rect width="304.993" height="887.668" rx="20" transform="matrix(1 0 0 -1 2919 481.348)" fill="#B93C60"/>
</g>
<rect opacity="0.4" x="3304" y="2232" width="1653" height="1218" transform="rotate(-180 3304 2232)" fill="#B7593F"/>
<circle opacity="0.6" cx="2477" cy="1781" r="673" transform="rotate(-180 2477 1781)" fill="url(#paint2_linear_436_12290)" fill-opacity="0.35"/>
<g opacity="0.6">
<path d="M4687 389.477L3997.52 34.8009L3313.62 383.9L4003.1 726.736L4687 389.477Z" fill="#15713E"/>
<path d="M4687 1020.65L3997.52 665.973L3313.62 1015.07L4003.1 1357.91L4687 1020.65Z" fill="#15713E"/>
<path d="M4687 1651.82L3997.52 1297.14L3313.62 1646.24L4003.1 1989.08L4687 1651.82Z" fill="#15713E"/>
</g>
<path opacity="0.75" d="M3304 -9H4885V2418H3304V-9Z" fill="url(#paint3_linear_436_12290)" fill-opacity="0.4"/>
<path opacity="0.75" d="M3994 -58H5575V2369H3994V-58Z" fill="url(#paint4_linear_436_12290)" fill-opacity="0.4"/>
<g style="mix-blend-mode:overlay">
<rect x="-468" y="-119" width="1264" height="2549" fill="url(#paint5_linear_436_12290)"/>
</g>
</g>
<defs>
<linearGradient id="paint0_linear_436_12290" x1="3268" y1="-64" x2="3268" y2="1014" gradientUnits="userSpaceOnUse">
<stop stop-color="#4C405B"/>
<stop offset="1" stop-color="#B4264E" stop-opacity="0.65"/>
</linearGradient>
<linearGradient id="paint1_linear_436_12290" x1="824.5" y1="1263.42" x2="824.5" y2="2232" gradientUnits="userSpaceOnUse">
<stop stop-color="#B477FA"/>
<stop offset="1" stop-color="#6C1463"/>
</linearGradient>
<linearGradient id="paint2_linear_436_12290" x1="2477" y1="1108" x2="2477" y2="2454" gradientUnits="userSpaceOnUse">
<stop stop-color="#FFD557"/>
<stop offset="0.935" stop-color="#A08537"/>
<stop offset="1" stop-color="#998034"/>
</linearGradient>
<linearGradient id="paint3_linear_436_12290" x1="2276.85" y1="299.5" x2="2276.85" y2="2229.5" gradientUnits="userSpaceOnUse">
<stop stop-color="#9FD18C"/>
<stop offset="1" stop-color="#516B48"/>
</linearGradient>
<linearGradient id="paint4_linear_436_12290" x1="2966.85" y1="250.5" x2="2966.85" y2="2180.5" gradientUnits="userSpaceOnUse">
<stop stop-color="#9FD18C"/>
<stop offset="1" stop-color="#516B48"/>
</linearGradient>
<linearGradient id="paint5_linear_436_12290" x1="164" y1="-119" x2="164" y2="2430" gradientUnits="userSpaceOnUse">
<stop stop-color="#52C2E1"/>
<stop offset="1" stop-color="#52C2E1" stop-opacity="0.3"/>
</linearGradient>
<clipPath id="clip0_436_12290">
<rect width="4687" height="2207" fill="white"/>
</clipPath>
</defs>
</svg>
